%TF.GenerationSoftware,KiCad,Pcbnew,6.0.6*%
%TF.CreationDate,2022-08-23T18:22:02-07:00*%
%TF.ProjectId,SDWire,53445769-7265-42e6-9b69-6361645f7063,1.4 r1*%
%TF.SameCoordinates,Original*%
%TF.FileFunction,Copper,L2,Inr*%
%TF.FilePolarity,Positive*%
%FSLAX46Y46*%
G04 Gerber Fmt 4.6, Leading zero omitted, Abs format (unit mm)*
G04 Created by KiCad (PCBNEW 6.0.6) date 2022-08-23 18:22:02*
%MOMM*%
%LPD*%
G01*
G04 APERTURE LIST*
%TA.AperFunction,ComponentPad*%
%ADD10C,1.450000*%
%TD*%
%TA.AperFunction,ComponentPad*%
%ADD11O,1.200000X1.900000*%
%TD*%
%TA.AperFunction,ComponentPad*%
%ADD12C,0.800000*%
%TD*%
%TA.AperFunction,ViaPad*%
%ADD13C,0.800000*%
%TD*%
G04 APERTURE END LIST*
D10*
X144700000Y-128941100D03*
X149700000Y-128941100D03*
D11*
X150700000Y-131641100D03*
X143700000Y-131641100D03*
D12*
X145100000Y-112400000D03*
X137400000Y-105700000D03*
X137400000Y-106700000D03*
X137400000Y-107700000D03*
X144200000Y-105300000D03*
X143300000Y-123500000D03*
X143300000Y-124400000D03*
X143200000Y-128400000D03*
X148590000Y-127965200D03*
X151300000Y-126700000D03*
X154200000Y-126200000D03*
X154200000Y-128800000D03*
X153400000Y-131600000D03*
X152800000Y-120400000D03*
X152000000Y-119400000D03*
X149400000Y-121100000D03*
X148800000Y-120400000D03*
X137720000Y-115620000D03*
X151993600Y-117805200D03*
X137210800Y-132232400D03*
D13*
X149500000Y-89400000D03*
X154800000Y-108700000D03*
X144170400Y-116078000D03*
X149400000Y-108700000D03*
X156427624Y-122203606D03*
X138300000Y-119500000D03*
X138047300Y-127000000D03*
X137700000Y-130100000D03*
X141100000Y-125100000D03*
X140652710Y-120200010D03*
X141126371Y-123255226D03*
X156644968Y-119800000D03*
X154000000Y-123600000D03*
X144951364Y-117459998D03*
X148300000Y-114040002D03*
X156800000Y-118500000D03*
X153200000Y-126000000D03*
X139900000Y-121900000D03*
X155800000Y-106600000D03*
X155800000Y-132000000D03*
X139918535Y-120864156D03*
X155800000Y-111700000D03*
X149400000Y-109700000D03*
X144018000Y-111353600D03*
X155510106Y-124984694D03*
X147225521Y-115901471D03*
X156667200Y-124968000D03*
X140800000Y-114650096D03*
X147300000Y-102800000D03*
X146500000Y-111300000D03*
X142450000Y-131400000D03*
X144877814Y-119712151D03*
X146300058Y-126700000D03*
X145800000Y-118900000D03*
X147400016Y-126700000D03*
X155000000Y-114000000D03*
X151400000Y-104500000D03*
X138772656Y-118300005D03*
X156640042Y-131400000D03*
X155909930Y-107800000D03*
X154000000Y-113600000D03*
X150200000Y-114700000D03*
X155853956Y-110027565D03*
X137782706Y-118310087D03*
X154200000Y-122625002D03*
X140100000Y-131400000D03*
X156800000Y-111700000D03*
X156870400Y-107035600D03*
X151057012Y-123490002D03*
X152114054Y-123911755D03*
X145948400Y-109423200D03*
X144933873Y-109400211D03*
X144830800Y-110388400D03*
X149200000Y-111325000D03*
X146800000Y-113300000D03*
X146610498Y-107442000D03*
%TA.AperFunction,Conductor*%
G36*
X151878854Y-84912748D02*
G01*
X151892212Y-84915644D01*
X151903053Y-84913048D01*
X151911193Y-84912960D01*
X151922107Y-84913446D01*
X151974913Y-84918728D01*
X152014999Y-84922738D01*
X152036671Y-84927400D01*
X152090355Y-84945435D01*
X152142796Y-84963052D01*
X152162886Y-84972420D01*
X152258417Y-85030794D01*
X152275920Y-85044398D01*
X152356060Y-85122559D01*
X152370098Y-85139717D01*
X152430843Y-85233761D01*
X152440706Y-85253603D01*
X152479003Y-85358812D01*
X152484204Y-85380356D01*
X152495885Y-85473541D01*
X152496648Y-85484790D01*
X152496718Y-85491318D01*
X152494356Y-85502212D01*
X152496952Y-85513054D01*
X152496961Y-85513876D01*
X152499500Y-85535381D01*
X152499500Y-103865983D01*
X152496982Y-103888169D01*
X152494344Y-103899641D01*
X152496468Y-103909026D01*
X152496801Y-103912834D01*
X152496799Y-103914085D01*
X152497053Y-103915709D01*
X152510936Y-104074399D01*
X152556246Y-104243498D01*
X152630232Y-104402161D01*
X152730645Y-104545566D01*
X152854434Y-104669355D01*
X152997839Y-104769768D01*
X153156502Y-104843754D01*
X153325601Y-104889064D01*
X153446589Y-104899649D01*
X153482670Y-104902806D01*
X153489508Y-104903892D01*
X153493815Y-104904388D01*
X153499282Y-104905655D01*
X153500000Y-104905656D01*
X153505452Y-104904412D01*
X153505455Y-104904412D01*
X153511734Y-104902980D01*
X153533752Y-104900500D01*
X157165983Y-104900500D01*
X157188169Y-104903018D01*
X157188776Y-104903158D01*
X157188778Y-104903158D01*
X157199641Y-104905656D01*
X157210514Y-104903196D01*
X157218667Y-104903210D01*
X157229578Y-104903833D01*
X157322314Y-104914282D01*
X157343926Y-104919214D01*
X157449584Y-104956185D01*
X157469558Y-104965804D01*
X157564335Y-105025356D01*
X157581668Y-105039178D01*
X157660822Y-105118332D01*
X157674644Y-105135665D01*
X157734196Y-105230442D01*
X157743814Y-105250415D01*
X157780784Y-105356069D01*
X157785718Y-105377683D01*
X157796232Y-105470998D01*
X157796854Y-105482255D01*
X157796843Y-105488774D01*
X157794344Y-105499641D01*
X157797059Y-105511638D01*
X157799500Y-105533488D01*
X157799500Y-132265983D01*
X157796982Y-132288169D01*
X157794344Y-132299641D01*
X157796804Y-132310514D01*
X157796790Y-132318667D01*
X157796167Y-132329578D01*
X157785718Y-132422314D01*
X157780786Y-132443926D01*
X157743815Y-132549584D01*
X157734196Y-132569558D01*
X157674644Y-132664335D01*
X157660822Y-132681668D01*
X157581668Y-132760822D01*
X157564335Y-132774644D01*
X157469558Y-132834196D01*
X157449585Y-132843814D01*
X157343931Y-132880784D01*
X157322318Y-132885718D01*
X157229001Y-132896232D01*
X157217745Y-132896854D01*
X157211226Y-132896843D01*
X157200359Y-132894344D01*
X157188359Y-132897059D01*
X157166512Y-132899500D01*
X151101074Y-132899500D01*
X151042883Y-132880593D01*
X151006919Y-132831093D01*
X151006919Y-132769907D01*
X151042883Y-132720407D01*
X151049199Y-132716179D01*
X151191246Y-132628791D01*
X151195955Y-132625894D01*
X151324268Y-132500241D01*
X151421554Y-132349283D01*
X151482978Y-132180522D01*
X151500500Y-132041817D01*
X151500500Y-132000000D01*
X155194318Y-132000000D01*
X155195165Y-132006434D01*
X155196712Y-132018185D01*
X155214956Y-132156762D01*
X155275464Y-132302841D01*
X155371718Y-132428282D01*
X155497159Y-132524536D01*
X155643238Y-132585044D01*
X155800000Y-132605682D01*
X155956762Y-132585044D01*
X156102841Y-132524536D01*
X156228282Y-132428282D01*
X156324536Y-132302841D01*
X156385044Y-132156762D01*
X156396018Y-132073409D01*
X156422358Y-132018185D01*
X156476128Y-131988990D01*
X156507092Y-131988179D01*
X156633608Y-132004835D01*
X156640042Y-132005682D01*
X156796804Y-131985044D01*
X156942883Y-131924536D01*
X157068324Y-131828282D01*
X157164578Y-131702841D01*
X157225086Y-131556762D01*
X157245724Y-131400000D01*
X157225086Y-131243238D01*
X157164578Y-131097159D01*
X157068324Y-130971718D01*
X156942883Y-130875464D01*
X156796804Y-130814956D01*
X156640042Y-130794318D01*
X156483280Y-130814956D01*
X156337201Y-130875464D01*
X156211760Y-130971718D01*
X156115506Y-131097159D01*
X156054998Y-131243238D01*
X156054151Y-131249674D01*
X156044025Y-131326590D01*
X156017684Y-131381815D01*
X155963914Y-131411010D01*
X155932950Y-131411821D01*
X155806434Y-131395165D01*
X155800000Y-131394318D01*
X155643238Y-131414956D01*
X155497159Y-131475464D01*
X155371718Y-131571718D01*
X155275464Y-131697159D01*
X155214956Y-131843238D01*
X155194318Y-132000000D01*
X151500500Y-132000000D01*
X151500500Y-131245945D01*
X151485546Y-131112628D01*
X151426485Y-130943027D01*
X151382715Y-130872981D01*
X151334247Y-130795415D01*
X151334245Y-130795413D01*
X151331316Y-130790725D01*
X151204770Y-130663293D01*
X151199855Y-130660174D01*
X151057810Y-130570029D01*
X151057809Y-130570028D01*
X151053136Y-130567063D01*
X150883951Y-130506819D01*
X150878464Y-130506165D01*
X150878461Y-130506164D01*
X150711120Y-130486210D01*
X150711117Y-130486210D01*
X150705624Y-130485555D01*
X150527017Y-130504327D01*
X150521777Y-130506111D01*
X150521776Y-130506111D01*
X150362249Y-130560418D01*
X150362245Y-130560420D01*
X150357007Y-130562203D01*
X150352297Y-130565101D01*
X150352292Y-130565103D01*
X150208907Y-130653315D01*
X150204045Y-130656306D01*
X150075732Y-130781959D01*
X149978446Y-130932917D01*
X149917022Y-131101678D01*
X149899500Y-131240383D01*
X149899500Y-132036255D01*
X149914454Y-132169572D01*
X149916276Y-132174804D01*
X149959749Y-132299641D01*
X149973515Y-132339173D01*
X149982738Y-132353933D01*
X150058014Y-132474399D01*
X150068684Y-132491475D01*
X150077389Y-132500241D01*
X150162444Y-132585891D01*
X150195230Y-132618907D01*
X150199904Y-132621873D01*
X150199905Y-132621874D01*
X150346864Y-132715137D01*
X150346005Y-132716491D01*
X150384869Y-132754025D01*
X150395492Y-132814281D01*
X150368668Y-132869273D01*
X150314644Y-132897997D01*
X150297456Y-132899500D01*
X144101074Y-132899500D01*
X144042883Y-132880593D01*
X144006919Y-132831093D01*
X144006919Y-132769907D01*
X144042883Y-132720407D01*
X144049199Y-132716179D01*
X144191246Y-132628791D01*
X144195955Y-132625894D01*
X144324268Y-132500241D01*
X144421554Y-132349283D01*
X144482978Y-132180522D01*
X144500500Y-132041817D01*
X144500500Y-131245945D01*
X144485546Y-131112628D01*
X144426485Y-130943027D01*
X144382715Y-130872981D01*
X144334247Y-130795415D01*
X144334245Y-130795413D01*
X144331316Y-130790725D01*
X144204770Y-130663293D01*
X144199855Y-130660174D01*
X144057810Y-130570029D01*
X144057809Y-130570028D01*
X144053136Y-130567063D01*
X143883951Y-130506819D01*
X143878464Y-130506165D01*
X143878461Y-130506164D01*
X143711120Y-130486210D01*
X143711117Y-130486210D01*
X143705624Y-130485555D01*
X143527017Y-130504327D01*
X143521777Y-130506111D01*
X143521776Y-130506111D01*
X143362249Y-130560418D01*
X143362245Y-130560420D01*
X143357007Y-130562203D01*
X143352297Y-130565101D01*
X143352292Y-130565103D01*
X143208907Y-130653315D01*
X143204045Y-130656306D01*
X143075732Y-130781959D01*
X143072734Y-130786611D01*
X142986791Y-130919968D01*
X142939376Y-130958639D01*
X142878286Y-130962054D01*
X142843308Y-130944881D01*
X142757990Y-130879415D01*
X142752841Y-130875464D01*
X142606762Y-130814956D01*
X142450000Y-130794318D01*
X142293238Y-130814956D01*
X142147159Y-130875464D01*
X142021718Y-130971718D01*
X141925464Y-131097159D01*
X141864956Y-131243238D01*
X141844318Y-131400000D01*
X141864956Y-131556762D01*
X141925464Y-131702841D01*
X142021718Y-131828282D01*
X142147159Y-131924536D01*
X142293238Y-131985044D01*
X142450000Y-132005682D01*
X142606762Y-131985044D01*
X142752841Y-131924536D01*
X142753391Y-131924114D01*
X142810844Y-131911899D01*
X142866741Y-131936783D01*
X142897336Y-131989770D01*
X142899500Y-132010357D01*
X142899500Y-132036255D01*
X142914454Y-132169572D01*
X142916276Y-132174804D01*
X142959749Y-132299641D01*
X142973515Y-132339173D01*
X142982738Y-132353933D01*
X143058014Y-132474399D01*
X143068684Y-132491475D01*
X143077389Y-132500241D01*
X143162444Y-132585891D01*
X143195230Y-132618907D01*
X143199904Y-132621873D01*
X143199905Y-132621874D01*
X143346864Y-132715137D01*
X143346005Y-132716491D01*
X143384869Y-132754025D01*
X143395492Y-132814281D01*
X143368668Y-132869273D01*
X143314644Y-132897997D01*
X143297456Y-132899500D01*
X137234017Y-132899500D01*
X137211831Y-132896982D01*
X137211224Y-132896842D01*
X137211222Y-132896842D01*
X137200359Y-132894344D01*
X137189486Y-132896804D01*
X137181333Y-132896790D01*
X137170422Y-132896167D01*
X137077686Y-132885718D01*
X137056074Y-132880786D01*
X136950416Y-132843815D01*
X136930442Y-132834196D01*
X136835665Y-132774644D01*
X136818332Y-132760822D01*
X136739178Y-132681668D01*
X136725356Y-132664335D01*
X136665804Y-132569558D01*
X136656186Y-132549585D01*
X136619216Y-132443931D01*
X136614282Y-132422317D01*
X136604038Y-132331395D01*
X136604065Y-132308992D01*
X136604388Y-132306183D01*
X136605655Y-132300718D01*
X136605656Y-132300000D01*
X136603096Y-132288776D01*
X136602980Y-132288266D01*
X136600500Y-132266248D01*
X136600500Y-131400000D01*
X139494318Y-131400000D01*
X139514956Y-131556762D01*
X139575464Y-131702841D01*
X139671718Y-131828282D01*
X139797159Y-131924536D01*
X139943238Y-131985044D01*
X140100000Y-132005682D01*
X140256762Y-131985044D01*
X140402841Y-131924536D01*
X140528282Y-131828282D01*
X140624536Y-131702841D01*
X140685044Y-131556762D01*
X140705682Y-131400000D01*
X140685044Y-131243238D01*
X140624536Y-131097159D01*
X140528282Y-130971718D01*
X140402841Y-130875464D01*
X140256762Y-130814956D01*
X140100000Y-130794318D01*
X139943238Y-130814956D01*
X139797159Y-130875464D01*
X139671718Y-130971718D01*
X139575464Y-131097159D01*
X139514956Y-131243238D01*
X139494318Y-131400000D01*
X136600500Y-131400000D01*
X136600500Y-128941100D01*
X143769402Y-128941100D01*
X143789738Y-129134582D01*
X143849856Y-129319608D01*
X143947130Y-129488092D01*
X143950602Y-129491948D01*
X144073838Y-129628816D01*
X144073842Y-129628819D01*
X144077308Y-129632669D01*
X144234701Y-129747022D01*
X144297456Y-129774962D01*
X144407691Y-129824042D01*
X144407695Y-129824043D01*
X144412429Y-129826151D01*
X144417499Y-129827229D01*
X144417500Y-129827229D01*
X144453815Y-129834948D01*
X144602726Y-129866600D01*
X144797274Y-129866600D01*
X144946185Y-129834948D01*
X144982500Y-129827229D01*
X144982501Y-129827229D01*
X144987571Y-129826151D01*
X144992305Y-129824043D01*
X144992309Y-129824042D01*
X145102544Y-129774962D01*
X145165299Y-129747022D01*
X145322692Y-129632669D01*
X145326158Y-129628819D01*
X145326162Y-129628816D01*
X145449398Y-129491948D01*
X145452870Y-129488092D01*
X145550144Y-129319608D01*
X145610262Y-129134582D01*
X145630598Y-128941100D01*
X148769402Y-128941100D01*
X148789738Y-129134582D01*
X148849856Y-129319608D01*
X148947130Y-129488092D01*
X148950602Y-129491948D01*
X149073838Y-129628816D01*
X149073842Y-129628819D01*
X149077308Y-129632669D01*
X149234701Y-129747022D01*
X149297456Y-129774962D01*
X149407691Y-129824042D01*
X149407695Y-129824043D01*
X149412429Y-129826151D01*
X149417499Y-129827229D01*
X149417500Y-129827229D01*
X149453815Y-129834948D01*
X149602726Y-129866600D01*
X149797274Y-129866600D01*
X149946185Y-129834948D01*
X149982500Y-129827229D01*
X149982501Y-129827229D01*
X149987571Y-129826151D01*
X149992305Y-129824043D01*
X149992309Y-129824042D01*
X150102544Y-129774962D01*
X150165299Y-129747022D01*
X150322692Y-129632669D01*
X150326158Y-129628819D01*
X150326162Y-129628816D01*
X150449398Y-129491948D01*
X150452870Y-129488092D01*
X150550144Y-129319608D01*
X150610262Y-129134582D01*
X150630598Y-128941100D01*
X150610262Y-128747618D01*
X150550144Y-128562592D01*
X150452870Y-128394108D01*
X150443890Y-128384135D01*
X150326162Y-128253384D01*
X150326158Y-128253381D01*
X150322692Y-128249531D01*
X150165299Y-128135178D01*
X150102544Y-128107238D01*
X149992309Y-128058158D01*
X149992305Y-128058157D01*
X149987571Y-128056049D01*
X149982501Y-128054971D01*
X149982500Y-128054971D01*
X149946185Y-128047252D01*
X149797274Y-128015600D01*
X149602726Y-128015600D01*
X149453815Y-128047252D01*
X149417500Y-128054971D01*
X149417499Y-128054971D01*
X149412429Y-128056049D01*
X149407695Y-128058157D01*
X149407691Y-128058158D01*
X149297456Y-128107238D01*
X149234701Y-128135178D01*
X149077308Y-128249531D01*
X149073842Y-128253381D01*
X149073838Y-128253384D01*
X148956110Y-128384135D01*
X148947130Y-128394108D01*
X148849856Y-128562592D01*
X148789738Y-128747618D01*
X148769402Y-128941100D01*
X145630598Y-128941100D01*
X145610262Y-128747618D01*
X145550144Y-128562592D01*
X145452870Y-128394108D01*
X145443890Y-128384135D01*
X145326162Y-128253384D01*
X145326158Y-128253381D01*
X145322692Y-128249531D01*
X145165299Y-128135178D01*
X145102544Y-128107238D01*
X144992309Y-128058158D01*
X144992305Y-128058157D01*
X144987571Y-128056049D01*
X144982501Y-128054971D01*
X144982500Y-128054971D01*
X144946185Y-128047252D01*
X144797274Y-128015600D01*
X144602726Y-128015600D01*
X144453815Y-128047252D01*
X144417500Y-128054971D01*
X144417499Y-128054971D01*
X144412429Y-128056049D01*
X144407695Y-128058157D01*
X144407691Y-128058158D01*
X144297456Y-128107238D01*
X144234701Y-128135178D01*
X144077308Y-128249531D01*
X144073842Y-128253381D01*
X144073838Y-128253384D01*
X143956110Y-128384135D01*
X143947130Y-128394108D01*
X143849856Y-128562592D01*
X143789738Y-128747618D01*
X143769402Y-128941100D01*
X136600500Y-128941100D01*
X136600500Y-126700000D01*
X145694376Y-126700000D01*
X145715014Y-126856762D01*
X145775522Y-127002841D01*
X145871776Y-127128282D01*
X145997217Y-127224536D01*
X146143296Y-127285044D01*
X146300058Y-127305682D01*
X146456820Y-127285044D01*
X146602899Y-127224536D01*
X146728340Y-127128282D01*
X146771495Y-127072041D01*
X146821919Y-127037385D01*
X146883084Y-127038986D01*
X146928579Y-127072041D01*
X146971734Y-127128282D01*
X147097175Y-127224536D01*
X147243254Y-127285044D01*
X147400016Y-127305682D01*
X147556778Y-127285044D01*
X147702857Y-127224536D01*
X147828298Y-127128282D01*
X147924552Y-127002841D01*
X147985060Y-126856762D01*
X148005698Y-126700000D01*
X147985060Y-126543238D01*
X147924552Y-126397159D01*
X147828298Y-126271718D01*
X147702857Y-126175464D01*
X147556778Y-126114956D01*
X147400016Y-126094318D01*
X147243254Y-126114956D01*
X147097175Y-126175464D01*
X146971734Y-126271718D01*
X146967780Y-126276871D01*
X146928579Y-126327959D01*
X146878155Y-126362615D01*
X146816990Y-126361014D01*
X146771495Y-126327959D01*
X146732294Y-126276871D01*
X146728340Y-126271718D01*
X146602899Y-126175464D01*
X146456820Y-126114956D01*
X146300058Y-126094318D01*
X146143296Y-126114956D01*
X145997217Y-126175464D01*
X145871776Y-126271718D01*
X145775522Y-126397159D01*
X145715014Y-126543238D01*
X145694376Y-126700000D01*
X136600500Y-126700000D01*
X136600500Y-126000000D01*
X152594318Y-126000000D01*
X152614956Y-126156762D01*
X152675464Y-126302841D01*
X152771718Y-126428282D01*
X152897159Y-126524536D01*
X153043238Y-126585044D01*
X153200000Y-126605682D01*
X153356762Y-126585044D01*
X153502841Y-126524536D01*
X153628282Y-126428282D01*
X153724536Y-126302841D01*
X153785044Y-126156762D01*
X153805682Y-126000000D01*
X153785044Y-125843238D01*
X153724536Y-125697159D01*
X153628282Y-125571718D01*
X153502841Y-125475464D01*
X153356762Y-125414956D01*
X153200000Y-125394318D01*
X153043238Y-125414956D01*
X152897159Y-125475464D01*
X152771718Y-125571718D01*
X152675464Y-125697159D01*
X152614956Y-125843238D01*
X152594318Y-126000000D01*
X136600500Y-126000000D01*
X136600500Y-124984694D01*
X154904424Y-124984694D01*
X154925062Y-125141456D01*
X154927546Y-125147453D01*
X154936777Y-125169740D01*
X154985570Y-125287535D01*
X155081824Y-125412976D01*
X155207265Y-125509230D01*
X155353344Y-125569738D01*
X155510106Y-125590376D01*
X155666868Y-125569738D01*
X155812947Y-125509230D01*
X155938388Y-125412976D01*
X156016517Y-125311157D01*
X156066941Y-125276502D01*
X156128105Y-125278104D01*
X156173599Y-125311157D01*
X156238918Y-125396282D01*
X156364359Y-125492536D01*
X156510438Y-125553044D01*
X156667200Y-125573682D01*
X156823962Y-125553044D01*
X156970041Y-125492536D01*
X157095482Y-125396282D01*
X157191736Y-125270841D01*
X157252244Y-125124762D01*
X157272882Y-124968000D01*
X157252244Y-124811238D01*
X157249205Y-124803900D01*
X157194219Y-124671154D01*
X157191736Y-124665159D01*
X157095482Y-124539718D01*
X156970041Y-124443464D01*
X156823962Y-124382956D01*
X156667200Y-124362318D01*
X156510438Y-124382956D01*
X156364359Y-124443464D01*
X156238918Y-124539718D01*
X156160791Y-124641536D01*
X156160790Y-124641537D01*
X156110365Y-124676192D01*
X156049201Y-124674590D01*
X156003706Y-124641536D01*
X155942342Y-124561565D01*
X155938388Y-124556412D01*
X155812947Y-124460158D01*
X155666868Y-124399650D01*
X155510106Y-124379012D01*
X155353344Y-124399650D01*
X155207265Y-124460158D01*
X155081824Y-124556412D01*
X154985570Y-124681853D01*
X154925062Y-124827932D01*
X154904424Y-124984694D01*
X136600500Y-124984694D01*
X136600500Y-123490002D01*
X150451330Y-123490002D01*
X150471968Y-123646764D01*
X150532476Y-123792843D01*
X150628730Y-123918284D01*
X150754171Y-124014538D01*
X150900250Y-124075046D01*
X151057012Y-124095684D01*
X151213774Y-124075046D01*
X151359853Y-124014538D01*
X151371347Y-124005718D01*
X151429021Y-123985295D01*
X151487687Y-124002672D01*
X151524934Y-124051214D01*
X151527240Y-124058638D01*
X151528163Y-124062081D01*
X151529010Y-124068517D01*
X151589518Y-124214596D01*
X151685772Y-124340037D01*
X151811213Y-124436291D01*
X151957292Y-124496799D01*
X152114054Y-124517437D01*
X152270816Y-124496799D01*
X152416895Y-124436291D01*
X152542336Y-124340037D01*
X152638590Y-124214596D01*
X152699098Y-124068517D01*
X152719736Y-123911755D01*
X152699098Y-123754993D01*
X152638590Y-123608914D01*
X152542336Y-123483473D01*
X152416895Y-123387219D01*
X152270816Y-123326711D01*
X152114054Y-123306073D01*
X151957292Y-123326711D01*
X151811213Y-123387219D01*
X151799719Y-123396039D01*
X151742045Y-123416462D01*
X151683379Y-123399085D01*
X151646132Y-123350543D01*
X151643826Y-123343119D01*
X151642903Y-123339675D01*
X151642056Y-123333240D01*
X151581548Y-123187161D01*
X151485294Y-123061720D01*
X151359853Y-122965466D01*
X151213774Y-122904958D01*
X151057012Y-122884320D01*
X150900250Y-122904958D01*
X150754171Y-122965466D01*
X150628730Y-123061720D01*
X150532476Y-123187161D01*
X150471968Y-123333240D01*
X150451330Y-123490002D01*
X136600500Y-123490002D01*
X136600500Y-122625002D01*
X153594318Y-122625002D01*
X153614956Y-122781764D01*
X153675464Y-122927843D01*
X153771718Y-123053284D01*
X153897159Y-123149538D01*
X154043238Y-123210046D01*
X154200000Y-123230684D01*
X154356762Y-123210046D01*
X154502841Y-123149538D01*
X154628282Y-123053284D01*
X154724536Y-122927843D01*
X154785044Y-122781764D01*
X154805682Y-122625002D01*
X154785044Y-122468240D01*
X154724536Y-122322161D01*
X154628282Y-122196720D01*
X154502841Y-122100466D01*
X154356762Y-122039958D01*
X154200000Y-122019320D01*
X154043238Y-122039958D01*
X153897159Y-122100466D01*
X153771718Y-122196720D01*
X153675464Y-122322161D01*
X153614956Y-122468240D01*
X153594318Y-122625002D01*
X136600500Y-122625002D01*
X136600500Y-121900000D01*
X139294318Y-121900000D01*
X139314956Y-122056762D01*
X139375464Y-122202841D01*
X139471718Y-122328282D01*
X139597159Y-122424536D01*
X139743238Y-122485044D01*
X139900000Y-122505682D01*
X140056762Y-122485044D01*
X140202841Y-122424536D01*
X140328282Y-122328282D01*
X140424536Y-122202841D01*
X140485044Y-122056762D01*
X140505682Y-121900000D01*
X140485044Y-121743238D01*
X140424536Y-121597159D01*
X140328282Y-121471718D01*
X140323086Y-121467731D01*
X140323064Y-121467699D01*
X140318545Y-121463180D01*
X140319383Y-121462342D01*
X140288430Y-121417307D01*
X140290031Y-121356142D01*
X140323086Y-121310647D01*
X140346817Y-121292438D01*
X140443071Y-121166997D01*
X140503579Y-121020918D01*
X140524217Y-120864156D01*
X140503579Y-120707394D01*
X140443071Y-120561315D01*
X140346817Y-120435874D01*
X140221376Y-120339620D01*
X140075297Y-120279112D01*
X139918535Y-120258474D01*
X139761773Y-120279112D01*
X139615694Y-120339620D01*
X139490253Y-120435874D01*
X139393999Y-120561315D01*
X139333491Y-120707394D01*
X139312853Y-120864156D01*
X139333491Y-121020918D01*
X139393999Y-121166997D01*
X139490253Y-121292438D01*
X139495405Y-121296391D01*
X139495406Y-121296392D01*
X139495449Y-121296425D01*
X139495471Y-121296457D01*
X139499990Y-121300976D01*
X139499152Y-121301814D01*
X139530105Y-121346849D01*
X139528504Y-121408014D01*
X139495449Y-121453509D01*
X139471718Y-121471718D01*
X139375464Y-121597159D01*
X139314956Y-121743238D01*
X139294318Y-121900000D01*
X136600500Y-121900000D01*
X136600500Y-119712151D01*
X144272132Y-119712151D01*
X144292770Y-119868913D01*
X144353278Y-120014992D01*
X144449532Y-120140433D01*
X144574973Y-120236687D01*
X144721052Y-120297195D01*
X144877814Y-120317833D01*
X145034576Y-120297195D01*
X145180655Y-120236687D01*
X145306096Y-120140433D01*
X145402350Y-120014992D01*
X145462858Y-119868913D01*
X145483496Y-119712151D01*
X145465041Y-119571967D01*
X145476191Y-119511806D01*
X145520574Y-119469689D01*
X145581236Y-119461703D01*
X145601073Y-119467579D01*
X145643238Y-119485044D01*
X145800000Y-119505682D01*
X145956762Y-119485044D01*
X146102841Y-119424536D01*
X146228282Y-119328282D01*
X146324536Y-119202841D01*
X146385044Y-119056762D01*
X146403606Y-118915769D01*
X146404835Y-118906434D01*
X146405682Y-118900000D01*
X146385044Y-118743238D01*
X146324536Y-118597159D01*
X146249983Y-118500000D01*
X156194318Y-118500000D01*
X156214956Y-118656762D01*
X156275464Y-118802841D01*
X156371718Y-118928282D01*
X156497159Y-119024536D01*
X156643238Y-119085044D01*
X156800000Y-119105682D01*
X156956762Y-119085044D01*
X157102841Y-119024536D01*
X157228282Y-118928282D01*
X157324536Y-118802841D01*
X157385044Y-118656762D01*
X157405682Y-118500000D01*
X157385044Y-118343238D01*
X157324536Y-118197159D01*
X157228282Y-118071718D01*
X157102841Y-117975464D01*
X156956762Y-117914956D01*
X156800000Y-117894318D01*
X156643238Y-117914956D01*
X156497159Y-117975464D01*
X156371718Y-118071718D01*
X156275464Y-118197159D01*
X156214956Y-118343238D01*
X156194318Y-118500000D01*
X146249983Y-118500000D01*
X146228282Y-118471718D01*
X146102841Y-118375464D01*
X145956762Y-118314956D01*
X145800000Y-118294318D01*
X145643238Y-118314956D01*
X145497159Y-118375464D01*
X145371718Y-118471718D01*
X145275464Y-118597159D01*
X145214956Y-118743238D01*
X145194318Y-118900000D01*
X145195165Y-118906434D01*
X145212773Y-119040184D01*
X145201623Y-119100345D01*
X145157240Y-119142462D01*
X145096578Y-119150448D01*
X145076741Y-119144572D01*
X145034576Y-119127107D01*
X144877814Y-119106469D01*
X144721052Y-119127107D01*
X144574973Y-119187615D01*
X144449532Y-119283869D01*
X144353278Y-119409310D01*
X144292770Y-119555389D01*
X144272132Y-119712151D01*
X136600500Y-119712151D01*
X136600500Y-118310087D01*
X137177024Y-118310087D01*
X137197662Y-118466849D01*
X137258170Y-118612928D01*
X137354424Y-118738369D01*
X137479865Y-118834623D01*
X137625944Y-118895131D01*
X137782706Y-118915769D01*
X137939468Y-118895131D01*
X138085547Y-118834623D01*
X138210988Y-118738369D01*
X138213568Y-118735007D01*
X138267235Y-118707663D01*
X138327667Y-118717234D01*
X138343839Y-118728984D01*
X138344374Y-118728287D01*
X138469815Y-118824541D01*
X138615894Y-118885049D01*
X138772656Y-118905687D01*
X138929418Y-118885049D01*
X139075497Y-118824541D01*
X139200938Y-118728287D01*
X139297192Y-118602846D01*
X139357700Y-118456767D01*
X139378338Y-118300005D01*
X139357700Y-118143243D01*
X139297192Y-117997164D01*
X139200938Y-117871723D01*
X139075497Y-117775469D01*
X138929418Y-117714961D01*
X138772656Y-117694323D01*
X138615894Y-117714961D01*
X138469815Y-117775469D01*
X138344374Y-117871723D01*
X138341794Y-117875085D01*
X138288127Y-117902429D01*
X138227695Y-117892858D01*
X138211523Y-117881108D01*
X138210988Y-117881805D01*
X138090696Y-117789502D01*
X138085547Y-117785551D01*
X137939468Y-117725043D01*
X137782706Y-117704405D01*
X137625944Y-117725043D01*
X137479865Y-117785551D01*
X137354424Y-117881805D01*
X137258170Y-118007246D01*
X137197662Y-118153325D01*
X137196815Y-118159761D01*
X137178989Y-118295165D01*
X137177024Y-118310087D01*
X136600500Y-118310087D01*
X136600500Y-117459998D01*
X144345682Y-117459998D01*
X144366320Y-117616760D01*
X144426828Y-117762839D01*
X144523082Y-117888280D01*
X144648523Y-117984534D01*
X144794602Y-118045042D01*
X144951364Y-118065680D01*
X145108126Y-118045042D01*
X145254205Y-117984534D01*
X145379646Y-117888280D01*
X145475900Y-117762839D01*
X145536408Y-117616760D01*
X145557046Y-117459998D01*
X145536408Y-117303236D01*
X145475900Y-117157157D01*
X145379646Y-117031716D01*
X145254205Y-116935462D01*
X145108126Y-116874954D01*
X144951364Y-116854316D01*
X144794602Y-116874954D01*
X144648523Y-116935462D01*
X144523082Y-117031716D01*
X144426828Y-117157157D01*
X144366320Y-117303236D01*
X144345682Y-117459998D01*
X136600500Y-117459998D01*
X136600500Y-115901471D01*
X146619839Y-115901471D01*
X146640477Y-116058233D01*
X146700985Y-116204312D01*
X146797239Y-116329753D01*
X146922680Y-116426007D01*
X147068759Y-116486515D01*
X147225521Y-116507153D01*
X147382283Y-116486515D01*
X147528362Y-116426007D01*
X147653803Y-116329753D01*
X147750057Y-116204312D01*
X147810565Y-116058233D01*
X147831203Y-115901471D01*
X147810565Y-115744709D01*
X147750057Y-115598630D01*
X147653803Y-115473189D01*
X147528362Y-115376935D01*
X147382283Y-115316427D01*
X147225521Y-115295789D01*
X147068759Y-115316427D01*
X146922680Y-115376935D01*
X146797239Y-115473189D01*
X146700985Y-115598630D01*
X146640477Y-115744709D01*
X146619839Y-115901471D01*
X136600500Y-115901471D01*
X136600500Y-114650096D01*
X140194318Y-114650096D01*
X140214956Y-114806858D01*
X140275464Y-114952937D01*
X140371718Y-115078378D01*
X140497159Y-115174632D01*
X140643238Y-115235140D01*
X140800000Y-115255778D01*
X140956762Y-115235140D01*
X141102841Y-115174632D01*
X141228282Y-115078378D01*
X141324536Y-114952937D01*
X141385044Y-114806858D01*
X141399112Y-114700000D01*
X149594318Y-114700000D01*
X149614956Y-114856762D01*
X149675464Y-115002841D01*
X149771718Y-115128282D01*
X149897159Y-115224536D01*
X150043238Y-115285044D01*
X150200000Y-115305682D01*
X150356762Y-115285044D01*
X150502841Y-115224536D01*
X150628282Y-115128282D01*
X150724536Y-115002841D01*
X150785044Y-114856762D01*
X150805682Y-114700000D01*
X150785044Y-114543238D01*
X150724536Y-114397159D01*
X150628282Y-114271718D01*
X150502841Y-114175464D01*
X150376368Y-114123077D01*
X150362759Y-114117440D01*
X150356762Y-114114956D01*
X150200000Y-114094318D01*
X150043238Y-114114956D01*
X150037241Y-114117440D01*
X150023632Y-114123077D01*
X149897159Y-114175464D01*
X149771718Y-114271718D01*
X149675464Y-114397159D01*
X149614956Y-114543238D01*
X149594318Y-114700000D01*
X141399112Y-114700000D01*
X141405682Y-114650096D01*
X141385044Y-114493334D01*
X141324536Y-114347255D01*
X141228282Y-114221814D01*
X141102841Y-114125560D01*
X140956762Y-114065052D01*
X140800000Y-114044414D01*
X140643238Y-114065052D01*
X140497159Y-114125560D01*
X140371718Y-114221814D01*
X140275464Y-114347255D01*
X140214956Y-114493334D01*
X140194318Y-114650096D01*
X136600500Y-114650096D01*
X136600500Y-114040002D01*
X147694318Y-114040002D01*
X147714956Y-114196764D01*
X147775464Y-114342843D01*
X147871718Y-114468284D01*
X147997159Y-114564538D01*
X148143238Y-114625046D01*
X148300000Y-114645684D01*
X148456762Y-114625046D01*
X148602841Y-114564538D01*
X148728282Y-114468284D01*
X148824536Y-114342843D01*
X148885044Y-114196764D01*
X148905682Y-114040002D01*
X148885044Y-113883240D01*
X148824536Y-113737161D01*
X148728282Y-113611720D01*
X148713008Y-113600000D01*
X153394318Y-113600000D01*
X153414956Y-113756762D01*
X153475464Y-113902841D01*
X153571718Y-114028282D01*
X153697159Y-114124536D01*
X153843238Y-114185044D01*
X154000000Y-114205682D01*
X154156762Y-114185044D01*
X154162760Y-114182560D01*
X154162762Y-114182559D01*
X154295680Y-114127503D01*
X154356676Y-114122702D01*
X154408845Y-114154672D01*
X154425029Y-114181081D01*
X154435219Y-114205682D01*
X154475464Y-114302841D01*
X154571718Y-114428282D01*
X154697159Y-114524536D01*
X154843238Y-114585044D01*
X155000000Y-114605682D01*
X155156762Y-114585044D01*
X155302841Y-114524536D01*
X155428282Y-114428282D01*
X155524536Y-114302841D01*
X155585044Y-114156762D01*
X155605682Y-114000000D01*
X155585044Y-113843238D01*
X155524536Y-113697159D01*
X155428282Y-113571718D01*
X155302841Y-113475464D01*
X155156762Y-113414956D01*
X155000000Y-113394318D01*
X154843238Y-113414956D01*
X154837240Y-113417440D01*
X154837238Y-113417441D01*
X154704320Y-113472497D01*
X154643324Y-113477298D01*
X154591155Y-113445328D01*
X154574971Y-113418919D01*
X154527019Y-113303154D01*
X154524536Y-113297159D01*
X154428282Y-113171718D01*
X154302841Y-113075464D01*
X154156762Y-113014956D01*
X154000000Y-112994318D01*
X153843238Y-113014956D01*
X153697159Y-113075464D01*
X153571718Y-113171718D01*
X153475464Y-113297159D01*
X153414956Y-113443238D01*
X153394318Y-113600000D01*
X148713008Y-113600000D01*
X148602841Y-113515466D01*
X148456762Y-113454958D01*
X148300000Y-113434320D01*
X148143238Y-113454958D01*
X147997159Y-113515466D01*
X147871718Y-113611720D01*
X147775464Y-113737161D01*
X147714956Y-113883240D01*
X147694318Y-114040002D01*
X136600500Y-114040002D01*
X136600500Y-113300000D01*
X146194318Y-113300000D01*
X146214956Y-113456762D01*
X146275464Y-113602841D01*
X146371718Y-113728282D01*
X146497159Y-113824536D01*
X146643238Y-113885044D01*
X146800000Y-113905682D01*
X146956762Y-113885044D01*
X147102841Y-113824536D01*
X147228282Y-113728282D01*
X147324536Y-113602841D01*
X147385044Y-113456762D01*
X147405682Y-113300000D01*
X147385044Y-113143238D01*
X147324536Y-112997159D01*
X147228282Y-112871718D01*
X147102841Y-112775464D01*
X146956762Y-112714956D01*
X146800000Y-112694318D01*
X146643238Y-112714956D01*
X146497159Y-112775464D01*
X146371718Y-112871718D01*
X146275464Y-112997159D01*
X146214956Y-113143238D01*
X146194318Y-113300000D01*
X136600500Y-113300000D01*
X136600500Y-111353600D01*
X143412318Y-111353600D01*
X143432956Y-111510362D01*
X143493464Y-111656441D01*
X143589718Y-111781882D01*
X143715159Y-111878136D01*
X143861238Y-111938644D01*
X144018000Y-111959282D01*
X144174762Y-111938644D01*
X144320841Y-111878136D01*
X144446282Y-111781882D01*
X144542536Y-111656441D01*
X144603044Y-111510362D01*
X144623682Y-111353600D01*
X144616625Y-111300000D01*
X145894318Y-111300000D01*
X145914956Y-111456762D01*
X145975464Y-111602841D01*
X146071718Y-111728282D01*
X146197159Y-111824536D01*
X146343238Y-111885044D01*
X146500000Y-111905682D01*
X146656762Y-111885044D01*
X146802841Y-111824536D01*
X146928282Y-111728282D01*
X147024536Y-111602841D01*
X147085044Y-111456762D01*
X147102391Y-111325000D01*
X148594318Y-111325000D01*
X148614956Y-111481762D01*
X148675464Y-111627841D01*
X148771718Y-111753282D01*
X148897159Y-111849536D01*
X149043238Y-111910044D01*
X149200000Y-111930682D01*
X149356762Y-111910044D01*
X149502841Y-111849536D01*
X149628282Y-111753282D01*
X149669167Y-111700000D01*
X155194318Y-111700000D01*
X155214956Y-111856762D01*
X155275464Y-112002841D01*
X155371718Y-112128282D01*
X155497159Y-112224536D01*
X155643238Y-112285044D01*
X155800000Y-112305682D01*
X155956762Y-112285044D01*
X156102841Y-112224536D01*
X156228282Y-112128282D01*
X156230852Y-112124933D01*
X156284513Y-112097592D01*
X156344945Y-112107163D01*
X156368826Y-112124513D01*
X156371718Y-112128282D01*
X156497159Y-112224536D01*
X156643238Y-112285044D01*
X156800000Y-112305682D01*
X156956762Y-112285044D01*
X157102841Y-112224536D01*
X157228282Y-112128282D01*
X157324536Y-112002841D01*
X157385044Y-111856762D01*
X157405682Y-111700000D01*
X157385044Y-111543238D01*
X157324536Y-111397159D01*
X157228282Y-111271718D01*
X157102841Y-111175464D01*
X156956762Y-111114956D01*
X156800000Y-111094318D01*
X156643238Y-111114956D01*
X156497159Y-111175464D01*
X156371718Y-111271718D01*
X156369148Y-111275067D01*
X156315487Y-111302408D01*
X156255055Y-111292837D01*
X156231174Y-111275487D01*
X156228282Y-111271718D01*
X156102841Y-111175464D01*
X155956762Y-111114956D01*
X155800000Y-111094318D01*
X155643238Y-111114956D01*
X155497159Y-111175464D01*
X155371718Y-111271718D01*
X155275464Y-111397159D01*
X155214956Y-111543238D01*
X155194318Y-111700000D01*
X149669167Y-111700000D01*
X149724536Y-111627841D01*
X149785044Y-111481762D01*
X149805682Y-111325000D01*
X149785044Y-111168238D01*
X149724536Y-111022159D01*
X149628282Y-110896718D01*
X149502841Y-110800464D01*
X149356762Y-110739956D01*
X149200000Y-110719318D01*
X149043238Y-110739956D01*
X148897159Y-110800464D01*
X148771718Y-110896718D01*
X148675464Y-111022159D01*
X148614956Y-111168238D01*
X148594318Y-111325000D01*
X147102391Y-111325000D01*
X147105682Y-111300000D01*
X147085044Y-111143238D01*
X147024536Y-110997159D01*
X146928282Y-110871718D01*
X146802841Y-110775464D01*
X146656762Y-110714956D01*
X146525569Y-110697684D01*
X146506434Y-110695165D01*
X146500000Y-110694318D01*
X146493566Y-110695165D01*
X146474431Y-110697684D01*
X146343238Y-110714956D01*
X146197159Y-110775464D01*
X146071718Y-110871718D01*
X145975464Y-110997159D01*
X145914956Y-111143238D01*
X145894318Y-111300000D01*
X144616625Y-111300000D01*
X144603044Y-111196838D01*
X144591198Y-111168238D01*
X144566512Y-111108642D01*
X144561711Y-111047645D01*
X144593681Y-110995476D01*
X144650209Y-110972061D01*
X144673933Y-110974240D01*
X144674038Y-110973444D01*
X144815062Y-110992010D01*
X144830800Y-110994082D01*
X144846539Y-110992010D01*
X144856369Y-110990716D01*
X144987562Y-110973444D01*
X145133641Y-110912936D01*
X145259082Y-110816682D01*
X145355336Y-110691241D01*
X145415844Y-110545162D01*
X145436482Y-110388400D01*
X145415844Y-110231638D01*
X145355336Y-110085559D01*
X145296010Y-110008244D01*
X145293977Y-110005594D01*
X145273553Y-109947918D01*
X145290931Y-109889253D01*
X145312252Y-109866785D01*
X145357002Y-109832447D01*
X145362155Y-109828493D01*
X145363081Y-109827286D01*
X145415726Y-109800463D01*
X145476158Y-109810034D01*
X145509756Y-109837979D01*
X145516165Y-109846332D01*
X145516170Y-109846337D01*
X145520118Y-109851482D01*
X145645559Y-109947736D01*
X145791638Y-110008244D01*
X145948400Y-110028882D01*
X146105162Y-110008244D01*
X146251241Y-109947736D01*
X146376682Y-109851482D01*
X146472936Y-109726041D01*
X146483723Y-109700000D01*
X148794318Y-109700000D01*
X148814956Y-109856762D01*
X148875464Y-110002841D01*
X148971718Y-110128282D01*
X149097159Y-110224536D01*
X149243238Y-110285044D01*
X149400000Y-110305682D01*
X149556762Y-110285044D01*
X149702841Y-110224536D01*
X149828282Y-110128282D01*
X149905565Y-110027565D01*
X155248274Y-110027565D01*
X155268912Y-110184327D01*
X155329420Y-110330406D01*
X155425674Y-110455847D01*
X155551115Y-110552101D01*
X155697194Y-110612609D01*
X155853956Y-110633247D01*
X156010718Y-110612609D01*
X156156797Y-110552101D01*
X156282238Y-110455847D01*
X156378492Y-110330406D01*
X156439000Y-110184327D01*
X156459638Y-110027565D01*
X156439000Y-109870803D01*
X156378492Y-109724724D01*
X156282238Y-109599283D01*
X156156797Y-109503029D01*
X156010718Y-109442521D01*
X155853956Y-109421883D01*
X155697194Y-109442521D01*
X155551115Y-109503029D01*
X155425674Y-109599283D01*
X155329420Y-109724724D01*
X155268912Y-109870803D01*
X155248274Y-110027565D01*
X149905565Y-110027565D01*
X149924536Y-110002841D01*
X149985044Y-109856762D01*
X150005682Y-109700000D01*
X149985044Y-109543238D01*
X149924536Y-109397159D01*
X149828282Y-109271718D01*
X149702841Y-109175464D01*
X149556762Y-109114956D01*
X149400000Y-109094318D01*
X149243238Y-109114956D01*
X149097159Y-109175464D01*
X148971718Y-109271718D01*
X148875464Y-109397159D01*
X148814956Y-109543238D01*
X148794318Y-109700000D01*
X146483723Y-109700000D01*
X146533444Y-109579962D01*
X146554082Y-109423200D01*
X146533444Y-109266438D01*
X146472936Y-109120359D01*
X146376682Y-108994918D01*
X146251241Y-108898664D01*
X146105162Y-108838156D01*
X145948400Y-108817518D01*
X145791638Y-108838156D01*
X145645559Y-108898664D01*
X145520118Y-108994918D01*
X145519192Y-108996125D01*
X145466547Y-109022948D01*
X145406115Y-109013377D01*
X145372517Y-108985432D01*
X145366108Y-108977079D01*
X145366103Y-108977074D01*
X145362155Y-108971929D01*
X145236714Y-108875675D01*
X145090635Y-108815167D01*
X144933873Y-108794529D01*
X144777111Y-108815167D01*
X144631032Y-108875675D01*
X144505591Y-108971929D01*
X144409337Y-109097370D01*
X144348829Y-109243449D01*
X144328191Y-109400211D01*
X144348829Y-109556973D01*
X144409337Y-109703052D01*
X144413288Y-109708201D01*
X144470696Y-109783017D01*
X144491120Y-109840693D01*
X144473742Y-109899358D01*
X144452421Y-109921826D01*
X144440296Y-109931130D01*
X144402518Y-109960118D01*
X144306264Y-110085559D01*
X144245756Y-110231638D01*
X144225118Y-110388400D01*
X144245756Y-110545162D01*
X144248240Y-110551159D01*
X144282288Y-110633358D01*
X144287089Y-110694355D01*
X144255119Y-110746524D01*
X144198591Y-110769939D01*
X144174867Y-110767760D01*
X144174762Y-110768556D01*
X144024434Y-110748765D01*
X144018000Y-110747918D01*
X143861238Y-110768556D01*
X143715159Y-110829064D01*
X143589718Y-110925318D01*
X143493464Y-111050759D01*
X143432956Y-111196838D01*
X143412318Y-111353600D01*
X136600500Y-111353600D01*
X136600500Y-107442000D01*
X146004816Y-107442000D01*
X146025454Y-107598762D01*
X146085962Y-107744841D01*
X146182216Y-107870282D01*
X146307657Y-107966536D01*
X146453736Y-108027044D01*
X146610498Y-108047682D01*
X146767260Y-108027044D01*
X146913339Y-107966536D01*
X147038780Y-107870282D01*
X147135034Y-107744841D01*
X147195542Y-107598762D01*
X147216180Y-107442000D01*
X147195542Y-107285238D01*
X147191494Y-107275464D01*
X147157071Y-107192362D01*
X147135034Y-107139159D01*
X147038780Y-107013718D01*
X146913339Y-106917464D01*
X146767260Y-106856956D01*
X146610498Y-106836318D01*
X146453736Y-106856956D01*
X146307657Y-106917464D01*
X146182216Y-107013718D01*
X146085962Y-107139159D01*
X146063925Y-107192362D01*
X146029503Y-107275464D01*
X146025454Y-107285238D01*
X146004816Y-107442000D01*
X136600500Y-107442000D01*
X136600500Y-106600000D01*
X155194318Y-106600000D01*
X155214956Y-106756762D01*
X155275464Y-106902841D01*
X155371718Y-107028282D01*
X155497159Y-107124536D01*
X155516603Y-107132590D01*
X155537869Y-107141399D01*
X155584395Y-107181136D01*
X155598678Y-107240631D01*
X155575263Y-107297159D01*
X155560251Y-107311404D01*
X155481648Y-107371718D01*
X155385394Y-107497159D01*
X155324886Y-107643238D01*
X155304248Y-107800000D01*
X155324886Y-107956762D01*
X155327370Y-107962759D01*
X155329963Y-107969019D01*
X155385394Y-108102841D01*
X155481648Y-108228282D01*
X155607089Y-108324536D01*
X155753168Y-108385044D01*
X155909930Y-108405682D01*
X156066692Y-108385044D01*
X156212771Y-108324536D01*
X156338212Y-108228282D01*
X156434466Y-108102841D01*
X156489897Y-107969019D01*
X156492490Y-107962759D01*
X156494974Y-107956762D01*
X156515612Y-107800000D01*
X156501598Y-107693549D01*
X156512748Y-107633388D01*
X156557131Y-107591271D01*
X156617793Y-107583285D01*
X156637634Y-107589162D01*
X156713638Y-107620644D01*
X156870400Y-107641282D01*
X157027162Y-107620644D01*
X157173241Y-107560136D01*
X157298682Y-107463882D01*
X157394936Y-107338441D01*
X157455444Y-107192362D01*
X157476082Y-107035600D01*
X157455444Y-106878838D01*
X157394936Y-106732759D01*
X157298682Y-106607318D01*
X157173241Y-106511064D01*
X157027162Y-106450556D01*
X156870400Y-106429918D01*
X156713638Y-106450556D01*
X156567559Y-106511064D01*
X156562413Y-106515013D01*
X156562409Y-106515015D01*
X156545940Y-106527653D01*
X156488265Y-106548078D01*
X156429599Y-106530701D01*
X156392351Y-106482160D01*
X156387519Y-106462036D01*
X156385891Y-106449673D01*
X156385044Y-106443238D01*
X156324536Y-106297159D01*
X156228282Y-106171718D01*
X156102841Y-106075464D01*
X155956762Y-106014956D01*
X155800000Y-105994318D01*
X155643238Y-106014956D01*
X155497159Y-106075464D01*
X155371718Y-106171718D01*
X155275464Y-106297159D01*
X155214956Y-106443238D01*
X155194318Y-106600000D01*
X136600500Y-106600000D01*
X136600500Y-105534281D01*
X136603057Y-105511926D01*
X136603141Y-105511565D01*
X136605655Y-105500718D01*
X136605656Y-105500000D01*
X136604413Y-105494553D01*
X136604006Y-105490911D01*
X136604014Y-105468819D01*
X136614282Y-105377683D01*
X136619216Y-105356069D01*
X136656186Y-105250415D01*
X136665804Y-105230442D01*
X136725356Y-105135665D01*
X136739178Y-105118332D01*
X136818332Y-105039178D01*
X136835665Y-105025356D01*
X136930442Y-104965804D01*
X136950415Y-104956186D01*
X137056069Y-104919216D01*
X137077682Y-104914282D01*
X137170999Y-104903768D01*
X137182255Y-104903146D01*
X137188774Y-104903157D01*
X137199641Y-104905656D01*
X137211641Y-104902941D01*
X137233488Y-104900500D01*
X140865719Y-104900500D01*
X140888074Y-104903057D01*
X140899282Y-104905655D01*
X140900000Y-104905656D01*
X140905459Y-104904411D01*
X140909540Y-104903954D01*
X140916254Y-104902900D01*
X140982235Y-104897127D01*
X141074399Y-104889064D01*
X141078574Y-104887945D01*
X141078576Y-104887945D01*
X141174189Y-104862325D01*
X141243498Y-104843754D01*
X141402161Y-104769768D01*
X141545566Y-104669355D01*
X141669355Y-104545566D01*
X141701261Y-104500000D01*
X150794318Y-104500000D01*
X150814956Y-104656762D01*
X150875464Y-104802841D01*
X150971718Y-104928282D01*
X151097159Y-105024536D01*
X151243238Y-105085044D01*
X151400000Y-105105682D01*
X151556762Y-105085044D01*
X151702841Y-105024536D01*
X151828282Y-104928282D01*
X151924536Y-104802841D01*
X151985044Y-104656762D01*
X152005682Y-104500000D01*
X151985044Y-104343238D01*
X151924536Y-104197159D01*
X151828282Y-104071718D01*
X151702841Y-103975464D01*
X151556762Y-103914956D01*
X151400000Y-103894318D01*
X151243238Y-103914956D01*
X151097159Y-103975464D01*
X150971718Y-104071718D01*
X150875464Y-104197159D01*
X150814956Y-104343238D01*
X150794318Y-104500000D01*
X141701261Y-104500000D01*
X141769768Y-104402161D01*
X141843754Y-104243498D01*
X141889064Y-104074399D01*
X141902806Y-103917330D01*
X141903892Y-103910492D01*
X141904388Y-103906185D01*
X141905655Y-103900718D01*
X141905656Y-103900000D01*
X141904360Y-103894318D01*
X141902980Y-103888266D01*
X141900500Y-103866248D01*
X141900500Y-102800000D01*
X146694318Y-102800000D01*
X146714956Y-102956762D01*
X146775464Y-103102841D01*
X146871718Y-103228282D01*
X146997159Y-103324536D01*
X147143238Y-103385044D01*
X147300000Y-103405682D01*
X147456762Y-103385044D01*
X147602841Y-103324536D01*
X147728282Y-103228282D01*
X147824536Y-103102841D01*
X147885044Y-102956762D01*
X147905682Y-102800000D01*
X147885044Y-102643238D01*
X147824536Y-102497159D01*
X147728282Y-102371718D01*
X147602841Y-102275464D01*
X147456762Y-102214956D01*
X147300000Y-102194318D01*
X147143238Y-102214956D01*
X146997159Y-102275464D01*
X146871718Y-102371718D01*
X146775464Y-102497159D01*
X146714956Y-102643238D01*
X146694318Y-102800000D01*
X141900500Y-102800000D01*
X141900500Y-94624058D01*
X141919407Y-94565867D01*
X141929496Y-94554054D01*
X142513032Y-93970518D01*
X142518782Y-93965386D01*
X142528024Y-93960948D01*
X142546244Y-93938165D01*
X142553557Y-93929993D01*
X142557757Y-93925793D01*
X142560712Y-93921092D01*
X142560715Y-93921088D01*
X142567212Y-93911946D01*
X142578195Y-93898213D01*
X142578196Y-93898212D01*
X142585156Y-93889508D01*
X142587497Y-93879325D01*
X142588159Y-93878130D01*
X142588538Y-93876818D01*
X142594098Y-93867972D01*
X142595350Y-93856897D01*
X142595351Y-93856895D01*
X142597326Y-93839426D01*
X142599214Y-93828376D01*
X142599245Y-93828242D01*
X142599246Y-93828238D01*
X142600500Y-93822781D01*
X142600500Y-93816919D01*
X142601127Y-93805798D01*
X142603121Y-93788157D01*
X142604374Y-93777077D01*
X142600948Y-93767267D01*
X142600500Y-93759252D01*
X142600500Y-92834281D01*
X142603057Y-92811926D01*
X142604388Y-92806183D01*
X142605655Y-92800718D01*
X142605656Y-92800000D01*
X142603195Y-92789210D01*
X142601618Y-92780526D01*
X142591657Y-92707228D01*
X142589604Y-92692121D01*
X142546688Y-92592066D01*
X142530058Y-92571303D01*
X142482816Y-92512318D01*
X142482814Y-92512316D01*
X142478629Y-92507091D01*
X142473201Y-92503172D01*
X142473199Y-92503170D01*
X142434495Y-92475226D01*
X142390361Y-92443360D01*
X142384083Y-92441031D01*
X142384081Y-92441030D01*
X142346224Y-92426987D01*
X142288288Y-92405494D01*
X142200696Y-92398022D01*
X142191613Y-92396820D01*
X142180459Y-92394816D01*
X142179742Y-92394851D01*
X142174365Y-92396364D01*
X142168851Y-92397262D01*
X142168783Y-92396847D01*
X142149556Y-92399500D01*
X141989500Y-92399500D01*
X141931309Y-92380593D01*
X141895345Y-92331093D01*
X141890500Y-92300500D01*
X141890500Y-91224058D01*
X141909407Y-91165867D01*
X141919496Y-91154054D01*
X143073027Y-90000522D01*
X143078780Y-89995387D01*
X143088024Y-89990948D01*
X143106248Y-89968160D01*
X143113561Y-89959988D01*
X143117757Y-89955792D01*
X143120713Y-89951089D01*
X143120717Y-89951084D01*
X143127208Y-89941951D01*
X143138194Y-89928214D01*
X143138195Y-89928213D01*
X143145156Y-89919508D01*
X143147498Y-89909323D01*
X143148158Y-89908131D01*
X143148537Y-89906821D01*
X143154099Y-89897972D01*
X143157326Y-89869428D01*
X143159216Y-89858367D01*
X143159245Y-89858240D01*
X143159245Y-89858239D01*
X143160500Y-89852781D01*
X143160500Y-89846920D01*
X143161127Y-89835800D01*
X143163122Y-89818156D01*
X143163122Y-89818154D01*
X143164374Y-89807076D01*
X143160948Y-89797266D01*
X143160500Y-89789251D01*
X143160500Y-85544281D01*
X143163057Y-85521926D01*
X143164388Y-85516183D01*
X143165655Y-85510718D01*
X143165656Y-85510000D01*
X143164413Y-85504553D01*
X143164006Y-85500911D01*
X143164014Y-85478819D01*
X143174282Y-85387683D01*
X143179216Y-85366069D01*
X143216186Y-85260415D01*
X143225804Y-85240442D01*
X143285356Y-85145665D01*
X143299178Y-85128332D01*
X143378332Y-85049178D01*
X143395665Y-85035356D01*
X143490442Y-84975804D01*
X143510415Y-84966186D01*
X143616069Y-84929216D01*
X143637682Y-84924282D01*
X143730999Y-84913768D01*
X143742255Y-84913146D01*
X143748774Y-84913157D01*
X143759641Y-84915656D01*
X143771641Y-84912941D01*
X143793488Y-84910500D01*
X151857878Y-84910500D01*
X151878854Y-84912748D01*
G37*
%TD.AperFunction*%
M02*
