%FSLAX45Y45*%
G04 Gerber Fmt 4.5, Leading zero omitted, Abs format (unit mm)*
G04 Created by KiCad (PCBNEW 6.0.6) date 2022-08-23 18:23:02*
%MOMM*%
%LPD*%
G01*
G04 APERTURE LIST*
%TA.AperFunction,Profile*%
%ADD10C,0.150000*%
%TD*%
%ADD11C,0.200000*%
%ADD12C,0.040000*%
%ADD13C,0.060000*%
%ADD14C,0.085000*%
G04 APERTURE END LIST*
D10*
X13720000Y-10470000D02*
G75*
G03*
X13640000Y-10550000I0J-80000D01*
G01*
X15800000Y-10550000D02*
G75*
G03*
X15720000Y-10470000I-80000J0D01*
G01*
X13640000Y-10550000D02*
X13640000Y-13230000D01*
X13640000Y-13230000D02*
G75*
G03*
X13720000Y-13310000I80000J0D01*
G01*
X15720000Y-13310000D02*
G75*
G03*
X15800000Y-13230000I0J80000D01*
G01*
X15800000Y-13230000D02*
X15800000Y-10550000D01*
X14090000Y-10470000D02*
X13720000Y-10470000D01*
X15720000Y-10470000D02*
X15350000Y-10470000D01*
X14170000Y-9890000D02*
X14170000Y-10390000D01*
X15270000Y-9890000D02*
X15270000Y-10390000D01*
X14170000Y-9450000D02*
X14170000Y-9890000D01*
X15270000Y-9890000D02*
X15270000Y-8550000D01*
X15270000Y-10390000D02*
G75*
G03*
X15350000Y-10470000I80000J0D01*
G01*
X14376000Y-8471000D02*
G75*
G03*
X14296000Y-8551000I0J-80000D01*
G01*
X13720000Y-13310000D02*
X15720000Y-13310000D01*
X14240000Y-9280000D02*
X14240000Y-9380000D01*
X14090000Y-10470000D02*
G75*
G03*
X14170000Y-10390000I0J80000D01*
G01*
X15270000Y-8550000D02*
G75*
G03*
X15189000Y-8471000I-80000J-1000D01*
G01*
X14240000Y-9380000D02*
X14170000Y-9450000D01*
X15189000Y-8471000D02*
X14376000Y-8471000D01*
X14169000Y-9110000D02*
X14169000Y-9260000D01*
X14169000Y-9260000D02*
X14219000Y-9260000D01*
X14296000Y-8983000D02*
X14296000Y-8551000D01*
X14240000Y-9280000D02*
G75*
G03*
X14219001Y-9260025I-20000J0D01*
G01*
X14296000Y-8983000D02*
X14169000Y-9110000D01*
D11*
D12*
X13750000Y-12990000D02*
X13790000Y-13030000D01*
X13790000Y-12990000D02*
X13750000Y-13030000D01*
X13758271Y-11811009D02*
X13798271Y-11851009D01*
X13798271Y-11811009D02*
X13758271Y-11851009D01*
X13784730Y-12680000D02*
X13824730Y-12720000D01*
X13824730Y-12680000D02*
X13784730Y-12720000D01*
X13810000Y-11930000D02*
X13850000Y-11970000D01*
X13850000Y-11930000D02*
X13810000Y-11970000D01*
X13857266Y-11810000D02*
X13897266Y-11850000D01*
X13897266Y-11810000D02*
X13857266Y-11850000D01*
X13970000Y-12170000D02*
X14010000Y-12210000D01*
X14010000Y-12170000D02*
X13970000Y-12210000D01*
X13971853Y-12066416D02*
X14011853Y-12106416D01*
X14011853Y-12066416D02*
X13971853Y-12106416D01*
X13990000Y-13120000D02*
X14030000Y-13160000D01*
X14030000Y-13120000D02*
X13990000Y-13160000D01*
X14045271Y-12000001D02*
X14085271Y-12040001D01*
X14085271Y-12000001D02*
X14045271Y-12040001D01*
X14060000Y-11445010D02*
X14100000Y-11485010D01*
X14100000Y-11445010D02*
X14060000Y-11485010D01*
X14090000Y-12490000D02*
X14130000Y-12530000D01*
X14130000Y-12490000D02*
X14090000Y-12530000D01*
X14092637Y-12305523D02*
X14132637Y-12345523D01*
X14132637Y-12305523D02*
X14092637Y-12345523D01*
X14225000Y-13120000D02*
X14265000Y-13160000D01*
X14265000Y-13120000D02*
X14225000Y-13160000D01*
X14381800Y-11115360D02*
X14421800Y-11155360D01*
X14421800Y-11115360D02*
X14381800Y-11155360D01*
X14397040Y-11587800D02*
X14437040Y-11627800D01*
X14437040Y-11587800D02*
X14397040Y-11627800D01*
X14463080Y-11018840D02*
X14503080Y-11058840D01*
X14503080Y-11018840D02*
X14463080Y-11058840D01*
X14467781Y-11951215D02*
X14507781Y-11991215D01*
X14507781Y-11951215D02*
X14467781Y-11991215D01*
X14473387Y-10920021D02*
X14513387Y-10960021D01*
X14513387Y-10920021D02*
X14473387Y-10960021D01*
X14475136Y-11726000D02*
X14515136Y-11766000D01*
X14515136Y-11726000D02*
X14475136Y-11766000D01*
X14560000Y-11870000D02*
X14600000Y-11910000D01*
X14600000Y-11870000D02*
X14560000Y-11910000D01*
X14574840Y-10922320D02*
X14614840Y-10962320D01*
X14614840Y-10922320D02*
X14574840Y-10962320D01*
X14610006Y-12650000D02*
X14650006Y-12690000D01*
X14650006Y-12650000D02*
X14610006Y-12690000D01*
X14630000Y-11110000D02*
X14670000Y-11150000D01*
X14670000Y-11110000D02*
X14630000Y-11150000D01*
X14641050Y-10724200D02*
X14681050Y-10764200D01*
X14681050Y-10724200D02*
X14641050Y-10764200D01*
X14660000Y-11310000D02*
X14700000Y-11350000D01*
X14700000Y-11310000D02*
X14660000Y-11350000D01*
X14702552Y-11570147D02*
X14742552Y-11610147D01*
X14742552Y-11570147D02*
X14702552Y-11610147D01*
X14710000Y-10260000D02*
X14750000Y-10300000D01*
X14750000Y-10260000D02*
X14710000Y-10300000D01*
X14720002Y-12650000D02*
X14760002Y-12690000D01*
X14760002Y-12650000D02*
X14720002Y-12690000D01*
X14810000Y-11384000D02*
X14850000Y-11424000D01*
X14850000Y-11384000D02*
X14810000Y-11424000D01*
X14900000Y-11112500D02*
X14940000Y-11152500D01*
X14940000Y-11112500D02*
X14900000Y-11152500D01*
X14920000Y-10850000D02*
X14960000Y-10890000D01*
X14960000Y-10850000D02*
X14920000Y-10890000D01*
X14920000Y-10950000D02*
X14960000Y-10990000D01*
X14960000Y-10950000D02*
X14920000Y-10990000D01*
X14930000Y-8920000D02*
X14970000Y-8960000D01*
X14970000Y-8920000D02*
X14930000Y-8960000D01*
X15000000Y-11450000D02*
X15040000Y-11490000D01*
X15040000Y-11450000D02*
X15000000Y-11490000D01*
X15085701Y-12329000D02*
X15125701Y-12369000D01*
X15125701Y-12329000D02*
X15085701Y-12369000D01*
X15120000Y-10430000D02*
X15160000Y-10470000D01*
X15160000Y-10430000D02*
X15120000Y-10470000D01*
X15191405Y-12371175D02*
X15231405Y-12411175D01*
X15231405Y-12371175D02*
X15191405Y-12411175D01*
X15300000Y-12580000D02*
X15340000Y-12620000D01*
X15340000Y-12580000D02*
X15300000Y-12620000D01*
X15380000Y-11340000D02*
X15420000Y-11380000D01*
X15420000Y-11340000D02*
X15380000Y-11380000D01*
X15380000Y-12340000D02*
X15420000Y-12380000D01*
X15420000Y-12340000D02*
X15380000Y-12380000D01*
X15400000Y-12242500D02*
X15440000Y-12282500D01*
X15440000Y-12242500D02*
X15400000Y-12282500D01*
X15460000Y-10850000D02*
X15500000Y-10890000D01*
X15500000Y-10850000D02*
X15460000Y-10890000D01*
X15480000Y-11380000D02*
X15520000Y-11420000D01*
X15520000Y-11380000D02*
X15480000Y-11420000D01*
X15531011Y-12478469D02*
X15571011Y-12518469D01*
X15571011Y-12478469D02*
X15531011Y-12518469D01*
X15560000Y-10640000D02*
X15600000Y-10680000D01*
X15600000Y-10640000D02*
X15560000Y-10680000D01*
X15560000Y-11150000D02*
X15600000Y-11190000D01*
X15600000Y-11150000D02*
X15560000Y-11190000D01*
X15560000Y-13180000D02*
X15600000Y-13220000D01*
X15600000Y-13180000D02*
X15560000Y-13220000D01*
X15565396Y-10982757D02*
X15605396Y-11022757D01*
X15605396Y-10982757D02*
X15565396Y-11022757D01*
X15570993Y-10760000D02*
X15610993Y-10800000D01*
X15610993Y-10760000D02*
X15570993Y-10800000D01*
X15622762Y-12200361D02*
X15662762Y-12240361D01*
X15662762Y-12200361D02*
X15622762Y-12240361D01*
X15644004Y-13120000D02*
X15684004Y-13160000D01*
X15684004Y-13120000D02*
X15644004Y-13160000D01*
X15644497Y-11960000D02*
X15684497Y-12000000D01*
X15684497Y-11960000D02*
X15644497Y-12000000D01*
X15646720Y-12476800D02*
X15686720Y-12516800D01*
X15686720Y-12476800D02*
X15646720Y-12516800D01*
X15660000Y-11150000D02*
X15700000Y-11190000D01*
X15700000Y-11150000D02*
X15660000Y-11190000D01*
X15660000Y-11830000D02*
X15700000Y-11870000D01*
X15700000Y-11830000D02*
X15660000Y-11870000D01*
X15667040Y-10683560D02*
X15707040Y-10723560D01*
X15707040Y-10683560D02*
X15667040Y-10723560D01*
X13741080Y-13223240D02*
G75*
G03*
X13741080Y-13223240I-20000J0D01*
G01*
X13760000Y-10570000D02*
G75*
G03*
X13760000Y-10570000I-20000J0D01*
G01*
X13760000Y-10670000D02*
G75*
G03*
X13760000Y-10670000I-20000J0D01*
G01*
X13760000Y-10770000D02*
G75*
G03*
X13760000Y-10770000I-20000J0D01*
G01*
X13792000Y-11562000D02*
G75*
G03*
X13792000Y-11562000I-20000J0D01*
G01*
X14340000Y-12840000D02*
G75*
G03*
X14340000Y-12840000I-20000J0D01*
G01*
X14350000Y-12350000D02*
G75*
G03*
X14350000Y-12350000I-20000J0D01*
G01*
X14350000Y-12440000D02*
G75*
G03*
X14350000Y-12440000I-20000J0D01*
G01*
X14440000Y-10530000D02*
G75*
G03*
X14440000Y-10530000I-20000J0D01*
G01*
X14530000Y-11240000D02*
G75*
G03*
X14530000Y-11240000I-20000J0D01*
G01*
X14879000Y-12796520D02*
G75*
G03*
X14879000Y-12796520I-20000J0D01*
G01*
X14900000Y-12040000D02*
G75*
G03*
X14900000Y-12040000I-20000J0D01*
G01*
X14960000Y-12110000D02*
G75*
G03*
X14960000Y-12110000I-20000J0D01*
G01*
X15150000Y-12670000D02*
G75*
G03*
X15150000Y-12670000I-20000J0D01*
G01*
X15219360Y-11780520D02*
G75*
G03*
X15219360Y-11780520I-20000J0D01*
G01*
X15220000Y-11940000D02*
G75*
G03*
X15220000Y-11940000I-20000J0D01*
G01*
X15300000Y-12040000D02*
G75*
G03*
X15300000Y-12040000I-20000J0D01*
G01*
X15360000Y-13160000D02*
G75*
G03*
X15360000Y-13160000I-20000J0D01*
G01*
X15440000Y-12620000D02*
G75*
G03*
X15440000Y-12620000I-20000J0D01*
G01*
X15440000Y-12880000D02*
G75*
G03*
X15440000Y-12880000I-20000J0D01*
G01*
D13*
X14370000Y-13134110D02*
X14370000Y-13194110D01*
X14340000Y-13164110D02*
X14400000Y-13164110D01*
D11*
X14400000Y-13199110D02*
X14400000Y-13129110D01*
X14340000Y-13199110D02*
X14340000Y-13129110D01*
X14400000Y-13129110D02*
G75*
G03*
X14340000Y-13129110I-30000J0D01*
G01*
X14340000Y-13199110D02*
G75*
G03*
X14400000Y-13199110I30000J0D01*
G01*
D13*
X15070000Y-13134110D02*
X15070000Y-13194110D01*
X15040000Y-13164110D02*
X15100000Y-13164110D01*
D11*
X15040000Y-13129110D02*
X15040000Y-13199110D01*
X15100000Y-13129110D02*
X15100000Y-13199110D01*
X15040000Y-13199110D02*
G75*
G03*
X15100000Y-13199110I30000J0D01*
G01*
X15100000Y-13129110D02*
G75*
G03*
X15040000Y-13129110I-30000J0D01*
G01*
D14*
X14500052Y-12924162D02*
X14500052Y-12864058D01*
X14439948Y-12864058D01*
X14439948Y-12924162D01*
X14500052Y-12924162D01*
X15000052Y-12924162D02*
X15000052Y-12864058D01*
X14939948Y-12864058D01*
X14939948Y-12924162D01*
X15000052Y-12924162D01*
D11*
X13890119Y-13627976D02*
X13890119Y-13427976D01*
X13937738Y-13427976D01*
X13966309Y-13437500D01*
X13985357Y-13456548D01*
X13994881Y-13475595D01*
X14004405Y-13513690D01*
X14004405Y-13542262D01*
X13994881Y-13580357D01*
X13985357Y-13599405D01*
X13966309Y-13618452D01*
X13937738Y-13627976D01*
X13890119Y-13627976D01*
X14090119Y-13627976D02*
X14090119Y-13494643D01*
X14090119Y-13532738D02*
X14099643Y-13513690D01*
X14109167Y-13504167D01*
X14128214Y-13494643D01*
X14147262Y-13494643D01*
X14213928Y-13627976D02*
X14213928Y-13494643D01*
X14213928Y-13427976D02*
X14204405Y-13437500D01*
X14213928Y-13447024D01*
X14223452Y-13437500D01*
X14213928Y-13427976D01*
X14213928Y-13447024D01*
X14337738Y-13627976D02*
X14318690Y-13618452D01*
X14309167Y-13599405D01*
X14309167Y-13427976D01*
X14442500Y-13627976D02*
X14423452Y-13618452D01*
X14413928Y-13599405D01*
X14413928Y-13427976D01*
X14671071Y-13627976D02*
X14671071Y-13427976D01*
X14737738Y-13570833D01*
X14804405Y-13427976D01*
X14804405Y-13627976D01*
X14985357Y-13627976D02*
X14985357Y-13523214D01*
X14975833Y-13504167D01*
X14956786Y-13494643D01*
X14918690Y-13494643D01*
X14899643Y-13504167D01*
X14985357Y-13618452D02*
X14966309Y-13627976D01*
X14918690Y-13627976D01*
X14899643Y-13618452D01*
X14890119Y-13599405D01*
X14890119Y-13580357D01*
X14899643Y-13561309D01*
X14918690Y-13551786D01*
X14966309Y-13551786D01*
X14985357Y-13542262D01*
X15080595Y-13494643D02*
X15080595Y-13694643D01*
X15080595Y-13504167D02*
X15099643Y-13494643D01*
X15137738Y-13494643D01*
X15156786Y-13504167D01*
X15166309Y-13513690D01*
X15175833Y-13532738D01*
X15175833Y-13589881D01*
X15166309Y-13608928D01*
X15156786Y-13618452D01*
X15137738Y-13627976D01*
X15099643Y-13627976D01*
X15080595Y-13618452D01*
X15261548Y-13608928D02*
X15271071Y-13618452D01*
X15261548Y-13627976D01*
X15252024Y-13618452D01*
X15261548Y-13608928D01*
X15261548Y-13627976D01*
X15261548Y-13504167D02*
X15271071Y-13513690D01*
X15261548Y-13523214D01*
X15252024Y-13513690D01*
X15261548Y-13504167D01*
X15261548Y-13523214D01*
D12*
X13592500Y-13937500D02*
X13632500Y-13977500D01*
X13632500Y-13937500D02*
X13592500Y-13977500D01*
D11*
X13928214Y-13847976D02*
X13947262Y-13847976D01*
X13966309Y-13857500D01*
X13975833Y-13867024D01*
X13985357Y-13886071D01*
X13994881Y-13924167D01*
X13994881Y-13971786D01*
X13985357Y-14009881D01*
X13975833Y-14028928D01*
X13966309Y-14038452D01*
X13947262Y-14047976D01*
X13928214Y-14047976D01*
X13909167Y-14038452D01*
X13899643Y-14028928D01*
X13890119Y-14009881D01*
X13880595Y-13971786D01*
X13880595Y-13924167D01*
X13890119Y-13886071D01*
X13899643Y-13867024D01*
X13909167Y-13857500D01*
X13928214Y-13847976D01*
X14080595Y-14028928D02*
X14090119Y-14038452D01*
X14080595Y-14047976D01*
X14071071Y-14038452D01*
X14080595Y-14028928D01*
X14080595Y-14047976D01*
X14261548Y-13914643D02*
X14261548Y-14047976D01*
X14213928Y-13838452D02*
X14166309Y-13981309D01*
X14290119Y-13981309D01*
X14404405Y-13847976D02*
X14423452Y-13847976D01*
X14442500Y-13857500D01*
X14452024Y-13867024D01*
X14461548Y-13886071D01*
X14471071Y-13924167D01*
X14471071Y-13971786D01*
X14461548Y-14009881D01*
X14452024Y-14028928D01*
X14442500Y-14038452D01*
X14423452Y-14047976D01*
X14404405Y-14047976D01*
X14385357Y-14038452D01*
X14375833Y-14028928D01*
X14366309Y-14009881D01*
X14356786Y-13971786D01*
X14356786Y-13924167D01*
X14366309Y-13886071D01*
X14375833Y-13867024D01*
X14385357Y-13857500D01*
X14404405Y-13847976D01*
X14594881Y-13847976D02*
X14613928Y-13847976D01*
X14632976Y-13857500D01*
X14642500Y-13867024D01*
X14652024Y-13886071D01*
X14661548Y-13924167D01*
X14661548Y-13971786D01*
X14652024Y-14009881D01*
X14642500Y-14028928D01*
X14632976Y-14038452D01*
X14613928Y-14047976D01*
X14594881Y-14047976D01*
X14575833Y-14038452D01*
X14566309Y-14028928D01*
X14556786Y-14009881D01*
X14547262Y-13971786D01*
X14547262Y-13924167D01*
X14556786Y-13886071D01*
X14566309Y-13867024D01*
X14575833Y-13857500D01*
X14594881Y-13847976D01*
X14747262Y-14047976D02*
X14747262Y-13914643D01*
X14747262Y-13933690D02*
X14756786Y-13924167D01*
X14775833Y-13914643D01*
X14804405Y-13914643D01*
X14823452Y-13924167D01*
X14832976Y-13943214D01*
X14832976Y-14047976D01*
X14832976Y-13943214D02*
X14842500Y-13924167D01*
X14861548Y-13914643D01*
X14890119Y-13914643D01*
X14909167Y-13924167D01*
X14918690Y-13943214D01*
X14918690Y-14047976D01*
X15013928Y-14047976D02*
X15013928Y-13914643D01*
X15013928Y-13933690D02*
X15023452Y-13924167D01*
X15042500Y-13914643D01*
X15071071Y-13914643D01*
X15090119Y-13924167D01*
X15099643Y-13943214D01*
X15099643Y-14047976D01*
X15099643Y-13943214D02*
X15109167Y-13924167D01*
X15128214Y-13914643D01*
X15156786Y-13914643D01*
X15175833Y-13924167D01*
X15185357Y-13943214D01*
X15185357Y-14047976D01*
X15575833Y-13838452D02*
X15404405Y-14095595D01*
X15832976Y-13847976D02*
X15852024Y-13847976D01*
X15871071Y-13857500D01*
X15880595Y-13867024D01*
X15890119Y-13886071D01*
X15899643Y-13924167D01*
X15899643Y-13971786D01*
X15890119Y-14009881D01*
X15880595Y-14028928D01*
X15871071Y-14038452D01*
X15852024Y-14047976D01*
X15832976Y-14047976D01*
X15813928Y-14038452D01*
X15804405Y-14028928D01*
X15794881Y-14009881D01*
X15785357Y-13971786D01*
X15785357Y-13924167D01*
X15794881Y-13886071D01*
X15804405Y-13867024D01*
X15813928Y-13857500D01*
X15832976Y-13847976D01*
X15985357Y-14028928D02*
X15994881Y-14038452D01*
X15985357Y-14047976D01*
X15975833Y-14038452D01*
X15985357Y-14028928D01*
X15985357Y-14047976D01*
X16118690Y-13847976D02*
X16137738Y-13847976D01*
X16156786Y-13857500D01*
X16166309Y-13867024D01*
X16175833Y-13886071D01*
X16185357Y-13924167D01*
X16185357Y-13971786D01*
X16175833Y-14009881D01*
X16166309Y-14028928D01*
X16156786Y-14038452D01*
X16137738Y-14047976D01*
X16118690Y-14047976D01*
X16099643Y-14038452D01*
X16090119Y-14028928D01*
X16080595Y-14009881D01*
X16071071Y-13971786D01*
X16071071Y-13924167D01*
X16080595Y-13886071D01*
X16090119Y-13867024D01*
X16099643Y-13857500D01*
X16118690Y-13847976D01*
X16375833Y-14047976D02*
X16261548Y-14047976D01*
X16318690Y-14047976D02*
X16318690Y-13847976D01*
X16299643Y-13876548D01*
X16280595Y-13895595D01*
X16261548Y-13905119D01*
X16556786Y-13847976D02*
X16461548Y-13847976D01*
X16452024Y-13943214D01*
X16461548Y-13933690D01*
X16480595Y-13924167D01*
X16528214Y-13924167D01*
X16547262Y-13933690D01*
X16556786Y-13943214D01*
X16566309Y-13962262D01*
X16566309Y-14009881D01*
X16556786Y-14028928D01*
X16547262Y-14038452D01*
X16528214Y-14047976D01*
X16480595Y-14047976D01*
X16461548Y-14038452D01*
X16452024Y-14028928D01*
X16632976Y-13847976D02*
X16766309Y-13847976D01*
X16680595Y-14047976D01*
X16832976Y-13847976D02*
X16832976Y-13886071D01*
X16909167Y-13847976D02*
X16909167Y-13886071D01*
X17204405Y-14124167D02*
X17194881Y-14114643D01*
X17175833Y-14086071D01*
X17166310Y-14067024D01*
X17156786Y-14038452D01*
X17147262Y-13990833D01*
X17147262Y-13952738D01*
X17156786Y-13905119D01*
X17166310Y-13876548D01*
X17175833Y-13857500D01*
X17194881Y-13828928D01*
X17204405Y-13819405D01*
X17375833Y-13847976D02*
X17280595Y-13847976D01*
X17271071Y-13943214D01*
X17280595Y-13933690D01*
X17299643Y-13924167D01*
X17347262Y-13924167D01*
X17366310Y-13933690D01*
X17375833Y-13943214D01*
X17385357Y-13962262D01*
X17385357Y-14009881D01*
X17375833Y-14028928D01*
X17366310Y-14038452D01*
X17347262Y-14047976D01*
X17299643Y-14047976D01*
X17280595Y-14038452D01*
X17271071Y-14028928D01*
X17556786Y-13847976D02*
X17518690Y-13847976D01*
X17499643Y-13857500D01*
X17490119Y-13867024D01*
X17471071Y-13895595D01*
X17461548Y-13933690D01*
X17461548Y-14009881D01*
X17471071Y-14028928D01*
X17480595Y-14038452D01*
X17499643Y-14047976D01*
X17537738Y-14047976D01*
X17556786Y-14038452D01*
X17566310Y-14028928D01*
X17575833Y-14009881D01*
X17575833Y-13962262D01*
X17566310Y-13943214D01*
X17556786Y-13933690D01*
X17537738Y-13924167D01*
X17499643Y-13924167D01*
X17480595Y-13933690D01*
X17471071Y-13943214D01*
X17461548Y-13962262D01*
X17813929Y-14047976D02*
X17813929Y-13847976D01*
X17899643Y-14047976D02*
X17899643Y-13943214D01*
X17890119Y-13924167D01*
X17871071Y-13914643D01*
X17842500Y-13914643D01*
X17823452Y-13924167D01*
X17813929Y-13933690D01*
X18023452Y-14047976D02*
X18004405Y-14038452D01*
X17994881Y-14028928D01*
X17985357Y-14009881D01*
X17985357Y-13952738D01*
X17994881Y-13933690D01*
X18004405Y-13924167D01*
X18023452Y-13914643D01*
X18052024Y-13914643D01*
X18071071Y-13924167D01*
X18080595Y-13933690D01*
X18090119Y-13952738D01*
X18090119Y-14009881D01*
X18080595Y-14028928D01*
X18071071Y-14038452D01*
X18052024Y-14047976D01*
X18023452Y-14047976D01*
X18204405Y-14047976D02*
X18185357Y-14038452D01*
X18175833Y-14019405D01*
X18175833Y-13847976D01*
X18356786Y-14038452D02*
X18337738Y-14047976D01*
X18299643Y-14047976D01*
X18280595Y-14038452D01*
X18271071Y-14019405D01*
X18271071Y-13943214D01*
X18280595Y-13924167D01*
X18299643Y-13914643D01*
X18337738Y-13914643D01*
X18356786Y-13924167D01*
X18366310Y-13943214D01*
X18366310Y-13962262D01*
X18271071Y-13981309D01*
X18442500Y-14038452D02*
X18461548Y-14047976D01*
X18499643Y-14047976D01*
X18518690Y-14038452D01*
X18528214Y-14019405D01*
X18528214Y-14009881D01*
X18518690Y-13990833D01*
X18499643Y-13981309D01*
X18471071Y-13981309D01*
X18452024Y-13971786D01*
X18442500Y-13952738D01*
X18442500Y-13943214D01*
X18452024Y-13924167D01*
X18471071Y-13914643D01*
X18499643Y-13914643D01*
X18518690Y-13924167D01*
X18594881Y-14124167D02*
X18604405Y-14114643D01*
X18623452Y-14086071D01*
X18632976Y-14067024D01*
X18642500Y-14038452D01*
X18652024Y-13990833D01*
X18652024Y-13952738D01*
X18642500Y-13905119D01*
X18632976Y-13876548D01*
X18623452Y-13857500D01*
X18604405Y-13828928D01*
X18594881Y-13819405D01*
D12*
X13632500Y-14221500D02*
G75*
G03*
X13632500Y-14221500I-20000J0D01*
G01*
D11*
X13928214Y-14111976D02*
X13947262Y-14111976D01*
X13966309Y-14121500D01*
X13975833Y-14131024D01*
X13985357Y-14150071D01*
X13994881Y-14188167D01*
X13994881Y-14235786D01*
X13985357Y-14273881D01*
X13975833Y-14292928D01*
X13966309Y-14302452D01*
X13947262Y-14311976D01*
X13928214Y-14311976D01*
X13909167Y-14302452D01*
X13899643Y-14292928D01*
X13890119Y-14273881D01*
X13880595Y-14235786D01*
X13880595Y-14188167D01*
X13890119Y-14150071D01*
X13899643Y-14131024D01*
X13909167Y-14121500D01*
X13928214Y-14111976D01*
X14080595Y-14292928D02*
X14090119Y-14302452D01*
X14080595Y-14311976D01*
X14071071Y-14302452D01*
X14080595Y-14292928D01*
X14080595Y-14311976D01*
X14261548Y-14178643D02*
X14261548Y-14311976D01*
X14213928Y-14102452D02*
X14166309Y-14245309D01*
X14290119Y-14245309D01*
X14404405Y-14111976D02*
X14423452Y-14111976D01*
X14442500Y-14121500D01*
X14452024Y-14131024D01*
X14461548Y-14150071D01*
X14471071Y-14188167D01*
X14471071Y-14235786D01*
X14461548Y-14273881D01*
X14452024Y-14292928D01*
X14442500Y-14302452D01*
X14423452Y-14311976D01*
X14404405Y-14311976D01*
X14385357Y-14302452D01*
X14375833Y-14292928D01*
X14366309Y-14273881D01*
X14356786Y-14235786D01*
X14356786Y-14188167D01*
X14366309Y-14150071D01*
X14375833Y-14131024D01*
X14385357Y-14121500D01*
X14404405Y-14111976D01*
X14594881Y-14111976D02*
X14613928Y-14111976D01*
X14632976Y-14121500D01*
X14642500Y-14131024D01*
X14652024Y-14150071D01*
X14661548Y-14188167D01*
X14661548Y-14235786D01*
X14652024Y-14273881D01*
X14642500Y-14292928D01*
X14632976Y-14302452D01*
X14613928Y-14311976D01*
X14594881Y-14311976D01*
X14575833Y-14302452D01*
X14566309Y-14292928D01*
X14556786Y-14273881D01*
X14547262Y-14235786D01*
X14547262Y-14188167D01*
X14556786Y-14150071D01*
X14566309Y-14131024D01*
X14575833Y-14121500D01*
X14594881Y-14111976D01*
X14747262Y-14311976D02*
X14747262Y-14178643D01*
X14747262Y-14197690D02*
X14756786Y-14188167D01*
X14775833Y-14178643D01*
X14804405Y-14178643D01*
X14823452Y-14188167D01*
X14832976Y-14207214D01*
X14832976Y-14311976D01*
X14832976Y-14207214D02*
X14842500Y-14188167D01*
X14861548Y-14178643D01*
X14890119Y-14178643D01*
X14909167Y-14188167D01*
X14918690Y-14207214D01*
X14918690Y-14311976D01*
X15013928Y-14311976D02*
X15013928Y-14178643D01*
X15013928Y-14197690D02*
X15023452Y-14188167D01*
X15042500Y-14178643D01*
X15071071Y-14178643D01*
X15090119Y-14188167D01*
X15099643Y-14207214D01*
X15099643Y-14311976D01*
X15099643Y-14207214D02*
X15109167Y-14188167D01*
X15128214Y-14178643D01*
X15156786Y-14178643D01*
X15175833Y-14188167D01*
X15185357Y-14207214D01*
X15185357Y-14311976D01*
X15575833Y-14102452D02*
X15404405Y-14359595D01*
X15832976Y-14111976D02*
X15852024Y-14111976D01*
X15871071Y-14121500D01*
X15880595Y-14131024D01*
X15890119Y-14150071D01*
X15899643Y-14188167D01*
X15899643Y-14235786D01*
X15890119Y-14273881D01*
X15880595Y-14292928D01*
X15871071Y-14302452D01*
X15852024Y-14311976D01*
X15832976Y-14311976D01*
X15813928Y-14302452D01*
X15804405Y-14292928D01*
X15794881Y-14273881D01*
X15785357Y-14235786D01*
X15785357Y-14188167D01*
X15794881Y-14150071D01*
X15804405Y-14131024D01*
X15813928Y-14121500D01*
X15832976Y-14111976D01*
X15985357Y-14292928D02*
X15994881Y-14302452D01*
X15985357Y-14311976D01*
X15975833Y-14302452D01*
X15985357Y-14292928D01*
X15985357Y-14311976D01*
X16118690Y-14111976D02*
X16137738Y-14111976D01*
X16156786Y-14121500D01*
X16166309Y-14131024D01*
X16175833Y-14150071D01*
X16185357Y-14188167D01*
X16185357Y-14235786D01*
X16175833Y-14273881D01*
X16166309Y-14292928D01*
X16156786Y-14302452D01*
X16137738Y-14311976D01*
X16118690Y-14311976D01*
X16099643Y-14302452D01*
X16090119Y-14292928D01*
X16080595Y-14273881D01*
X16071071Y-14235786D01*
X16071071Y-14188167D01*
X16080595Y-14150071D01*
X16090119Y-14131024D01*
X16099643Y-14121500D01*
X16118690Y-14111976D01*
X16375833Y-14311976D02*
X16261548Y-14311976D01*
X16318690Y-14311976D02*
X16318690Y-14111976D01*
X16299643Y-14140548D01*
X16280595Y-14159595D01*
X16261548Y-14169119D01*
X16556786Y-14111976D02*
X16461548Y-14111976D01*
X16452024Y-14207214D01*
X16461548Y-14197690D01*
X16480595Y-14188167D01*
X16528214Y-14188167D01*
X16547262Y-14197690D01*
X16556786Y-14207214D01*
X16566309Y-14226262D01*
X16566309Y-14273881D01*
X16556786Y-14292928D01*
X16547262Y-14302452D01*
X16528214Y-14311976D01*
X16480595Y-14311976D01*
X16461548Y-14302452D01*
X16452024Y-14292928D01*
X16632976Y-14111976D02*
X16766309Y-14111976D01*
X16680595Y-14311976D01*
X16832976Y-14111976D02*
X16832976Y-14150071D01*
X16909167Y-14111976D02*
X16909167Y-14150071D01*
X17204405Y-14388167D02*
X17194881Y-14378643D01*
X17175833Y-14350071D01*
X17166310Y-14331024D01*
X17156786Y-14302452D01*
X17147262Y-14254833D01*
X17147262Y-14216738D01*
X17156786Y-14169119D01*
X17166310Y-14140548D01*
X17175833Y-14121500D01*
X17194881Y-14092928D01*
X17204405Y-14083405D01*
X17271071Y-14131024D02*
X17280595Y-14121500D01*
X17299643Y-14111976D01*
X17347262Y-14111976D01*
X17366310Y-14121500D01*
X17375833Y-14131024D01*
X17385357Y-14150071D01*
X17385357Y-14169119D01*
X17375833Y-14197690D01*
X17261548Y-14311976D01*
X17385357Y-14311976D01*
X17509167Y-14111976D02*
X17528214Y-14111976D01*
X17547262Y-14121500D01*
X17556786Y-14131024D01*
X17566310Y-14150071D01*
X17575833Y-14188167D01*
X17575833Y-14235786D01*
X17566310Y-14273881D01*
X17556786Y-14292928D01*
X17547262Y-14302452D01*
X17528214Y-14311976D01*
X17509167Y-14311976D01*
X17490119Y-14302452D01*
X17480595Y-14292928D01*
X17471071Y-14273881D01*
X17461548Y-14235786D01*
X17461548Y-14188167D01*
X17471071Y-14150071D01*
X17480595Y-14131024D01*
X17490119Y-14121500D01*
X17509167Y-14111976D01*
X17813929Y-14311976D02*
X17813929Y-14111976D01*
X17899643Y-14311976D02*
X17899643Y-14207214D01*
X17890119Y-14188167D01*
X17871071Y-14178643D01*
X17842500Y-14178643D01*
X17823452Y-14188167D01*
X17813929Y-14197690D01*
X18023452Y-14311976D02*
X18004405Y-14302452D01*
X17994881Y-14292928D01*
X17985357Y-14273881D01*
X17985357Y-14216738D01*
X17994881Y-14197690D01*
X18004405Y-14188167D01*
X18023452Y-14178643D01*
X18052024Y-14178643D01*
X18071071Y-14188167D01*
X18080595Y-14197690D01*
X18090119Y-14216738D01*
X18090119Y-14273881D01*
X18080595Y-14292928D01*
X18071071Y-14302452D01*
X18052024Y-14311976D01*
X18023452Y-14311976D01*
X18204405Y-14311976D02*
X18185357Y-14302452D01*
X18175833Y-14283405D01*
X18175833Y-14111976D01*
X18356786Y-14302452D02*
X18337738Y-14311976D01*
X18299643Y-14311976D01*
X18280595Y-14302452D01*
X18271071Y-14283405D01*
X18271071Y-14207214D01*
X18280595Y-14188167D01*
X18299643Y-14178643D01*
X18337738Y-14178643D01*
X18356786Y-14188167D01*
X18366310Y-14207214D01*
X18366310Y-14226262D01*
X18271071Y-14245309D01*
X18442500Y-14302452D02*
X18461548Y-14311976D01*
X18499643Y-14311976D01*
X18518690Y-14302452D01*
X18528214Y-14283405D01*
X18528214Y-14273881D01*
X18518690Y-14254833D01*
X18499643Y-14245309D01*
X18471071Y-14245309D01*
X18452024Y-14235786D01*
X18442500Y-14216738D01*
X18442500Y-14207214D01*
X18452024Y-14188167D01*
X18471071Y-14178643D01*
X18499643Y-14178643D01*
X18518690Y-14188167D01*
X18594881Y-14388167D02*
X18604405Y-14378643D01*
X18623452Y-14350071D01*
X18632976Y-14331024D01*
X18642500Y-14302452D01*
X18652024Y-14254833D01*
X18652024Y-14216738D01*
X18642500Y-14169119D01*
X18632976Y-14140548D01*
X18623452Y-14121500D01*
X18604405Y-14092928D01*
X18594881Y-14083405D01*
D13*
X13602500Y-14455500D02*
X13602500Y-14515500D01*
X13572500Y-14485500D02*
X13632500Y-14485500D01*
D11*
X13928214Y-14375976D02*
X13947262Y-14375976D01*
X13966309Y-14385500D01*
X13975833Y-14395024D01*
X13985357Y-14414071D01*
X13994881Y-14452167D01*
X13994881Y-14499786D01*
X13985357Y-14537881D01*
X13975833Y-14556928D01*
X13966309Y-14566452D01*
X13947262Y-14575976D01*
X13928214Y-14575976D01*
X13909167Y-14566452D01*
X13899643Y-14556928D01*
X13890119Y-14537881D01*
X13880595Y-14499786D01*
X13880595Y-14452167D01*
X13890119Y-14414071D01*
X13899643Y-14395024D01*
X13909167Y-14385500D01*
X13928214Y-14375976D01*
X14080595Y-14556928D02*
X14090119Y-14566452D01*
X14080595Y-14575976D01*
X14071071Y-14566452D01*
X14080595Y-14556928D01*
X14080595Y-14575976D01*
X14261548Y-14375976D02*
X14223452Y-14375976D01*
X14204405Y-14385500D01*
X14194881Y-14395024D01*
X14175833Y-14423595D01*
X14166309Y-14461690D01*
X14166309Y-14537881D01*
X14175833Y-14556928D01*
X14185357Y-14566452D01*
X14204405Y-14575976D01*
X14242500Y-14575976D01*
X14261548Y-14566452D01*
X14271071Y-14556928D01*
X14280595Y-14537881D01*
X14280595Y-14490262D01*
X14271071Y-14471214D01*
X14261548Y-14461690D01*
X14242500Y-14452167D01*
X14204405Y-14452167D01*
X14185357Y-14461690D01*
X14175833Y-14471214D01*
X14166309Y-14490262D01*
X14404405Y-14375976D02*
X14423452Y-14375976D01*
X14442500Y-14385500D01*
X14452024Y-14395024D01*
X14461548Y-14414071D01*
X14471071Y-14452167D01*
X14471071Y-14499786D01*
X14461548Y-14537881D01*
X14452024Y-14556928D01*
X14442500Y-14566452D01*
X14423452Y-14575976D01*
X14404405Y-14575976D01*
X14385357Y-14566452D01*
X14375833Y-14556928D01*
X14366309Y-14537881D01*
X14356786Y-14499786D01*
X14356786Y-14452167D01*
X14366309Y-14414071D01*
X14375833Y-14395024D01*
X14385357Y-14385500D01*
X14404405Y-14375976D01*
X14594881Y-14375976D02*
X14613928Y-14375976D01*
X14632976Y-14385500D01*
X14642500Y-14395024D01*
X14652024Y-14414071D01*
X14661548Y-14452167D01*
X14661548Y-14499786D01*
X14652024Y-14537881D01*
X14642500Y-14556928D01*
X14632976Y-14566452D01*
X14613928Y-14575976D01*
X14594881Y-14575976D01*
X14575833Y-14566452D01*
X14566309Y-14556928D01*
X14556786Y-14537881D01*
X14547262Y-14499786D01*
X14547262Y-14452167D01*
X14556786Y-14414071D01*
X14566309Y-14395024D01*
X14575833Y-14385500D01*
X14594881Y-14375976D01*
X14747262Y-14575976D02*
X14747262Y-14442643D01*
X14747262Y-14461690D02*
X14756786Y-14452167D01*
X14775833Y-14442643D01*
X14804405Y-14442643D01*
X14823452Y-14452167D01*
X14832976Y-14471214D01*
X14832976Y-14575976D01*
X14832976Y-14471214D02*
X14842500Y-14452167D01*
X14861548Y-14442643D01*
X14890119Y-14442643D01*
X14909167Y-14452167D01*
X14918690Y-14471214D01*
X14918690Y-14575976D01*
X15013928Y-14575976D02*
X15013928Y-14442643D01*
X15013928Y-14461690D02*
X15023452Y-14452167D01*
X15042500Y-14442643D01*
X15071071Y-14442643D01*
X15090119Y-14452167D01*
X15099643Y-14471214D01*
X15099643Y-14575976D01*
X15099643Y-14471214D02*
X15109167Y-14452167D01*
X15128214Y-14442643D01*
X15156786Y-14442643D01*
X15175833Y-14452167D01*
X15185357Y-14471214D01*
X15185357Y-14575976D01*
X15575833Y-14366452D02*
X15404405Y-14623595D01*
X15832976Y-14375976D02*
X15852024Y-14375976D01*
X15871071Y-14385500D01*
X15880595Y-14395024D01*
X15890119Y-14414071D01*
X15899643Y-14452167D01*
X15899643Y-14499786D01*
X15890119Y-14537881D01*
X15880595Y-14556928D01*
X15871071Y-14566452D01*
X15852024Y-14575976D01*
X15832976Y-14575976D01*
X15813928Y-14566452D01*
X15804405Y-14556928D01*
X15794881Y-14537881D01*
X15785357Y-14499786D01*
X15785357Y-14452167D01*
X15794881Y-14414071D01*
X15804405Y-14395024D01*
X15813928Y-14385500D01*
X15832976Y-14375976D01*
X15985357Y-14556928D02*
X15994881Y-14566452D01*
X15985357Y-14575976D01*
X15975833Y-14566452D01*
X15985357Y-14556928D01*
X15985357Y-14575976D01*
X16118690Y-14375976D02*
X16137738Y-14375976D01*
X16156786Y-14385500D01*
X16166309Y-14395024D01*
X16175833Y-14414071D01*
X16185357Y-14452167D01*
X16185357Y-14499786D01*
X16175833Y-14537881D01*
X16166309Y-14556928D01*
X16156786Y-14566452D01*
X16137738Y-14575976D01*
X16118690Y-14575976D01*
X16099643Y-14566452D01*
X16090119Y-14556928D01*
X16080595Y-14537881D01*
X16071071Y-14499786D01*
X16071071Y-14452167D01*
X16080595Y-14414071D01*
X16090119Y-14395024D01*
X16099643Y-14385500D01*
X16118690Y-14375976D01*
X16261548Y-14395024D02*
X16271071Y-14385500D01*
X16290119Y-14375976D01*
X16337738Y-14375976D01*
X16356786Y-14385500D01*
X16366309Y-14395024D01*
X16375833Y-14414071D01*
X16375833Y-14433119D01*
X16366309Y-14461690D01*
X16252024Y-14575976D01*
X16375833Y-14575976D01*
X16442500Y-14375976D02*
X16566309Y-14375976D01*
X16499643Y-14452167D01*
X16528214Y-14452167D01*
X16547262Y-14461690D01*
X16556786Y-14471214D01*
X16566309Y-14490262D01*
X16566309Y-14537881D01*
X16556786Y-14556928D01*
X16547262Y-14566452D01*
X16528214Y-14575976D01*
X16471071Y-14575976D01*
X16452024Y-14566452D01*
X16442500Y-14556928D01*
X16737738Y-14375976D02*
X16699643Y-14375976D01*
X16680595Y-14385500D01*
X16671071Y-14395024D01*
X16652024Y-14423595D01*
X16642500Y-14461690D01*
X16642500Y-14537881D01*
X16652024Y-14556928D01*
X16661548Y-14566452D01*
X16680595Y-14575976D01*
X16718690Y-14575976D01*
X16737738Y-14566452D01*
X16747262Y-14556928D01*
X16756786Y-14537881D01*
X16756786Y-14490262D01*
X16747262Y-14471214D01*
X16737738Y-14461690D01*
X16718690Y-14452167D01*
X16680595Y-14452167D01*
X16661548Y-14461690D01*
X16652024Y-14471214D01*
X16642500Y-14490262D01*
X16832976Y-14375976D02*
X16832976Y-14414071D01*
X16909167Y-14375976D02*
X16909167Y-14414071D01*
X17204405Y-14652167D02*
X17194881Y-14642643D01*
X17175833Y-14614071D01*
X17166310Y-14595024D01*
X17156786Y-14566452D01*
X17147262Y-14518833D01*
X17147262Y-14480738D01*
X17156786Y-14433119D01*
X17166310Y-14404548D01*
X17175833Y-14385500D01*
X17194881Y-14356928D01*
X17204405Y-14347405D01*
X17318690Y-14375976D02*
X17337738Y-14375976D01*
X17356786Y-14385500D01*
X17366310Y-14395024D01*
X17375833Y-14414071D01*
X17385357Y-14452167D01*
X17385357Y-14499786D01*
X17375833Y-14537881D01*
X17366310Y-14556928D01*
X17356786Y-14566452D01*
X17337738Y-14575976D01*
X17318690Y-14575976D01*
X17299643Y-14566452D01*
X17290119Y-14556928D01*
X17280595Y-14537881D01*
X17271071Y-14499786D01*
X17271071Y-14452167D01*
X17280595Y-14414071D01*
X17290119Y-14395024D01*
X17299643Y-14385500D01*
X17318690Y-14375976D01*
X17623452Y-14575976D02*
X17623452Y-14375976D01*
X17709167Y-14575976D02*
X17709167Y-14471214D01*
X17699643Y-14452167D01*
X17680595Y-14442643D01*
X17652024Y-14442643D01*
X17632976Y-14452167D01*
X17623452Y-14461690D01*
X17832976Y-14575976D02*
X17813929Y-14566452D01*
X17804405Y-14556928D01*
X17794881Y-14537881D01*
X17794881Y-14480738D01*
X17804405Y-14461690D01*
X17813929Y-14452167D01*
X17832976Y-14442643D01*
X17861548Y-14442643D01*
X17880595Y-14452167D01*
X17890119Y-14461690D01*
X17899643Y-14480738D01*
X17899643Y-14537881D01*
X17890119Y-14556928D01*
X17880595Y-14566452D01*
X17861548Y-14575976D01*
X17832976Y-14575976D01*
X18013929Y-14575976D02*
X17994881Y-14566452D01*
X17985357Y-14547405D01*
X17985357Y-14375976D01*
X18166310Y-14566452D02*
X18147262Y-14575976D01*
X18109167Y-14575976D01*
X18090119Y-14566452D01*
X18080595Y-14547405D01*
X18080595Y-14471214D01*
X18090119Y-14452167D01*
X18109167Y-14442643D01*
X18147262Y-14442643D01*
X18166310Y-14452167D01*
X18175833Y-14471214D01*
X18175833Y-14490262D01*
X18080595Y-14509309D01*
X18252024Y-14566452D02*
X18271071Y-14575976D01*
X18309167Y-14575976D01*
X18328214Y-14566452D01*
X18337738Y-14547405D01*
X18337738Y-14537881D01*
X18328214Y-14518833D01*
X18309167Y-14509309D01*
X18280595Y-14509309D01*
X18261548Y-14499786D01*
X18252024Y-14480738D01*
X18252024Y-14471214D01*
X18261548Y-14452167D01*
X18280595Y-14442643D01*
X18309167Y-14442643D01*
X18328214Y-14452167D01*
X18575833Y-14499786D02*
X18728214Y-14499786D01*
X18652024Y-14575976D02*
X18652024Y-14423595D01*
X18966310Y-14395024D02*
X18975833Y-14385500D01*
X18994881Y-14375976D01*
X19042500Y-14375976D01*
X19061548Y-14385500D01*
X19071071Y-14395024D01*
X19080595Y-14414071D01*
X19080595Y-14433119D01*
X19071071Y-14461690D01*
X18956786Y-14575976D01*
X19080595Y-14575976D01*
X19309167Y-14566452D02*
X19328214Y-14575976D01*
X19366310Y-14575976D01*
X19385357Y-14566452D01*
X19394881Y-14547405D01*
X19394881Y-14537881D01*
X19385357Y-14518833D01*
X19366310Y-14509309D01*
X19337738Y-14509309D01*
X19318690Y-14499786D01*
X19309167Y-14480738D01*
X19309167Y-14471214D01*
X19318690Y-14452167D01*
X19337738Y-14442643D01*
X19366310Y-14442643D01*
X19385357Y-14452167D01*
X19509167Y-14575976D02*
X19490119Y-14566452D01*
X19480595Y-14547405D01*
X19480595Y-14375976D01*
X19613929Y-14575976D02*
X19594881Y-14566452D01*
X19585357Y-14556928D01*
X19575833Y-14537881D01*
X19575833Y-14480738D01*
X19585357Y-14461690D01*
X19594881Y-14452167D01*
X19613929Y-14442643D01*
X19642500Y-14442643D01*
X19661548Y-14452167D01*
X19671071Y-14461690D01*
X19680595Y-14480738D01*
X19680595Y-14537881D01*
X19671071Y-14556928D01*
X19661548Y-14566452D01*
X19642500Y-14575976D01*
X19613929Y-14575976D01*
X19737738Y-14442643D02*
X19813929Y-14442643D01*
X19766310Y-14375976D02*
X19766310Y-14547405D01*
X19775833Y-14566452D01*
X19794881Y-14575976D01*
X19813929Y-14575976D01*
X19871071Y-14566452D02*
X19890119Y-14575976D01*
X19928214Y-14575976D01*
X19947262Y-14566452D01*
X19956786Y-14547405D01*
X19956786Y-14537881D01*
X19947262Y-14518833D01*
X19928214Y-14509309D01*
X19899643Y-14509309D01*
X19880595Y-14499786D01*
X19871071Y-14480738D01*
X19871071Y-14471214D01*
X19880595Y-14452167D01*
X19899643Y-14442643D01*
X19928214Y-14442643D01*
X19947262Y-14452167D01*
X20023452Y-14652167D02*
X20032976Y-14642643D01*
X20052024Y-14614071D01*
X20061548Y-14595024D01*
X20071071Y-14566452D01*
X20080595Y-14518833D01*
X20080595Y-14480738D01*
X20071071Y-14433119D01*
X20061548Y-14404548D01*
X20052024Y-14385500D01*
X20032976Y-14356928D01*
X20023452Y-14347405D01*
D14*
X13620052Y-14779552D02*
X13620052Y-14719448D01*
X13559948Y-14719448D01*
X13559948Y-14779552D01*
X13620052Y-14779552D01*
D11*
X13928214Y-14639976D02*
X13947262Y-14639976D01*
X13966309Y-14649500D01*
X13975833Y-14659024D01*
X13985357Y-14678071D01*
X13994881Y-14716167D01*
X13994881Y-14763786D01*
X13985357Y-14801881D01*
X13975833Y-14820928D01*
X13966309Y-14830452D01*
X13947262Y-14839976D01*
X13928214Y-14839976D01*
X13909167Y-14830452D01*
X13899643Y-14820928D01*
X13890119Y-14801881D01*
X13880595Y-14763786D01*
X13880595Y-14716167D01*
X13890119Y-14678071D01*
X13899643Y-14659024D01*
X13909167Y-14649500D01*
X13928214Y-14639976D01*
X14080595Y-14820928D02*
X14090119Y-14830452D01*
X14080595Y-14839976D01*
X14071071Y-14830452D01*
X14080595Y-14820928D01*
X14080595Y-14839976D01*
X14204405Y-14725690D02*
X14185357Y-14716167D01*
X14175833Y-14706643D01*
X14166309Y-14687595D01*
X14166309Y-14678071D01*
X14175833Y-14659024D01*
X14185357Y-14649500D01*
X14204405Y-14639976D01*
X14242500Y-14639976D01*
X14261548Y-14649500D01*
X14271071Y-14659024D01*
X14280595Y-14678071D01*
X14280595Y-14687595D01*
X14271071Y-14706643D01*
X14261548Y-14716167D01*
X14242500Y-14725690D01*
X14204405Y-14725690D01*
X14185357Y-14735214D01*
X14175833Y-14744738D01*
X14166309Y-14763786D01*
X14166309Y-14801881D01*
X14175833Y-14820928D01*
X14185357Y-14830452D01*
X14204405Y-14839976D01*
X14242500Y-14839976D01*
X14261548Y-14830452D01*
X14271071Y-14820928D01*
X14280595Y-14801881D01*
X14280595Y-14763786D01*
X14271071Y-14744738D01*
X14261548Y-14735214D01*
X14242500Y-14725690D01*
X14461548Y-14639976D02*
X14366309Y-14639976D01*
X14356786Y-14735214D01*
X14366309Y-14725690D01*
X14385357Y-14716167D01*
X14432976Y-14716167D01*
X14452024Y-14725690D01*
X14461548Y-14735214D01*
X14471071Y-14754262D01*
X14471071Y-14801881D01*
X14461548Y-14820928D01*
X14452024Y-14830452D01*
X14432976Y-14839976D01*
X14385357Y-14839976D01*
X14366309Y-14830452D01*
X14356786Y-14820928D01*
X14594881Y-14639976D02*
X14613928Y-14639976D01*
X14632976Y-14649500D01*
X14642500Y-14659024D01*
X14652024Y-14678071D01*
X14661548Y-14716167D01*
X14661548Y-14763786D01*
X14652024Y-14801881D01*
X14642500Y-14820928D01*
X14632976Y-14830452D01*
X14613928Y-14839976D01*
X14594881Y-14839976D01*
X14575833Y-14830452D01*
X14566309Y-14820928D01*
X14556786Y-14801881D01*
X14547262Y-14763786D01*
X14547262Y-14716167D01*
X14556786Y-14678071D01*
X14566309Y-14659024D01*
X14575833Y-14649500D01*
X14594881Y-14639976D01*
X14747262Y-14839976D02*
X14747262Y-14706643D01*
X14747262Y-14725690D02*
X14756786Y-14716167D01*
X14775833Y-14706643D01*
X14804405Y-14706643D01*
X14823452Y-14716167D01*
X14832976Y-14735214D01*
X14832976Y-14839976D01*
X14832976Y-14735214D02*
X14842500Y-14716167D01*
X14861548Y-14706643D01*
X14890119Y-14706643D01*
X14909167Y-14716167D01*
X14918690Y-14735214D01*
X14918690Y-14839976D01*
X15013928Y-14839976D02*
X15013928Y-14706643D01*
X15013928Y-14725690D02*
X15023452Y-14716167D01*
X15042500Y-14706643D01*
X15071071Y-14706643D01*
X15090119Y-14716167D01*
X15099643Y-14735214D01*
X15099643Y-14839976D01*
X15099643Y-14735214D02*
X15109167Y-14716167D01*
X15128214Y-14706643D01*
X15156786Y-14706643D01*
X15175833Y-14716167D01*
X15185357Y-14735214D01*
X15185357Y-14839976D01*
X15575833Y-14630452D02*
X15404405Y-14887595D01*
X15832976Y-14639976D02*
X15852024Y-14639976D01*
X15871071Y-14649500D01*
X15880595Y-14659024D01*
X15890119Y-14678071D01*
X15899643Y-14716167D01*
X15899643Y-14763786D01*
X15890119Y-14801881D01*
X15880595Y-14820928D01*
X15871071Y-14830452D01*
X15852024Y-14839976D01*
X15832976Y-14839976D01*
X15813928Y-14830452D01*
X15804405Y-14820928D01*
X15794881Y-14801881D01*
X15785357Y-14763786D01*
X15785357Y-14716167D01*
X15794881Y-14678071D01*
X15804405Y-14659024D01*
X15813928Y-14649500D01*
X15832976Y-14639976D01*
X15985357Y-14820928D02*
X15994881Y-14830452D01*
X15985357Y-14839976D01*
X15975833Y-14830452D01*
X15985357Y-14820928D01*
X15985357Y-14839976D01*
X16118690Y-14639976D02*
X16137738Y-14639976D01*
X16156786Y-14649500D01*
X16166309Y-14659024D01*
X16175833Y-14678071D01*
X16185357Y-14716167D01*
X16185357Y-14763786D01*
X16175833Y-14801881D01*
X16166309Y-14820928D01*
X16156786Y-14830452D01*
X16137738Y-14839976D01*
X16118690Y-14839976D01*
X16099643Y-14830452D01*
X16090119Y-14820928D01*
X16080595Y-14801881D01*
X16071071Y-14763786D01*
X16071071Y-14716167D01*
X16080595Y-14678071D01*
X16090119Y-14659024D01*
X16099643Y-14649500D01*
X16118690Y-14639976D01*
X16252024Y-14639976D02*
X16375833Y-14639976D01*
X16309167Y-14716167D01*
X16337738Y-14716167D01*
X16356786Y-14725690D01*
X16366309Y-14735214D01*
X16375833Y-14754262D01*
X16375833Y-14801881D01*
X16366309Y-14820928D01*
X16356786Y-14830452D01*
X16337738Y-14839976D01*
X16280595Y-14839976D01*
X16261548Y-14830452D01*
X16252024Y-14820928D01*
X16442500Y-14639976D02*
X16566309Y-14639976D01*
X16499643Y-14716167D01*
X16528214Y-14716167D01*
X16547262Y-14725690D01*
X16556786Y-14735214D01*
X16566309Y-14754262D01*
X16566309Y-14801881D01*
X16556786Y-14820928D01*
X16547262Y-14830452D01*
X16528214Y-14839976D01*
X16471071Y-14839976D01*
X16452024Y-14830452D01*
X16442500Y-14820928D01*
X16747262Y-14639976D02*
X16652024Y-14639976D01*
X16642500Y-14735214D01*
X16652024Y-14725690D01*
X16671071Y-14716167D01*
X16718690Y-14716167D01*
X16737738Y-14725690D01*
X16747262Y-14735214D01*
X16756786Y-14754262D01*
X16756786Y-14801881D01*
X16747262Y-14820928D01*
X16737738Y-14830452D01*
X16718690Y-14839976D01*
X16671071Y-14839976D01*
X16652024Y-14830452D01*
X16642500Y-14820928D01*
X16832976Y-14639976D02*
X16832976Y-14678071D01*
X16909167Y-14639976D02*
X16909167Y-14678071D01*
X17204405Y-14916167D02*
X17194881Y-14906643D01*
X17175833Y-14878071D01*
X17166310Y-14859024D01*
X17156786Y-14830452D01*
X17147262Y-14782833D01*
X17147262Y-14744738D01*
X17156786Y-14697119D01*
X17166310Y-14668548D01*
X17175833Y-14649500D01*
X17194881Y-14620928D01*
X17204405Y-14611405D01*
X17271071Y-14659024D02*
X17280595Y-14649500D01*
X17299643Y-14639976D01*
X17347262Y-14639976D01*
X17366310Y-14649500D01*
X17375833Y-14659024D01*
X17385357Y-14678071D01*
X17385357Y-14697119D01*
X17375833Y-14725690D01*
X17261548Y-14839976D01*
X17385357Y-14839976D01*
X17623452Y-14839976D02*
X17623452Y-14639976D01*
X17709167Y-14839976D02*
X17709167Y-14735214D01*
X17699643Y-14716167D01*
X17680595Y-14706643D01*
X17652024Y-14706643D01*
X17632976Y-14716167D01*
X17623452Y-14725690D01*
X17832976Y-14839976D02*
X17813929Y-14830452D01*
X17804405Y-14820928D01*
X17794881Y-14801881D01*
X17794881Y-14744738D01*
X17804405Y-14725690D01*
X17813929Y-14716167D01*
X17832976Y-14706643D01*
X17861548Y-14706643D01*
X17880595Y-14716167D01*
X17890119Y-14725690D01*
X17899643Y-14744738D01*
X17899643Y-14801881D01*
X17890119Y-14820928D01*
X17880595Y-14830452D01*
X17861548Y-14839976D01*
X17832976Y-14839976D01*
X18013929Y-14839976D02*
X17994881Y-14830452D01*
X17985357Y-14811405D01*
X17985357Y-14639976D01*
X18166310Y-14830452D02*
X18147262Y-14839976D01*
X18109167Y-14839976D01*
X18090119Y-14830452D01*
X18080595Y-14811405D01*
X18080595Y-14735214D01*
X18090119Y-14716167D01*
X18109167Y-14706643D01*
X18147262Y-14706643D01*
X18166310Y-14716167D01*
X18175833Y-14735214D01*
X18175833Y-14754262D01*
X18080595Y-14773309D01*
X18252024Y-14830452D02*
X18271071Y-14839976D01*
X18309167Y-14839976D01*
X18328214Y-14830452D01*
X18337738Y-14811405D01*
X18337738Y-14801881D01*
X18328214Y-14782833D01*
X18309167Y-14773309D01*
X18280595Y-14773309D01*
X18261548Y-14763786D01*
X18252024Y-14744738D01*
X18252024Y-14735214D01*
X18261548Y-14716167D01*
X18280595Y-14706643D01*
X18309167Y-14706643D01*
X18328214Y-14716167D01*
X18404405Y-14916167D02*
X18413929Y-14906643D01*
X18432976Y-14878071D01*
X18442500Y-14859024D01*
X18452024Y-14830452D01*
X18461548Y-14782833D01*
X18461548Y-14744738D01*
X18452024Y-14697119D01*
X18442500Y-14668548D01*
X18432976Y-14649500D01*
X18413929Y-14620928D01*
X18404405Y-14611405D01*
M02*
