M48
; DRILL file {KiCad 6.0.6} date Tue Aug 23 18:22:58 2022
; FORMAT={-:-/ absolute / metric / decimal}
; #@! TF.CreationDate,2022-08-23T18:22:58-07:00
; #@! TF.GenerationSoftware,Kicad,Pcbnew,6.0.6
; #@! TF.FileFunction,Plated,1,4,PTH
FMAT,2
METRIC
; #@! TA.AperFunction,Plated,PTH,ViaDrill
T1C0.400
; #@! TA.AperFunction,Plated,PTH,ComponentDrill
T2C0.400
; #@! TA.AperFunction,Plated,PTH,ComponentDrill
T3C0.600
; #@! TA.AperFunction,Plated,PTH,ComponentDrill
T4C0.850
%
G90
G05
T1
X137.7Y-130.1
X137.783Y-118.31
X138.047Y-127.0
X138.3Y-119.5
X138.773Y-118.3
X139.9Y-121.9
X139.919Y-120.864
X140.1Y-131.4
X140.653Y-120.2
X140.8Y-114.65
X141.1Y-125.1
X141.126Y-123.255
X142.45Y-131.4
X144.018Y-111.354
X144.17Y-116.078
X144.831Y-110.388
X144.878Y-119.712
X144.934Y-109.4
X144.951Y-117.46
X145.8Y-118.9
X145.948Y-109.423
X146.3Y-126.7
X146.5Y-111.3
X146.61Y-107.442
X146.8Y-113.3
X147.226Y-115.901
X147.3Y-102.8
X147.4Y-126.7
X148.3Y-114.04
X149.2Y-111.325
X149.4Y-108.7
X149.4Y-109.7
X149.5Y-89.4
X150.2Y-114.7
X151.057Y-123.49
X151.4Y-104.5
X152.114Y-123.912
X153.2Y-126.0
X154.0Y-113.6
X154.0Y-123.6
X154.2Y-122.625
X154.8Y-108.7
X155.0Y-114.0
X155.51Y-124.985
X155.8Y-106.6
X155.8Y-111.7
X155.8Y-132.0
X155.854Y-110.028
X155.91Y-107.8
X156.428Y-122.204
X156.64Y-131.4
X156.645Y-119.8
X156.667Y-124.968
X156.8Y-111.7
X156.8Y-118.5
X156.87Y-107.036
T2
X137.211Y-132.232
X137.4Y-105.7
X137.4Y-106.7
X137.4Y-107.7
X137.72Y-115.62
X143.2Y-128.4
X143.3Y-123.5
X143.3Y-124.4
X144.2Y-105.3
X145.1Y-112.4
X148.59Y-127.965
X148.8Y-120.4
X149.4Y-121.1
X151.3Y-126.7
X151.994Y-117.805
X152.0Y-119.4
X152.8Y-120.4
X153.4Y-131.6
X154.2Y-126.2
X154.2Y-128.8
T4
X144.7Y-128.941
X149.7Y-128.941
T3
X143.7Y-131.991G85X143.7Y-131.291
G05
X150.7Y-131.291G85X150.7Y-131.991
G05
T0
M30
