%TF.GenerationSoftware,KiCad,Pcbnew,6.0.6*%
%TF.CreationDate,2022-08-23T18:22:02-07:00*%
%TF.ProjectId,SDWire,53445769-7265-42e6-9b69-6361645f7063,1.4 r1*%
%TF.SameCoordinates,Original*%
%TF.FileFunction,Legend,Top*%
%TF.FilePolarity,Positive*%
%FSLAX46Y46*%
G04 Gerber Fmt 4.6, Leading zero omitted, Abs format (unit mm)*
G04 Created by KiCad (PCBNEW 6.0.6) date 2022-08-23 18:22:02*
%MOMM*%
%LPD*%
G01*
G04 APERTURE LIST*
G04 Aperture macros list*
%AMRoundRect*
0 Rectangle with rounded corners*
0 $1 Rounding radius*
0 $2 $3 $4 $5 $6 $7 $8 $9 X,Y pos of 4 corners*
0 Add a 4 corners polygon primitive as box body*
4,1,4,$2,$3,$4,$5,$6,$7,$8,$9,$2,$3,0*
0 Add four circle primitives for the rounded corners*
1,1,$1+$1,$2,$3*
1,1,$1+$1,$4,$5*
1,1,$1+$1,$6,$7*
1,1,$1+$1,$8,$9*
0 Add four rect primitives between the rounded corners*
20,1,$1+$1,$2,$3,$4,$5,0*
20,1,$1+$1,$4,$5,$6,$7,0*
20,1,$1+$1,$6,$7,$8,$9,0*
20,1,$1+$1,$8,$9,$2,$3,0*%
G04 Aperture macros list end*
%ADD10C,0.150000*%
%ADD11C,0.125000*%
%ADD12C,0.120000*%
%ADD13C,0.100000*%
%ADD14RoundRect,0.190000X0.170000X-0.140000X0.170000X0.140000X-0.170000X0.140000X-0.170000X-0.140000X0*%
%ADD15RoundRect,0.190000X0.140000X0.170000X-0.140000X0.170000X-0.140000X-0.170000X0.140000X-0.170000X0*%
%ADD16RoundRect,0.190000X-0.140000X-0.170000X0.140000X-0.170000X0.140000X0.170000X-0.140000X0.170000X0*%
%ADD17RoundRect,0.300000X0.537500X0.425000X-0.537500X0.425000X-0.537500X-0.425000X0.537500X-0.425000X0*%
%ADD18RoundRect,0.190000X-0.170000X0.140000X-0.170000X-0.140000X0.170000X-0.140000X0.170000X0.140000X0*%
%ADD19RoundRect,0.300000X-0.425000X0.537500X-0.425000X-0.537500X0.425000X-0.537500X0.425000X0.537500X0*%
%ADD20RoundRect,0.197500X-0.147500X-0.172500X0.147500X-0.172500X0.147500X0.172500X-0.147500X0.172500X0*%
%ADD21RoundRect,0.050000X-0.400000X-1.450000X0.400000X-1.450000X0.400000X1.450000X-0.400000X1.450000X0*%
%ADD22RoundRect,0.050000X-0.400000X-1.600000X0.400000X-1.600000X0.400000X1.600000X-0.400000X1.600000X0*%
%ADD23RoundRect,0.050000X-0.200000X-0.675000X0.200000X-0.675000X0.200000X0.675000X-0.200000X0.675000X0*%
%ADD24RoundRect,0.050000X-0.600000X-0.950000X0.600000X-0.950000X0.600000X0.950000X-0.600000X0.950000X0*%
%ADD25C,1.550000*%
%ADD26O,1.300000X2.000000*%
%ADD27RoundRect,0.050000X-0.750000X-0.950000X0.750000X-0.950000X0.750000X0.950000X-0.750000X0.950000X0*%
%ADD28RoundRect,0.050000X-0.450000X-0.400000X0.450000X-0.400000X0.450000X0.400000X-0.450000X0.400000X0*%
%ADD29RoundRect,0.185000X0.185000X-0.135000X0.185000X0.135000X-0.185000X0.135000X-0.185000X-0.135000X0*%
%ADD30RoundRect,0.185000X-0.135000X-0.185000X0.135000X-0.185000X0.135000X0.185000X-0.135000X0.185000X0*%
%ADD31RoundRect,0.185000X-0.185000X0.135000X-0.185000X-0.135000X0.185000X-0.135000X0.185000X0.135000X0*%
%ADD32RoundRect,0.185000X0.135000X0.185000X-0.135000X0.185000X-0.135000X-0.185000X0.135000X-0.185000X0*%
%ADD33RoundRect,0.050000X0.125000X-0.350000X0.125000X0.350000X-0.125000X0.350000X-0.125000X-0.350000X0*%
%ADD34RoundRect,0.050000X0.350000X0.125000X-0.350000X0.125000X-0.350000X-0.125000X0.350000X-0.125000X0*%
%ADD35RoundRect,0.050000X0.500000X-0.500000X0.500000X0.500000X-0.500000X0.500000X-0.500000X-0.500000X0*%
%ADD36RoundRect,0.050000X0.150000X-0.325000X0.150000X0.325000X-0.150000X0.325000X-0.150000X-0.325000X0*%
%ADD37RoundRect,0.050000X1.240000X-0.775000X1.240000X0.775000X-1.240000X0.775000X-1.240000X-0.775000X0*%
%ADD38RoundRect,0.050000X-0.325000X0.780000X-0.325000X-0.780000X0.325000X-0.780000X0.325000X0.780000X0*%
%ADD39RoundRect,0.050000X-0.800000X0.175000X-0.800000X-0.175000X0.800000X-0.175000X0.800000X0.175000X0*%
%ADD40RoundRect,0.200000X0.150000X-0.512500X0.150000X0.512500X-0.150000X0.512500X-0.150000X-0.512500X0*%
%ADD41RoundRect,0.197500X0.147500X0.172500X-0.147500X0.172500X-0.147500X-0.172500X0.147500X-0.172500X0*%
%ADD42RoundRect,0.050000X-0.575000X-0.500000X0.575000X-0.500000X0.575000X0.500000X-0.575000X0.500000X0*%
%ADD43RoundRect,0.197500X0.172500X-0.147500X0.172500X0.147500X-0.172500X0.147500X-0.172500X-0.147500X0*%
G04 APERTURE END LIST*
D10*
X151895000Y-104750000D02*
G75*
G03*
X152695000Y-103950000I0J800000D01*
G01*
X141700000Y-103950000D02*
G75*
G03*
X142500000Y-104750000I800000J0D01*
G01*
X142500000Y-104750000D02*
X151895000Y-104750000D01*
D11*
X143546171Y-127642133D02*
X143569980Y-127665942D01*
X143593790Y-127737371D01*
X143593790Y-127784990D01*
X143569980Y-127856419D01*
X143522361Y-127904038D01*
X143474742Y-127927847D01*
X143379504Y-127951657D01*
X143308076Y-127951657D01*
X143212838Y-127927847D01*
X143165219Y-127904038D01*
X143117600Y-127856419D01*
X143093790Y-127784990D01*
X143093790Y-127737371D01*
X143117600Y-127665942D01*
X143141409Y-127642133D01*
X143593790Y-127165942D02*
X143593790Y-127451657D01*
X143593790Y-127308800D02*
X143093790Y-127308800D01*
X143165219Y-127356419D01*
X143212838Y-127404038D01*
X143236647Y-127451657D01*
X144087066Y-116358171D02*
X144063257Y-116381980D01*
X143991828Y-116405790D01*
X143944209Y-116405790D01*
X143872780Y-116381980D01*
X143825161Y-116334361D01*
X143801352Y-116286742D01*
X143777542Y-116191504D01*
X143777542Y-116120076D01*
X143801352Y-116024838D01*
X143825161Y-115977219D01*
X143872780Y-115929600D01*
X143944209Y-115905790D01*
X143991828Y-115905790D01*
X144063257Y-115929600D01*
X144087066Y-115953409D01*
X144277542Y-115953409D02*
X144301352Y-115929600D01*
X144348971Y-115905790D01*
X144468019Y-115905790D01*
X144515638Y-115929600D01*
X144539447Y-115953409D01*
X144563257Y-116001028D01*
X144563257Y-116048647D01*
X144539447Y-116120076D01*
X144253733Y-116405790D01*
X144563257Y-116405790D01*
X144036266Y-122454171D02*
X144012457Y-122477980D01*
X143941028Y-122501790D01*
X143893409Y-122501790D01*
X143821980Y-122477980D01*
X143774361Y-122430361D01*
X143750552Y-122382742D01*
X143726742Y-122287504D01*
X143726742Y-122216076D01*
X143750552Y-122120838D01*
X143774361Y-122073219D01*
X143821980Y-122025600D01*
X143893409Y-122001790D01*
X143941028Y-122001790D01*
X144012457Y-122025600D01*
X144036266Y-122049409D01*
X144202933Y-122001790D02*
X144512457Y-122001790D01*
X144345790Y-122192266D01*
X144417219Y-122192266D01*
X144464838Y-122216076D01*
X144488647Y-122239885D01*
X144512457Y-122287504D01*
X144512457Y-122406552D01*
X144488647Y-122454171D01*
X144464838Y-122477980D01*
X144417219Y-122501790D01*
X144274361Y-122501790D01*
X144226742Y-122477980D01*
X144202933Y-122454171D01*
X140429466Y-118491771D02*
X140405657Y-118515580D01*
X140334228Y-118539390D01*
X140286609Y-118539390D01*
X140215180Y-118515580D01*
X140167561Y-118467961D01*
X140143752Y-118420342D01*
X140119942Y-118325104D01*
X140119942Y-118253676D01*
X140143752Y-118158438D01*
X140167561Y-118110819D01*
X140215180Y-118063200D01*
X140286609Y-118039390D01*
X140334228Y-118039390D01*
X140405657Y-118063200D01*
X140429466Y-118087009D01*
X140858038Y-118206057D02*
X140858038Y-118539390D01*
X140738990Y-118015580D02*
X140619942Y-118372723D01*
X140929466Y-118372723D01*
X144137866Y-123266971D02*
X144114057Y-123290780D01*
X144042628Y-123314590D01*
X143995009Y-123314590D01*
X143923580Y-123290780D01*
X143875961Y-123243161D01*
X143852152Y-123195542D01*
X143828342Y-123100304D01*
X143828342Y-123028876D01*
X143852152Y-122933638D01*
X143875961Y-122886019D01*
X143923580Y-122838400D01*
X143995009Y-122814590D01*
X144042628Y-122814590D01*
X144114057Y-122838400D01*
X144137866Y-122862209D01*
X144590247Y-122814590D02*
X144352152Y-122814590D01*
X144328342Y-123052685D01*
X144352152Y-123028876D01*
X144399771Y-123005066D01*
X144518819Y-123005066D01*
X144566438Y-123028876D01*
X144590247Y-123052685D01*
X144614057Y-123100304D01*
X144614057Y-123219352D01*
X144590247Y-123266971D01*
X144566438Y-123290780D01*
X144518819Y-123314590D01*
X144399771Y-123314590D01*
X144352152Y-123290780D01*
X144328342Y-123266971D01*
X154805866Y-121793771D02*
X154782057Y-121817580D01*
X154710628Y-121841390D01*
X154663009Y-121841390D01*
X154591580Y-121817580D01*
X154543961Y-121769961D01*
X154520152Y-121722342D01*
X154496342Y-121627104D01*
X154496342Y-121555676D01*
X154520152Y-121460438D01*
X154543961Y-121412819D01*
X154591580Y-121365200D01*
X154663009Y-121341390D01*
X154710628Y-121341390D01*
X154782057Y-121365200D01*
X154805866Y-121389009D01*
X154972533Y-121341390D02*
X155305866Y-121341390D01*
X155091580Y-121841390D01*
X154704266Y-122911371D02*
X154680457Y-122935180D01*
X154609028Y-122958990D01*
X154561409Y-122958990D01*
X154489980Y-122935180D01*
X154442361Y-122887561D01*
X154418552Y-122839942D01*
X154394742Y-122744704D01*
X154394742Y-122673276D01*
X154418552Y-122578038D01*
X154442361Y-122530419D01*
X154489980Y-122482800D01*
X154561409Y-122458990D01*
X154609028Y-122458990D01*
X154680457Y-122482800D01*
X154704266Y-122506609D01*
X154989980Y-122673276D02*
X154942361Y-122649466D01*
X154918552Y-122625657D01*
X154894742Y-122578038D01*
X154894742Y-122554228D01*
X154918552Y-122506609D01*
X154942361Y-122482800D01*
X154989980Y-122458990D01*
X155085219Y-122458990D01*
X155132838Y-122482800D01*
X155156647Y-122506609D01*
X155180457Y-122554228D01*
X155180457Y-122578038D01*
X155156647Y-122625657D01*
X155132838Y-122649466D01*
X155085219Y-122673276D01*
X154989980Y-122673276D01*
X154942361Y-122697085D01*
X154918552Y-122720895D01*
X154894742Y-122768514D01*
X154894742Y-122863752D01*
X154918552Y-122911371D01*
X154942361Y-122935180D01*
X154989980Y-122958990D01*
X155085219Y-122958990D01*
X155132838Y-122935180D01*
X155156647Y-122911371D01*
X155180457Y-122863752D01*
X155180457Y-122768514D01*
X155156647Y-122720895D01*
X155132838Y-122697085D01*
X155085219Y-122673276D01*
X137041771Y-129515371D02*
X137017961Y-129539180D01*
X136946533Y-129562990D01*
X136898914Y-129562990D01*
X136827485Y-129539180D01*
X136779866Y-129491561D01*
X136756057Y-129443942D01*
X136732247Y-129348704D01*
X136732247Y-129277276D01*
X136756057Y-129182038D01*
X136779866Y-129134419D01*
X136827485Y-129086800D01*
X136898914Y-129062990D01*
X136946533Y-129062990D01*
X137017961Y-129086800D01*
X137041771Y-129110609D01*
X137517961Y-129562990D02*
X137232247Y-129562990D01*
X137375104Y-129562990D02*
X137375104Y-129062990D01*
X137327485Y-129134419D01*
X137279866Y-129182038D01*
X137232247Y-129205847D01*
X137827485Y-129062990D02*
X137875104Y-129062990D01*
X137922723Y-129086800D01*
X137946533Y-129110609D01*
X137970342Y-129158228D01*
X137994152Y-129253466D01*
X137994152Y-129372514D01*
X137970342Y-129467752D01*
X137946533Y-129515371D01*
X137922723Y-129539180D01*
X137875104Y-129562990D01*
X137827485Y-129562990D01*
X137779866Y-129539180D01*
X137756057Y-129515371D01*
X137732247Y-129467752D01*
X137708438Y-129372514D01*
X137708438Y-129253466D01*
X137732247Y-129158228D01*
X137756057Y-129110609D01*
X137779866Y-129086800D01*
X137827485Y-129062990D01*
X139835771Y-121779445D02*
X139811961Y-121803254D01*
X139740533Y-121827064D01*
X139692914Y-121827064D01*
X139621485Y-121803254D01*
X139573866Y-121755635D01*
X139550057Y-121708016D01*
X139526247Y-121612778D01*
X139526247Y-121541350D01*
X139550057Y-121446112D01*
X139573866Y-121398493D01*
X139621485Y-121350874D01*
X139692914Y-121327064D01*
X139740533Y-121327064D01*
X139811961Y-121350874D01*
X139835771Y-121374683D01*
X140311961Y-121827064D02*
X140026247Y-121827064D01*
X140169104Y-121827064D02*
X140169104Y-121327064D01*
X140121485Y-121398493D01*
X140073866Y-121446112D01*
X140026247Y-121469921D01*
X140788152Y-121827064D02*
X140502438Y-121827064D01*
X140645295Y-121827064D02*
X140645295Y-121327064D01*
X140597676Y-121398493D01*
X140550057Y-121446112D01*
X140502438Y-121469921D01*
X147244571Y-123613028D02*
X147268380Y-123636838D01*
X147292190Y-123708266D01*
X147292190Y-123755885D01*
X147268380Y-123827314D01*
X147220761Y-123874933D01*
X147173142Y-123898742D01*
X147077904Y-123922552D01*
X147006476Y-123922552D01*
X146911238Y-123898742D01*
X146863619Y-123874933D01*
X146816000Y-123827314D01*
X146792190Y-123755885D01*
X146792190Y-123708266D01*
X146816000Y-123636838D01*
X146839809Y-123613028D01*
X147292190Y-123136838D02*
X147292190Y-123422552D01*
X147292190Y-123279695D02*
X146792190Y-123279695D01*
X146863619Y-123327314D01*
X146911238Y-123374933D01*
X146935047Y-123422552D01*
X146839809Y-122946361D02*
X146816000Y-122922552D01*
X146792190Y-122874933D01*
X146792190Y-122755885D01*
X146816000Y-122708266D01*
X146839809Y-122684457D01*
X146887428Y-122660647D01*
X146935047Y-122660647D01*
X147006476Y-122684457D01*
X147292190Y-122970171D01*
X147292190Y-122660647D01*
X145830171Y-113919771D02*
X145806361Y-113943580D01*
X145734933Y-113967390D01*
X145687314Y-113967390D01*
X145615885Y-113943580D01*
X145568266Y-113895961D01*
X145544457Y-113848342D01*
X145520647Y-113753104D01*
X145520647Y-113681676D01*
X145544457Y-113586438D01*
X145568266Y-113538819D01*
X145615885Y-113491200D01*
X145687314Y-113467390D01*
X145734933Y-113467390D01*
X145806361Y-113491200D01*
X145830171Y-113515009D01*
X146306361Y-113967390D02*
X146020647Y-113967390D01*
X146163504Y-113967390D02*
X146163504Y-113467390D01*
X146115885Y-113538819D01*
X146068266Y-113586438D01*
X146020647Y-113610247D01*
X146473028Y-113467390D02*
X146782552Y-113467390D01*
X146615885Y-113657866D01*
X146687314Y-113657866D01*
X146734933Y-113681676D01*
X146758742Y-113705485D01*
X146782552Y-113753104D01*
X146782552Y-113872152D01*
X146758742Y-113919771D01*
X146734933Y-113943580D01*
X146687314Y-113967390D01*
X146544457Y-113967390D01*
X146496838Y-113943580D01*
X146473028Y-113919771D01*
X137236971Y-127778628D02*
X137260780Y-127802438D01*
X137284590Y-127873866D01*
X137284590Y-127921485D01*
X137260780Y-127992914D01*
X137213161Y-128040533D01*
X137165542Y-128064342D01*
X137070304Y-128088152D01*
X136998876Y-128088152D01*
X136903638Y-128064342D01*
X136856019Y-128040533D01*
X136808400Y-127992914D01*
X136784590Y-127921485D01*
X136784590Y-127873866D01*
X136808400Y-127802438D01*
X136832209Y-127778628D01*
X137284590Y-127302438D02*
X137284590Y-127588152D01*
X137284590Y-127445295D02*
X136784590Y-127445295D01*
X136856019Y-127492914D01*
X136903638Y-127540533D01*
X136927447Y-127588152D01*
X136951257Y-126873866D02*
X137284590Y-126873866D01*
X136760780Y-126992914D02*
X137117923Y-127111961D01*
X137117923Y-126802438D01*
X145600571Y-118403371D02*
X145576761Y-118427180D01*
X145505333Y-118450990D01*
X145457714Y-118450990D01*
X145386285Y-118427180D01*
X145338666Y-118379561D01*
X145314857Y-118331942D01*
X145291047Y-118236704D01*
X145291047Y-118165276D01*
X145314857Y-118070038D01*
X145338666Y-118022419D01*
X145386285Y-117974800D01*
X145457714Y-117950990D01*
X145505333Y-117950990D01*
X145576761Y-117974800D01*
X145600571Y-117998609D01*
X146076761Y-118450990D02*
X145791047Y-118450990D01*
X145933904Y-118450990D02*
X145933904Y-117950990D01*
X145886285Y-118022419D01*
X145838666Y-118070038D01*
X145791047Y-118093847D01*
X146529142Y-117950990D02*
X146291047Y-117950990D01*
X146267238Y-118189085D01*
X146291047Y-118165276D01*
X146338666Y-118141466D01*
X146457714Y-118141466D01*
X146505333Y-118165276D01*
X146529142Y-118189085D01*
X146552952Y-118236704D01*
X146552952Y-118355752D01*
X146529142Y-118403371D01*
X146505333Y-118427180D01*
X146457714Y-118450990D01*
X146338666Y-118450990D01*
X146291047Y-118427180D01*
X146267238Y-118403371D01*
X151003771Y-127270628D02*
X151027580Y-127294438D01*
X151051390Y-127365866D01*
X151051390Y-127413485D01*
X151027580Y-127484914D01*
X150979961Y-127532533D01*
X150932342Y-127556342D01*
X150837104Y-127580152D01*
X150765676Y-127580152D01*
X150670438Y-127556342D01*
X150622819Y-127532533D01*
X150575200Y-127484914D01*
X150551390Y-127413485D01*
X150551390Y-127365866D01*
X150575200Y-127294438D01*
X150599009Y-127270628D01*
X151051390Y-126794438D02*
X151051390Y-127080152D01*
X151051390Y-126937295D02*
X150551390Y-126937295D01*
X150622819Y-126984914D01*
X150670438Y-127032533D01*
X150694247Y-127080152D01*
X150551390Y-126627771D02*
X150551390Y-126294438D01*
X151051390Y-126508723D01*
X155278971Y-119609371D02*
X155255161Y-119633180D01*
X155183733Y-119656990D01*
X155136114Y-119656990D01*
X155064685Y-119633180D01*
X155017066Y-119585561D01*
X154993257Y-119537942D01*
X154969447Y-119442704D01*
X154969447Y-119371276D01*
X154993257Y-119276038D01*
X155017066Y-119228419D01*
X155064685Y-119180800D01*
X155136114Y-119156990D01*
X155183733Y-119156990D01*
X155255161Y-119180800D01*
X155278971Y-119204609D01*
X155755161Y-119656990D02*
X155469447Y-119656990D01*
X155612304Y-119656990D02*
X155612304Y-119156990D01*
X155564685Y-119228419D01*
X155517066Y-119276038D01*
X155469447Y-119299847D01*
X156040876Y-119371276D02*
X155993257Y-119347466D01*
X155969447Y-119323657D01*
X155945638Y-119276038D01*
X155945638Y-119252228D01*
X155969447Y-119204609D01*
X155993257Y-119180800D01*
X156040876Y-119156990D01*
X156136114Y-119156990D01*
X156183733Y-119180800D01*
X156207542Y-119204609D01*
X156231352Y-119252228D01*
X156231352Y-119276038D01*
X156207542Y-119323657D01*
X156183733Y-119347466D01*
X156136114Y-119371276D01*
X156040876Y-119371276D01*
X155993257Y-119395085D01*
X155969447Y-119418895D01*
X155945638Y-119466514D01*
X155945638Y-119561752D01*
X155969447Y-119609371D01*
X155993257Y-119633180D01*
X156040876Y-119656990D01*
X156136114Y-119656990D01*
X156183733Y-119633180D01*
X156207542Y-119609371D01*
X156231352Y-119561752D01*
X156231352Y-119466514D01*
X156207542Y-119418895D01*
X156183733Y-119395085D01*
X156136114Y-119371276D01*
X154712171Y-126610228D02*
X154735980Y-126634038D01*
X154759790Y-126705466D01*
X154759790Y-126753085D01*
X154735980Y-126824514D01*
X154688361Y-126872133D01*
X154640742Y-126895942D01*
X154545504Y-126919752D01*
X154474076Y-126919752D01*
X154378838Y-126895942D01*
X154331219Y-126872133D01*
X154283600Y-126824514D01*
X154259790Y-126753085D01*
X154259790Y-126705466D01*
X154283600Y-126634038D01*
X154307409Y-126610228D01*
X154307409Y-126419752D02*
X154283600Y-126395942D01*
X154259790Y-126348323D01*
X154259790Y-126229276D01*
X154283600Y-126181657D01*
X154307409Y-126157847D01*
X154355028Y-126134038D01*
X154402647Y-126134038D01*
X154474076Y-126157847D01*
X154759790Y-126443561D01*
X154759790Y-126134038D01*
X154259790Y-125824514D02*
X154259790Y-125776895D01*
X154283600Y-125729276D01*
X154307409Y-125705466D01*
X154355028Y-125681657D01*
X154450266Y-125657847D01*
X154569314Y-125657847D01*
X154664552Y-125681657D01*
X154712171Y-125705466D01*
X154735980Y-125729276D01*
X154759790Y-125776895D01*
X154759790Y-125824514D01*
X154735980Y-125872133D01*
X154712171Y-125895942D01*
X154664552Y-125919752D01*
X154569314Y-125943561D01*
X154450266Y-125943561D01*
X154355028Y-125919752D01*
X154307409Y-125895942D01*
X154283600Y-125872133D01*
X154259790Y-125824514D01*
X153848571Y-126661028D02*
X153872380Y-126684838D01*
X153896190Y-126756266D01*
X153896190Y-126803885D01*
X153872380Y-126875314D01*
X153824761Y-126922933D01*
X153777142Y-126946742D01*
X153681904Y-126970552D01*
X153610476Y-126970552D01*
X153515238Y-126946742D01*
X153467619Y-126922933D01*
X153420000Y-126875314D01*
X153396190Y-126803885D01*
X153396190Y-126756266D01*
X153420000Y-126684838D01*
X153443809Y-126661028D01*
X153443809Y-126470552D02*
X153420000Y-126446742D01*
X153396190Y-126399123D01*
X153396190Y-126280076D01*
X153420000Y-126232457D01*
X153443809Y-126208647D01*
X153491428Y-126184838D01*
X153539047Y-126184838D01*
X153610476Y-126208647D01*
X153896190Y-126494361D01*
X153896190Y-126184838D01*
X153896190Y-125708647D02*
X153896190Y-125994361D01*
X153896190Y-125851504D02*
X153396190Y-125851504D01*
X153467619Y-125899123D01*
X153515238Y-125946742D01*
X153539047Y-125994361D01*
X152027771Y-131852171D02*
X152003961Y-131875980D01*
X151932533Y-131899790D01*
X151884914Y-131899790D01*
X151813485Y-131875980D01*
X151765866Y-131828361D01*
X151742057Y-131780742D01*
X151718247Y-131685504D01*
X151718247Y-131614076D01*
X151742057Y-131518838D01*
X151765866Y-131471219D01*
X151813485Y-131423600D01*
X151884914Y-131399790D01*
X151932533Y-131399790D01*
X152003961Y-131423600D01*
X152027771Y-131447409D01*
X152218247Y-131447409D02*
X152242057Y-131423600D01*
X152289676Y-131399790D01*
X152408723Y-131399790D01*
X152456342Y-131423600D01*
X152480152Y-131447409D01*
X152503961Y-131495028D01*
X152503961Y-131542647D01*
X152480152Y-131614076D01*
X152194438Y-131899790D01*
X152503961Y-131899790D01*
X152694438Y-131447409D02*
X152718247Y-131423600D01*
X152765866Y-131399790D01*
X152884914Y-131399790D01*
X152932533Y-131423600D01*
X152956342Y-131447409D01*
X152980152Y-131495028D01*
X152980152Y-131542647D01*
X152956342Y-131614076D01*
X152670628Y-131899790D01*
X152980152Y-131899790D01*
X151519771Y-127737371D02*
X151495961Y-127761180D01*
X151424533Y-127784990D01*
X151376914Y-127784990D01*
X151305485Y-127761180D01*
X151257866Y-127713561D01*
X151234057Y-127665942D01*
X151210247Y-127570704D01*
X151210247Y-127499276D01*
X151234057Y-127404038D01*
X151257866Y-127356419D01*
X151305485Y-127308800D01*
X151376914Y-127284990D01*
X151424533Y-127284990D01*
X151495961Y-127308800D01*
X151519771Y-127332609D01*
X151710247Y-127332609D02*
X151734057Y-127308800D01*
X151781676Y-127284990D01*
X151900723Y-127284990D01*
X151948342Y-127308800D01*
X151972152Y-127332609D01*
X151995961Y-127380228D01*
X151995961Y-127427847D01*
X151972152Y-127499276D01*
X151686438Y-127784990D01*
X151995961Y-127784990D01*
X152162628Y-127284990D02*
X152472152Y-127284990D01*
X152305485Y-127475466D01*
X152376914Y-127475466D01*
X152424533Y-127499276D01*
X152448342Y-127523085D01*
X152472152Y-127570704D01*
X152472152Y-127689752D01*
X152448342Y-127737371D01*
X152424533Y-127761180D01*
X152376914Y-127784990D01*
X152234057Y-127784990D01*
X152186438Y-127761180D01*
X152162628Y-127737371D01*
X154567771Y-132614171D02*
X154543961Y-132637980D01*
X154472533Y-132661790D01*
X154424914Y-132661790D01*
X154353485Y-132637980D01*
X154305866Y-132590361D01*
X154282057Y-132542742D01*
X154258247Y-132447504D01*
X154258247Y-132376076D01*
X154282057Y-132280838D01*
X154305866Y-132233219D01*
X154353485Y-132185600D01*
X154424914Y-132161790D01*
X154472533Y-132161790D01*
X154543961Y-132185600D01*
X154567771Y-132209409D01*
X154758247Y-132209409D02*
X154782057Y-132185600D01*
X154829676Y-132161790D01*
X154948723Y-132161790D01*
X154996342Y-132185600D01*
X155020152Y-132209409D01*
X155043961Y-132257028D01*
X155043961Y-132304647D01*
X155020152Y-132376076D01*
X154734438Y-132661790D01*
X155043961Y-132661790D01*
X155472533Y-132328457D02*
X155472533Y-132661790D01*
X155353485Y-132137980D02*
X155234438Y-132495123D01*
X155543961Y-132495123D01*
X136768571Y-121846971D02*
X136744761Y-121870780D01*
X136673333Y-121894590D01*
X136625714Y-121894590D01*
X136554285Y-121870780D01*
X136506666Y-121823161D01*
X136482857Y-121775542D01*
X136459047Y-121680304D01*
X136459047Y-121608876D01*
X136482857Y-121513638D01*
X136506666Y-121466019D01*
X136554285Y-121418400D01*
X136625714Y-121394590D01*
X136673333Y-121394590D01*
X136744761Y-121418400D01*
X136768571Y-121442209D01*
X136959047Y-121442209D02*
X136982857Y-121418400D01*
X137030476Y-121394590D01*
X137149523Y-121394590D01*
X137197142Y-121418400D01*
X137220952Y-121442209D01*
X137244761Y-121489828D01*
X137244761Y-121537447D01*
X137220952Y-121608876D01*
X136935238Y-121894590D01*
X137244761Y-121894590D01*
X137697142Y-121394590D02*
X137459047Y-121394590D01*
X137435238Y-121632685D01*
X137459047Y-121608876D01*
X137506666Y-121585066D01*
X137625714Y-121585066D01*
X137673333Y-121608876D01*
X137697142Y-121632685D01*
X137720952Y-121680304D01*
X137720952Y-121799352D01*
X137697142Y-121846971D01*
X137673333Y-121870780D01*
X137625714Y-121894590D01*
X137506666Y-121894590D01*
X137459047Y-121870780D01*
X137435238Y-121846971D01*
X145212571Y-113910228D02*
X145236380Y-113934038D01*
X145260190Y-114005466D01*
X145260190Y-114053085D01*
X145236380Y-114124514D01*
X145188761Y-114172133D01*
X145141142Y-114195942D01*
X145045904Y-114219752D01*
X144974476Y-114219752D01*
X144879238Y-114195942D01*
X144831619Y-114172133D01*
X144784000Y-114124514D01*
X144760190Y-114053085D01*
X144760190Y-114005466D01*
X144784000Y-113934038D01*
X144807809Y-113910228D01*
X144807809Y-113719752D02*
X144784000Y-113695942D01*
X144760190Y-113648323D01*
X144760190Y-113529276D01*
X144784000Y-113481657D01*
X144807809Y-113457847D01*
X144855428Y-113434038D01*
X144903047Y-113434038D01*
X144974476Y-113457847D01*
X145260190Y-113743561D01*
X145260190Y-113434038D01*
X144760190Y-113005466D02*
X144760190Y-113100704D01*
X144784000Y-113148323D01*
X144807809Y-113172133D01*
X144879238Y-113219752D01*
X144974476Y-113243561D01*
X145164952Y-113243561D01*
X145212571Y-113219752D01*
X145236380Y-113195942D01*
X145260190Y-113148323D01*
X145260190Y-113053085D01*
X145236380Y-113005466D01*
X145212571Y-112981657D01*
X145164952Y-112957847D01*
X145045904Y-112957847D01*
X144998285Y-112981657D01*
X144974476Y-113005466D01*
X144950666Y-113053085D01*
X144950666Y-113148323D01*
X144974476Y-113195942D01*
X144998285Y-113219752D01*
X145045904Y-113243561D01*
X138311771Y-106198171D02*
X138287961Y-106221980D01*
X138216533Y-106245790D01*
X138168914Y-106245790D01*
X138097485Y-106221980D01*
X138049866Y-106174361D01*
X138026057Y-106126742D01*
X138002247Y-106031504D01*
X138002247Y-105960076D01*
X138026057Y-105864838D01*
X138049866Y-105817219D01*
X138097485Y-105769600D01*
X138168914Y-105745790D01*
X138216533Y-105745790D01*
X138287961Y-105769600D01*
X138311771Y-105793409D01*
X138502247Y-105793409D02*
X138526057Y-105769600D01*
X138573676Y-105745790D01*
X138692723Y-105745790D01*
X138740342Y-105769600D01*
X138764152Y-105793409D01*
X138787961Y-105841028D01*
X138787961Y-105888647D01*
X138764152Y-105960076D01*
X138478438Y-106245790D01*
X138787961Y-106245790D01*
X138954628Y-105745790D02*
X139287961Y-105745790D01*
X139073676Y-106245790D01*
X155548876Y-126524533D02*
X155786971Y-126524533D01*
X155501257Y-126667390D02*
X155667923Y-126167390D01*
X155834590Y-126667390D01*
X156286971Y-126619771D02*
X156263161Y-126643580D01*
X156191733Y-126667390D01*
X156144114Y-126667390D01*
X156072685Y-126643580D01*
X156025066Y-126595961D01*
X156001257Y-126548342D01*
X155977447Y-126453104D01*
X155977447Y-126381676D01*
X156001257Y-126286438D01*
X156025066Y-126238819D01*
X156072685Y-126191200D01*
X156144114Y-126167390D01*
X156191733Y-126167390D01*
X156263161Y-126191200D01*
X156286971Y-126215009D01*
X156429828Y-126167390D02*
X156715542Y-126167390D01*
X156572685Y-126667390D02*
X156572685Y-126167390D01*
X142715466Y-130223390D02*
X142477371Y-130223390D01*
X142477371Y-129723390D01*
X143144038Y-130223390D02*
X142858323Y-130223390D01*
X143001180Y-130223390D02*
X143001180Y-129723390D01*
X142953561Y-129794819D01*
X142905942Y-129842438D01*
X142858323Y-129866247D01*
X144442666Y-108836590D02*
X144204571Y-108836590D01*
X144204571Y-108336590D01*
X144585523Y-108384209D02*
X144609333Y-108360400D01*
X144656952Y-108336590D01*
X144776000Y-108336590D01*
X144823619Y-108360400D01*
X144847428Y-108384209D01*
X144871238Y-108431828D01*
X144871238Y-108479447D01*
X144847428Y-108550876D01*
X144561714Y-108836590D01*
X144871238Y-108836590D01*
X146830952Y-127517290D02*
X146830952Y-127017290D01*
X147021428Y-127017290D01*
X147069047Y-127041100D01*
X147092857Y-127064909D01*
X147116666Y-127112528D01*
X147116666Y-127183957D01*
X147092857Y-127231576D01*
X147069047Y-127255385D01*
X147021428Y-127279195D01*
X146830952Y-127279195D01*
X147592857Y-127517290D02*
X147307142Y-127517290D01*
X147450000Y-127517290D02*
X147450000Y-127017290D01*
X147402380Y-127088719D01*
X147354761Y-127136338D01*
X147307142Y-127160147D01*
X143373809Y-109947619D02*
X143350000Y-109995238D01*
X143302380Y-110042857D01*
X143230952Y-110114285D01*
X143207142Y-110161904D01*
X143207142Y-110209523D01*
X143326190Y-110185714D02*
X143302380Y-110233333D01*
X143254761Y-110280952D01*
X143159523Y-110304761D01*
X142992857Y-110304761D01*
X142897619Y-110280952D01*
X142850000Y-110233333D01*
X142826190Y-110185714D01*
X142826190Y-110090476D01*
X142850000Y-110042857D01*
X142897619Y-109995238D01*
X142992857Y-109971428D01*
X143159523Y-109971428D01*
X143254761Y-109995238D01*
X143302380Y-110042857D01*
X143326190Y-110090476D01*
X143326190Y-110185714D01*
X142826190Y-109804761D02*
X142826190Y-109495238D01*
X143016666Y-109661904D01*
X143016666Y-109590476D01*
X143040476Y-109542857D01*
X143064285Y-109519047D01*
X143111904Y-109495238D01*
X143230952Y-109495238D01*
X143278571Y-109519047D01*
X143302380Y-109542857D01*
X143326190Y-109590476D01*
X143326190Y-109733333D01*
X143302380Y-109780952D01*
X143278571Y-109804761D01*
X143373809Y-113447619D02*
X143350000Y-113495238D01*
X143302380Y-113542857D01*
X143230952Y-113614285D01*
X143207142Y-113661904D01*
X143207142Y-113709523D01*
X143326190Y-113685714D02*
X143302380Y-113733333D01*
X143254761Y-113780952D01*
X143159523Y-113804761D01*
X142992857Y-113804761D01*
X142897619Y-113780952D01*
X142850000Y-113733333D01*
X142826190Y-113685714D01*
X142826190Y-113590476D01*
X142850000Y-113542857D01*
X142897619Y-113495238D01*
X142992857Y-113471428D01*
X143159523Y-113471428D01*
X143254761Y-113495238D01*
X143302380Y-113542857D01*
X143326190Y-113590476D01*
X143326190Y-113685714D01*
X142992857Y-113042857D02*
X143326190Y-113042857D01*
X142802380Y-113161904D02*
X143159523Y-113280952D01*
X143159523Y-112971428D01*
X145666590Y-115196133D02*
X145428495Y-115362800D01*
X145666590Y-115481847D02*
X145166590Y-115481847D01*
X145166590Y-115291371D01*
X145190400Y-115243752D01*
X145214209Y-115219942D01*
X145261828Y-115196133D01*
X145333257Y-115196133D01*
X145380876Y-115219942D01*
X145404685Y-115243752D01*
X145428495Y-115291371D01*
X145428495Y-115481847D01*
X145666590Y-114719942D02*
X145666590Y-115005657D01*
X145666590Y-114862800D02*
X145166590Y-114862800D01*
X145238019Y-114910419D01*
X145285638Y-114958038D01*
X145309447Y-115005657D01*
X144782266Y-127780190D02*
X144615600Y-127542095D01*
X144496552Y-127780190D02*
X144496552Y-127280190D01*
X144687028Y-127280190D01*
X144734647Y-127304000D01*
X144758457Y-127327809D01*
X144782266Y-127375428D01*
X144782266Y-127446857D01*
X144758457Y-127494476D01*
X144734647Y-127518285D01*
X144687028Y-127542095D01*
X144496552Y-127542095D01*
X144972742Y-127327809D02*
X144996552Y-127304000D01*
X145044171Y-127280190D01*
X145163219Y-127280190D01*
X145210838Y-127304000D01*
X145234647Y-127327809D01*
X145258457Y-127375428D01*
X145258457Y-127423047D01*
X145234647Y-127494476D01*
X144948933Y-127780190D01*
X145258457Y-127780190D01*
X146106990Y-121196133D02*
X145868895Y-121362800D01*
X146106990Y-121481847D02*
X145606990Y-121481847D01*
X145606990Y-121291371D01*
X145630800Y-121243752D01*
X145654609Y-121219942D01*
X145702228Y-121196133D01*
X145773657Y-121196133D01*
X145821276Y-121219942D01*
X145845085Y-121243752D01*
X145868895Y-121291371D01*
X145868895Y-121481847D01*
X145606990Y-121029466D02*
X145606990Y-120719942D01*
X145797466Y-120886609D01*
X145797466Y-120815180D01*
X145821276Y-120767561D01*
X145845085Y-120743752D01*
X145892704Y-120719942D01*
X146011752Y-120719942D01*
X146059371Y-120743752D01*
X146083180Y-120767561D01*
X146106990Y-120815180D01*
X146106990Y-120958038D01*
X146083180Y-121005657D01*
X146059371Y-121029466D01*
X144137866Y-125346590D02*
X143971200Y-125108495D01*
X143852152Y-125346590D02*
X143852152Y-124846590D01*
X144042628Y-124846590D01*
X144090247Y-124870400D01*
X144114057Y-124894209D01*
X144137866Y-124941828D01*
X144137866Y-125013257D01*
X144114057Y-125060876D01*
X144090247Y-125084685D01*
X144042628Y-125108495D01*
X143852152Y-125108495D01*
X144566438Y-125013257D02*
X144566438Y-125346590D01*
X144447390Y-124822780D02*
X144328342Y-125179923D01*
X144637866Y-125179923D01*
X154755066Y-123670190D02*
X154588400Y-123432095D01*
X154469352Y-123670190D02*
X154469352Y-123170190D01*
X154659828Y-123170190D01*
X154707447Y-123194000D01*
X154731257Y-123217809D01*
X154755066Y-123265428D01*
X154755066Y-123336857D01*
X154731257Y-123384476D01*
X154707447Y-123408285D01*
X154659828Y-123432095D01*
X154469352Y-123432095D01*
X155207447Y-123170190D02*
X154969352Y-123170190D01*
X154945542Y-123408285D01*
X154969352Y-123384476D01*
X155016971Y-123360666D01*
X155136019Y-123360666D01*
X155183638Y-123384476D01*
X155207447Y-123408285D01*
X155231257Y-123455904D01*
X155231257Y-123574952D01*
X155207447Y-123622571D01*
X155183638Y-123646380D01*
X155136019Y-123670190D01*
X155016971Y-123670190D01*
X154969352Y-123646380D01*
X154945542Y-123622571D01*
X151656266Y-130375790D02*
X151489600Y-130137695D01*
X151370552Y-130375790D02*
X151370552Y-129875790D01*
X151561028Y-129875790D01*
X151608647Y-129899600D01*
X151632457Y-129923409D01*
X151656266Y-129971028D01*
X151656266Y-130042457D01*
X151632457Y-130090076D01*
X151608647Y-130113885D01*
X151561028Y-130137695D01*
X151370552Y-130137695D01*
X152084838Y-129875790D02*
X151989600Y-129875790D01*
X151941980Y-129899600D01*
X151918171Y-129923409D01*
X151870552Y-129994838D01*
X151846742Y-130090076D01*
X151846742Y-130280552D01*
X151870552Y-130328171D01*
X151894361Y-130351980D01*
X151941980Y-130375790D01*
X152037219Y-130375790D01*
X152084838Y-130351980D01*
X152108647Y-130328171D01*
X152132457Y-130280552D01*
X152132457Y-130161504D01*
X152108647Y-130113885D01*
X152084838Y-130090076D01*
X152037219Y-130066266D01*
X151941980Y-130066266D01*
X151894361Y-130090076D01*
X151870552Y-130113885D01*
X151846742Y-130161504D01*
X151554666Y-128750190D02*
X151388000Y-128512095D01*
X151268952Y-128750190D02*
X151268952Y-128250190D01*
X151459428Y-128250190D01*
X151507047Y-128274000D01*
X151530857Y-128297809D01*
X151554666Y-128345428D01*
X151554666Y-128416857D01*
X151530857Y-128464476D01*
X151507047Y-128488285D01*
X151459428Y-128512095D01*
X151268952Y-128512095D01*
X151721333Y-128250190D02*
X152054666Y-128250190D01*
X151840380Y-128750190D01*
X139819866Y-108480990D02*
X139653200Y-108242895D01*
X139534152Y-108480990D02*
X139534152Y-107980990D01*
X139724628Y-107980990D01*
X139772247Y-108004800D01*
X139796057Y-108028609D01*
X139819866Y-108076228D01*
X139819866Y-108147657D01*
X139796057Y-108195276D01*
X139772247Y-108219085D01*
X139724628Y-108242895D01*
X139534152Y-108242895D01*
X140057961Y-108480990D02*
X140153200Y-108480990D01*
X140200819Y-108457180D01*
X140224628Y-108433371D01*
X140272247Y-108361942D01*
X140296057Y-108266704D01*
X140296057Y-108076228D01*
X140272247Y-108028609D01*
X140248438Y-108004800D01*
X140200819Y-107980990D01*
X140105580Y-107980990D01*
X140057961Y-108004800D01*
X140034152Y-108028609D01*
X140010342Y-108076228D01*
X140010342Y-108195276D01*
X140034152Y-108242895D01*
X140057961Y-108266704D01*
X140105580Y-108290514D01*
X140200819Y-108290514D01*
X140248438Y-108266704D01*
X140272247Y-108242895D01*
X140296057Y-108195276D01*
X142020171Y-116405790D02*
X141853504Y-116167695D01*
X141734457Y-116405790D02*
X141734457Y-115905790D01*
X141924933Y-115905790D01*
X141972552Y-115929600D01*
X141996361Y-115953409D01*
X142020171Y-116001028D01*
X142020171Y-116072457D01*
X141996361Y-116120076D01*
X141972552Y-116143885D01*
X141924933Y-116167695D01*
X141734457Y-116167695D01*
X142496361Y-116405790D02*
X142210647Y-116405790D01*
X142353504Y-116405790D02*
X142353504Y-115905790D01*
X142305885Y-115977219D01*
X142258266Y-116024838D01*
X142210647Y-116048647D01*
X142805885Y-115905790D02*
X142853504Y-115905790D01*
X142901123Y-115929600D01*
X142924933Y-115953409D01*
X142948742Y-116001028D01*
X142972552Y-116096266D01*
X142972552Y-116215314D01*
X142948742Y-116310552D01*
X142924933Y-116358171D01*
X142901123Y-116381980D01*
X142853504Y-116405790D01*
X142805885Y-116405790D01*
X142758266Y-116381980D01*
X142734457Y-116358171D01*
X142710647Y-116310552D01*
X142686838Y-116215314D01*
X142686838Y-116096266D01*
X142710647Y-116001028D01*
X142734457Y-115953409D01*
X142758266Y-115929600D01*
X142805885Y-115905790D01*
X155174190Y-116357352D02*
X155578952Y-116357352D01*
X155626571Y-116333542D01*
X155650380Y-116309733D01*
X155674190Y-116262114D01*
X155674190Y-116166876D01*
X155650380Y-116119257D01*
X155626571Y-116095447D01*
X155578952Y-116071638D01*
X155174190Y-116071638D01*
X155674190Y-115571638D02*
X155674190Y-115857352D01*
X155674190Y-115714495D02*
X155174190Y-115714495D01*
X155245619Y-115762114D01*
X155293238Y-115809733D01*
X155317047Y-115857352D01*
X154005790Y-130327352D02*
X154410552Y-130327352D01*
X154458171Y-130303542D01*
X154481980Y-130279733D01*
X154505790Y-130232114D01*
X154505790Y-130136876D01*
X154481980Y-130089257D01*
X154458171Y-130065447D01*
X154410552Y-130041638D01*
X154005790Y-130041638D01*
X154005790Y-129851161D02*
X154005790Y-129541638D01*
X154196266Y-129708304D01*
X154196266Y-129636876D01*
X154220076Y-129589257D01*
X154243885Y-129565447D01*
X154291504Y-129541638D01*
X154410552Y-129541638D01*
X154458171Y-129565447D01*
X154481980Y-129589257D01*
X154505790Y-129636876D01*
X154505790Y-129779733D01*
X154481980Y-129827352D01*
X154458171Y-129851161D01*
X138410190Y-115849352D02*
X138814952Y-115849352D01*
X138862571Y-115825542D01*
X138886380Y-115801733D01*
X138910190Y-115754114D01*
X138910190Y-115658876D01*
X138886380Y-115611257D01*
X138862571Y-115587447D01*
X138814952Y-115563638D01*
X138410190Y-115563638D01*
X138576857Y-115111257D02*
X138910190Y-115111257D01*
X138386380Y-115230304D02*
X138743523Y-115349352D01*
X138743523Y-115039828D01*
X147599447Y-105136190D02*
X147599447Y-105540952D01*
X147623257Y-105588571D01*
X147647066Y-105612380D01*
X147694685Y-105636190D01*
X147789923Y-105636190D01*
X147837542Y-105612380D01*
X147861352Y-105588571D01*
X147885161Y-105540952D01*
X147885161Y-105136190D01*
X148361352Y-105136190D02*
X148123257Y-105136190D01*
X148099447Y-105374285D01*
X148123257Y-105350476D01*
X148170876Y-105326666D01*
X148289923Y-105326666D01*
X148337542Y-105350476D01*
X148361352Y-105374285D01*
X148385161Y-105421904D01*
X148385161Y-105540952D01*
X148361352Y-105588571D01*
X148337542Y-105612380D01*
X148289923Y-105636190D01*
X148170876Y-105636190D01*
X148123257Y-105612380D01*
X148099447Y-105588571D01*
X139172190Y-123824952D02*
X139576952Y-123824952D01*
X139624571Y-123801142D01*
X139648380Y-123777333D01*
X139672190Y-123729714D01*
X139672190Y-123634476D01*
X139648380Y-123586857D01*
X139624571Y-123563047D01*
X139576952Y-123539238D01*
X139172190Y-123539238D01*
X139219809Y-123324952D02*
X139196000Y-123301142D01*
X139172190Y-123253523D01*
X139172190Y-123134476D01*
X139196000Y-123086857D01*
X139219809Y-123063047D01*
X139267428Y-123039238D01*
X139315047Y-123039238D01*
X139386476Y-123063047D01*
X139672190Y-123348761D01*
X139672190Y-123039238D01*
X138778571Y-132509390D02*
X138611904Y-132271295D01*
X138492857Y-132509390D02*
X138492857Y-132009390D01*
X138683333Y-132009390D01*
X138730952Y-132033200D01*
X138754761Y-132057009D01*
X138778571Y-132104628D01*
X138778571Y-132176057D01*
X138754761Y-132223676D01*
X138730952Y-132247485D01*
X138683333Y-132271295D01*
X138492857Y-132271295D01*
X139254761Y-132509390D02*
X138969047Y-132509390D01*
X139111904Y-132509390D02*
X139111904Y-132009390D01*
X139064285Y-132080819D01*
X139016666Y-132128438D01*
X138969047Y-132152247D01*
X139730952Y-132509390D02*
X139445238Y-132509390D01*
X139588095Y-132509390D02*
X139588095Y-132009390D01*
X139540476Y-132080819D01*
X139492857Y-132128438D01*
X139445238Y-132152247D01*
X156080590Y-110608228D02*
X155842495Y-110774895D01*
X156080590Y-110893942D02*
X155580590Y-110893942D01*
X155580590Y-110703466D01*
X155604400Y-110655847D01*
X155628209Y-110632038D01*
X155675828Y-110608228D01*
X155747257Y-110608228D01*
X155794876Y-110632038D01*
X155818685Y-110655847D01*
X155842495Y-110703466D01*
X155842495Y-110893942D01*
X156080590Y-110132038D02*
X156080590Y-110417752D01*
X156080590Y-110274895D02*
X155580590Y-110274895D01*
X155652019Y-110322514D01*
X155699638Y-110370133D01*
X155723447Y-110417752D01*
X155628209Y-109941561D02*
X155604400Y-109917752D01*
X155580590Y-109870133D01*
X155580590Y-109751085D01*
X155604400Y-109703466D01*
X155628209Y-109679657D01*
X155675828Y-109655847D01*
X155723447Y-109655847D01*
X155794876Y-109679657D01*
X156080590Y-109965371D01*
X156080590Y-109655847D01*
X156080590Y-108931828D02*
X155842495Y-109098495D01*
X156080590Y-109217542D02*
X155580590Y-109217542D01*
X155580590Y-109027066D01*
X155604400Y-108979447D01*
X155628209Y-108955638D01*
X155675828Y-108931828D01*
X155747257Y-108931828D01*
X155794876Y-108955638D01*
X155818685Y-108979447D01*
X155842495Y-109027066D01*
X155842495Y-109217542D01*
X156080590Y-108455638D02*
X156080590Y-108741352D01*
X156080590Y-108598495D02*
X155580590Y-108598495D01*
X155652019Y-108646114D01*
X155699638Y-108693733D01*
X155723447Y-108741352D01*
X155580590Y-108288971D02*
X155580590Y-107979447D01*
X155771066Y-108146114D01*
X155771066Y-108074685D01*
X155794876Y-108027066D01*
X155818685Y-108003257D01*
X155866304Y-107979447D01*
X155985352Y-107979447D01*
X156032971Y-108003257D01*
X156056780Y-108027066D01*
X156080590Y-108074685D01*
X156080590Y-108217542D01*
X156056780Y-108265161D01*
X156032971Y-108288971D01*
X140733333Y-132509390D02*
X140733333Y-132009390D01*
X140923809Y-132009390D01*
X140971428Y-132033200D01*
X140995238Y-132057009D01*
X141019047Y-132104628D01*
X141019047Y-132176057D01*
X140995238Y-132223676D01*
X140971428Y-132247485D01*
X140923809Y-132271295D01*
X140733333Y-132271295D01*
X141185714Y-132009390D02*
X141304761Y-132509390D01*
X141400000Y-132152247D01*
X141495238Y-132509390D01*
X141614285Y-132009390D01*
X142090476Y-132509390D02*
X141923809Y-132271295D01*
X141804761Y-132509390D02*
X141804761Y-132009390D01*
X141995238Y-132009390D01*
X142042857Y-132033200D01*
X142066666Y-132057009D01*
X142090476Y-132104628D01*
X142090476Y-132176057D01*
X142066666Y-132223676D01*
X142042857Y-132247485D01*
X141995238Y-132271295D01*
X141804761Y-132271295D01*
X156337047Y-113314990D02*
X156622761Y-113314990D01*
X156479904Y-113814990D02*
X156479904Y-113314990D01*
X156765619Y-113791180D02*
X156837047Y-113814990D01*
X156956095Y-113814990D01*
X157003714Y-113791180D01*
X157027523Y-113767371D01*
X157051333Y-113719752D01*
X157051333Y-113672133D01*
X157027523Y-113624514D01*
X157003714Y-113600704D01*
X156956095Y-113576895D01*
X156860857Y-113553085D01*
X156813238Y-113529276D01*
X156789428Y-113505466D01*
X156765619Y-113457847D01*
X156765619Y-113410228D01*
X156789428Y-113362609D01*
X156813238Y-113338800D01*
X156860857Y-113314990D01*
X156979904Y-113314990D01*
X157051333Y-113338800D01*
X156134666Y-106753790D02*
X156134666Y-106253790D01*
X156253714Y-106253790D01*
X156325142Y-106277600D01*
X156372761Y-106325219D01*
X156396571Y-106372838D01*
X156420380Y-106468076D01*
X156420380Y-106539504D01*
X156396571Y-106634742D01*
X156372761Y-106682361D01*
X156325142Y-106729980D01*
X156253714Y-106753790D01*
X156134666Y-106753790D01*
X156634666Y-106253790D02*
X156634666Y-106658552D01*
X156658476Y-106706171D01*
X156682285Y-106729980D01*
X156729904Y-106753790D01*
X156825142Y-106753790D01*
X156872761Y-106729980D01*
X156896571Y-106706171D01*
X156920380Y-106658552D01*
X156920380Y-106253790D01*
X157087047Y-106253790D02*
X157372761Y-106253790D01*
X157229904Y-106753790D02*
X157229904Y-106253790D01*
X140518095Y-119618095D02*
X140756190Y-119618095D01*
X140256190Y-119784761D02*
X140518095Y-119618095D01*
X140256190Y-119451428D01*
X140756190Y-119022857D02*
X140756190Y-119308571D01*
X140756190Y-119165714D02*
X140256190Y-119165714D01*
X140327619Y-119213333D01*
X140375238Y-119260952D01*
X140399047Y-119308571D01*
X139316190Y-113261428D02*
X139078095Y-113428095D01*
X139316190Y-113547142D02*
X138816190Y-113547142D01*
X138816190Y-113356666D01*
X138840000Y-113309047D01*
X138863809Y-113285238D01*
X138911428Y-113261428D01*
X138982857Y-113261428D01*
X139030476Y-113285238D01*
X139054285Y-113309047D01*
X139078095Y-113356666D01*
X139078095Y-113547142D01*
X139316190Y-112785238D02*
X139316190Y-113070952D01*
X139316190Y-112928095D02*
X138816190Y-112928095D01*
X138887619Y-112975714D01*
X138935238Y-113023333D01*
X138959047Y-113070952D01*
X138816190Y-112332857D02*
X138816190Y-112570952D01*
X139054285Y-112594761D01*
X139030476Y-112570952D01*
X139006666Y-112523333D01*
X139006666Y-112404285D01*
X139030476Y-112356666D01*
X139054285Y-112332857D01*
X139101904Y-112309047D01*
X139220952Y-112309047D01*
X139268571Y-112332857D01*
X139292380Y-112356666D01*
X139316190Y-112404285D01*
X139316190Y-112523333D01*
X139292380Y-112570952D01*
X139268571Y-112594761D01*
X137905371Y-110004990D02*
X137738704Y-109766895D01*
X137619657Y-110004990D02*
X137619657Y-109504990D01*
X137810133Y-109504990D01*
X137857752Y-109528800D01*
X137881561Y-109552609D01*
X137905371Y-109600228D01*
X137905371Y-109671657D01*
X137881561Y-109719276D01*
X137857752Y-109743085D01*
X137810133Y-109766895D01*
X137619657Y-109766895D01*
X138381561Y-110004990D02*
X138095847Y-110004990D01*
X138238704Y-110004990D02*
X138238704Y-109504990D01*
X138191085Y-109576419D01*
X138143466Y-109624038D01*
X138095847Y-109647847D01*
X138810133Y-109671657D02*
X138810133Y-110004990D01*
X138691085Y-109481180D02*
X138572038Y-109838323D01*
X138881561Y-109838323D01*
X152321390Y-123984533D02*
X152321390Y-124222628D01*
X151821390Y-124222628D01*
X151821390Y-123865485D02*
X151821390Y-123555961D01*
X152011866Y-123722628D01*
X152011866Y-123651200D01*
X152035676Y-123603580D01*
X152059485Y-123579771D01*
X152107104Y-123555961D01*
X152226152Y-123555961D01*
X152273771Y-123579771D01*
X152297580Y-123603580D01*
X152321390Y-123651200D01*
X152321390Y-123794057D01*
X152297580Y-123841676D01*
X152273771Y-123865485D01*
X149784571Y-126711828D02*
X149808380Y-126735638D01*
X149832190Y-126807066D01*
X149832190Y-126854685D01*
X149808380Y-126926114D01*
X149760761Y-126973733D01*
X149713142Y-126997542D01*
X149617904Y-127021352D01*
X149546476Y-127021352D01*
X149451238Y-126997542D01*
X149403619Y-126973733D01*
X149356000Y-126926114D01*
X149332190Y-126854685D01*
X149332190Y-126807066D01*
X149356000Y-126735638D01*
X149379809Y-126711828D01*
X149832190Y-126235638D02*
X149832190Y-126521352D01*
X149832190Y-126378495D02*
X149332190Y-126378495D01*
X149403619Y-126426114D01*
X149451238Y-126473733D01*
X149475047Y-126521352D01*
X149832190Y-125997542D02*
X149832190Y-125902304D01*
X149808380Y-125854685D01*
X149784571Y-125830876D01*
X149713142Y-125783257D01*
X149617904Y-125759447D01*
X149427428Y-125759447D01*
X149379809Y-125783257D01*
X149356000Y-125807066D01*
X149332190Y-125854685D01*
X149332190Y-125949923D01*
X149356000Y-125997542D01*
X149379809Y-126021352D01*
X149427428Y-126045161D01*
X149546476Y-126045161D01*
X149594095Y-126021352D01*
X149617904Y-125997542D01*
X149641714Y-125949923D01*
X149641714Y-125854685D01*
X149617904Y-125807066D01*
X149594095Y-125783257D01*
X149546476Y-125759447D01*
X144137866Y-124536971D02*
X144114057Y-124560780D01*
X144042628Y-124584590D01*
X143995009Y-124584590D01*
X143923580Y-124560780D01*
X143875961Y-124513161D01*
X143852152Y-124465542D01*
X143828342Y-124370304D01*
X143828342Y-124298876D01*
X143852152Y-124203638D01*
X143875961Y-124156019D01*
X143923580Y-124108400D01*
X143995009Y-124084590D01*
X144042628Y-124084590D01*
X144114057Y-124108400D01*
X144137866Y-124132209D01*
X144566438Y-124084590D02*
X144471200Y-124084590D01*
X144423580Y-124108400D01*
X144399771Y-124132209D01*
X144352152Y-124203638D01*
X144328342Y-124298876D01*
X144328342Y-124489352D01*
X144352152Y-124536971D01*
X144375961Y-124560780D01*
X144423580Y-124584590D01*
X144518819Y-124584590D01*
X144566438Y-124560780D01*
X144590247Y-124536971D01*
X144614057Y-124489352D01*
X144614057Y-124370304D01*
X144590247Y-124322685D01*
X144566438Y-124298876D01*
X144518819Y-124275066D01*
X144423580Y-124275066D01*
X144375961Y-124298876D01*
X144352152Y-124322685D01*
X144328342Y-124370304D01*
X137686266Y-130429771D02*
X137662457Y-130453580D01*
X137591028Y-130477390D01*
X137543409Y-130477390D01*
X137471980Y-130453580D01*
X137424361Y-130405961D01*
X137400552Y-130358342D01*
X137376742Y-130263104D01*
X137376742Y-130191676D01*
X137400552Y-130096438D01*
X137424361Y-130048819D01*
X137471980Y-130001200D01*
X137543409Y-129977390D01*
X137591028Y-129977390D01*
X137662457Y-130001200D01*
X137686266Y-130025009D01*
X137924361Y-130477390D02*
X138019600Y-130477390D01*
X138067219Y-130453580D01*
X138091028Y-130429771D01*
X138138647Y-130358342D01*
X138162457Y-130263104D01*
X138162457Y-130072628D01*
X138138647Y-130025009D01*
X138114838Y-130001200D01*
X138067219Y-129977390D01*
X137971980Y-129977390D01*
X137924361Y-130001200D01*
X137900552Y-130025009D01*
X137876742Y-130072628D01*
X137876742Y-130191676D01*
X137900552Y-130239295D01*
X137924361Y-130263104D01*
X137971980Y-130286914D01*
X138067219Y-130286914D01*
X138114838Y-130263104D01*
X138138647Y-130239295D01*
X138162457Y-130191676D01*
X146380971Y-105883828D02*
X146404780Y-105907638D01*
X146428590Y-105979066D01*
X146428590Y-106026685D01*
X146404780Y-106098114D01*
X146357161Y-106145733D01*
X146309542Y-106169542D01*
X146214304Y-106193352D01*
X146142876Y-106193352D01*
X146047638Y-106169542D01*
X146000019Y-106145733D01*
X145952400Y-106098114D01*
X145928590Y-106026685D01*
X145928590Y-105979066D01*
X145952400Y-105907638D01*
X145976209Y-105883828D01*
X146428590Y-105407638D02*
X146428590Y-105693352D01*
X146428590Y-105550495D02*
X145928590Y-105550495D01*
X146000019Y-105598114D01*
X146047638Y-105645733D01*
X146071447Y-105693352D01*
X145928590Y-104979066D02*
X145928590Y-105074304D01*
X145952400Y-105121923D01*
X145976209Y-105145733D01*
X146047638Y-105193352D01*
X146142876Y-105217161D01*
X146333352Y-105217161D01*
X146380971Y-105193352D01*
X146404780Y-105169542D01*
X146428590Y-105121923D01*
X146428590Y-105026685D01*
X146404780Y-104979066D01*
X146380971Y-104955257D01*
X146333352Y-104931447D01*
X146214304Y-104931447D01*
X146166685Y-104955257D01*
X146142876Y-104979066D01*
X146119066Y-105026685D01*
X146119066Y-105121923D01*
X146142876Y-105169542D01*
X146166685Y-105193352D01*
X146214304Y-105217161D01*
X145361790Y-105883828D02*
X145123695Y-106050495D01*
X145361790Y-106169542D02*
X144861790Y-106169542D01*
X144861790Y-105979066D01*
X144885600Y-105931447D01*
X144909409Y-105907638D01*
X144957028Y-105883828D01*
X145028457Y-105883828D01*
X145076076Y-105907638D01*
X145099885Y-105931447D01*
X145123695Y-105979066D01*
X145123695Y-106169542D01*
X145361790Y-105407638D02*
X145361790Y-105693352D01*
X145361790Y-105550495D02*
X144861790Y-105550495D01*
X144933219Y-105598114D01*
X144980838Y-105645733D01*
X145004647Y-105693352D01*
X144861790Y-105240971D02*
X144861790Y-104907638D01*
X145361790Y-105121923D01*
D12*
X142997600Y-126307836D02*
X142997600Y-126092164D01*
X143717600Y-126307836D02*
X143717600Y-126092164D01*
X143657836Y-116640000D02*
X143442164Y-116640000D01*
X143657836Y-117360000D02*
X143442164Y-117360000D01*
X142692164Y-122140000D02*
X142907836Y-122140000D01*
X142692164Y-122860000D02*
X142907836Y-122860000D01*
X142007836Y-118660000D02*
X141792164Y-118660000D01*
X142007836Y-117940000D02*
X141792164Y-117940000D01*
X145657836Y-123260000D02*
X145442164Y-123260000D01*
X145657836Y-122540000D02*
X145442164Y-122540000D01*
X156092164Y-121240000D02*
X156307836Y-121240000D01*
X156092164Y-121960000D02*
X156307836Y-121960000D01*
X156092164Y-123160000D02*
X156307836Y-123160000D01*
X156092164Y-122440000D02*
X156307836Y-122440000D01*
X142489800Y-129154200D02*
X142489800Y-127284200D01*
X142489800Y-127284200D02*
X138404800Y-127284200D01*
X138404800Y-129154200D02*
X142489800Y-129154200D01*
X140342164Y-122169600D02*
X140557836Y-122169600D01*
X140342164Y-122889600D02*
X140557836Y-122889600D01*
X146940000Y-124792164D02*
X146940000Y-125007836D01*
X147660000Y-124792164D02*
X147660000Y-125007836D01*
X146907836Y-114140000D02*
X146692164Y-114140000D01*
X146907836Y-114860000D02*
X146692164Y-114860000D01*
X138982300Y-125819726D02*
X138982300Y-121734726D01*
X138982300Y-121734726D02*
X137112300Y-121734726D01*
X137112300Y-121734726D02*
X137112300Y-125819726D01*
X144481436Y-118724000D02*
X144265764Y-118724000D01*
X144481436Y-118004000D02*
X144265764Y-118004000D01*
X150440000Y-125192164D02*
X150440000Y-125407836D01*
X151160000Y-125192164D02*
X151160000Y-125407836D01*
X156092164Y-120760000D02*
X156307836Y-120760000D01*
X156092164Y-120040000D02*
X156307836Y-120040000D01*
X154960000Y-124807836D02*
X154960000Y-124592164D01*
X154240000Y-124807836D02*
X154240000Y-124592164D01*
X153760000Y-124807836D02*
X153760000Y-124592164D01*
X153040000Y-124807836D02*
X153040000Y-124592164D01*
X152692164Y-131160000D02*
X152907836Y-131160000D01*
X152692164Y-130440000D02*
X152907836Y-130440000D01*
X152642164Y-126540000D02*
X152857836Y-126540000D01*
X152642164Y-127260000D02*
X152857836Y-127260000D01*
X155307836Y-131860000D02*
X155092164Y-131860000D01*
X155307836Y-131140000D02*
X155092164Y-131140000D01*
X138537836Y-121568800D02*
X138322164Y-121568800D01*
X138537836Y-120848800D02*
X138322164Y-120848800D01*
X144505000Y-112617364D02*
X144505000Y-112833036D01*
X143785000Y-112617364D02*
X143785000Y-112833036D01*
X144085000Y-107635000D02*
X144085000Y-105765000D01*
X144085000Y-105765000D02*
X140000000Y-105765000D01*
X140000000Y-107635000D02*
X144085000Y-107635000D01*
D13*
X155160000Y-125679200D02*
G75*
G03*
X155160000Y-125679200I-50000J0D01*
G01*
D12*
X145500000Y-128091100D02*
X145950000Y-128091100D01*
X151100000Y-130491100D02*
X151100000Y-128641100D01*
X151100000Y-128641100D02*
X150650000Y-128641100D01*
X151100000Y-133041100D02*
X151100000Y-132791100D01*
X143300000Y-128641100D02*
X143750000Y-128641100D01*
X143300000Y-133041100D02*
X143300000Y-132791100D01*
X145500000Y-128091100D02*
X145500000Y-128541100D01*
X143300000Y-130491100D02*
X143300000Y-128641100D01*
X142560000Y-109520000D02*
X140400000Y-109520000D01*
X142560000Y-112680000D02*
X141100000Y-112680000D01*
X142560000Y-109520000D02*
X142560000Y-110450000D01*
X142560000Y-112680000D02*
X142560000Y-111750000D01*
X142560000Y-116180000D02*
X142560000Y-115250000D01*
X142560000Y-113020000D02*
X142560000Y-113950000D01*
X142560000Y-113020000D02*
X140400000Y-113020000D01*
X142560000Y-116180000D02*
X141100000Y-116180000D01*
X145120000Y-116803641D02*
X145120000Y-116496359D01*
X145880000Y-116803641D02*
X145880000Y-116496359D01*
X144778759Y-127075200D02*
X145086041Y-127075200D01*
X144778759Y-126315200D02*
X145086041Y-126315200D01*
X145363200Y-120953559D02*
X145363200Y-121260841D01*
X144603200Y-120953559D02*
X144603200Y-121260841D01*
X145703641Y-125020000D02*
X145396359Y-125020000D01*
X145703641Y-125780000D02*
X145396359Y-125780000D01*
X156046359Y-124380000D02*
X156353641Y-124380000D01*
X156046359Y-123620000D02*
X156353641Y-123620000D01*
X153153641Y-129120000D02*
X152846359Y-129120000D01*
X153153641Y-129880000D02*
X152846359Y-129880000D01*
X153153641Y-128580000D02*
X152846359Y-128580000D01*
X153153641Y-127820000D02*
X152846359Y-127820000D01*
X141096359Y-109080000D02*
X141403641Y-109080000D01*
X141096359Y-108320000D02*
X141403641Y-108320000D01*
X141196359Y-116620000D02*
X141503641Y-116620000D01*
X141196359Y-117380000D02*
X141503641Y-117380000D01*
D10*
X146700000Y-115150000D02*
X146700000Y-121800000D01*
X154750000Y-123150000D02*
X148050000Y-123150000D01*
X154750000Y-115150000D02*
X154750000Y-123150000D01*
X146700000Y-115150000D02*
X154750000Y-115150000D01*
X148050000Y-123150000D02*
X146700000Y-121800000D01*
X154150000Y-128750000D02*
X154150000Y-127250000D01*
X157450000Y-130250000D02*
X157450000Y-127250000D01*
D12*
X136690000Y-117400000D02*
X136690000Y-119200000D01*
X139910000Y-119200000D02*
X139910000Y-116750000D01*
D10*
X153300000Y-105450000D02*
X153300000Y-113950000D01*
X153300000Y-113950000D02*
X148300000Y-113950000D01*
X148300000Y-113950000D02*
X148300000Y-106250000D01*
X148300000Y-106250000D02*
X149100000Y-105450000D01*
X149100000Y-105450000D02*
X153300000Y-105450000D01*
D12*
X139537300Y-125094726D02*
X139537300Y-126894726D01*
X142657300Y-125094726D02*
X142657300Y-124294726D01*
X139537300Y-125094726D02*
X139537300Y-124294726D01*
X142657300Y-125094726D02*
X142657300Y-125894726D01*
X139253641Y-131780000D02*
X138946359Y-131780000D01*
X139253641Y-131020000D02*
X138946359Y-131020000D01*
X157180000Y-110453641D02*
X157180000Y-110146359D01*
X156420000Y-110453641D02*
X156420000Y-110146359D01*
X157180000Y-108246359D02*
X157180000Y-108553641D01*
X156420000Y-108246359D02*
X156420000Y-108553641D01*
D13*
X140360000Y-131400000D02*
G75*
G03*
X140360000Y-131400000I-50000J0D01*
G01*
X157440000Y-112600000D02*
G75*
G03*
X157440000Y-112600000I-50000J0D01*
G01*
X157440000Y-105600000D02*
G75*
G03*
X157440000Y-105600000I-50000J0D01*
G01*
D12*
X141250000Y-121800000D02*
X140950000Y-121500000D01*
X144250000Y-119000000D02*
X144250000Y-121800000D01*
X141250000Y-121800000D02*
X144250000Y-121800000D01*
X140950000Y-119000000D02*
X140950000Y-121500000D01*
X140950000Y-119000000D02*
X144250000Y-119000000D01*
X138300000Y-112786359D02*
X138300000Y-113093641D01*
X137540000Y-112786359D02*
X137540000Y-113093641D01*
X138393641Y-108380000D02*
X138086359Y-108380000D01*
X138393641Y-109140000D02*
X138086359Y-109140000D01*
X149240000Y-124592164D02*
X149240000Y-124807836D01*
X149960000Y-124592164D02*
X149960000Y-124807836D01*
X145657836Y-124460000D02*
X145442164Y-124460000D01*
X145657836Y-123740000D02*
X145442164Y-123740000D01*
X139405136Y-129734726D02*
X139189464Y-129734726D01*
X139405136Y-130454726D02*
X139189464Y-130454726D01*
G36*
X148688056Y-97954799D02*
G01*
X148712885Y-97871031D01*
X148729570Y-97843336D01*
X148785245Y-97797415D01*
X148856493Y-97786179D01*
X148940569Y-97809797D01*
X148975955Y-97828322D01*
X149034080Y-97870013D01*
X149109140Y-97934856D01*
X149193707Y-98015448D01*
X149280351Y-98104389D01*
X149361644Y-98194280D01*
X149430157Y-98277718D01*
X149439593Y-98290184D01*
X149505898Y-98365726D01*
X149576549Y-98424529D01*
X149604207Y-98441135D01*
X149697101Y-98507700D01*
X149758730Y-98593821D01*
X149784141Y-98679590D01*
X149782871Y-98768355D01*
X149759215Y-98853338D01*
X149717798Y-98919013D01*
X149710772Y-98925850D01*
X149681258Y-98967949D01*
X149672430Y-99002886D01*
X149655270Y-99105007D01*
X149608619Y-99207061D01*
X149539717Y-99299530D01*
X149455806Y-99372896D01*
X149364130Y-99417642D01*
X149354950Y-99420142D01*
X149272195Y-99437116D01*
X149203564Y-99439123D01*
X149129628Y-99425535D01*
X149079832Y-99411239D01*
X148979192Y-99362136D01*
X148900081Y-99296863D01*
X148834732Y-99217205D01*
X148790822Y-99126780D01*
X148766038Y-99017890D01*
X148758069Y-98882839D01*
X148758855Y-98826854D01*
X148754557Y-98669655D01*
X148732851Y-98486758D01*
X148717833Y-98397646D01*
X148690558Y-98216774D01*
X148682021Y-98090293D01*
X148824207Y-98090293D01*
X148824607Y-98133877D01*
X148833790Y-98302419D01*
X148856122Y-98469608D01*
X148867017Y-98525213D01*
X148889749Y-98648741D01*
X148899130Y-98755480D01*
X148896809Y-98864726D01*
X148896448Y-98870122D01*
X148892255Y-98955531D01*
X148894926Y-99015926D01*
X148906260Y-99065043D01*
X148928058Y-99116617D01*
X148929004Y-99118575D01*
X148989677Y-99204183D01*
X149072348Y-99265967D01*
X149168259Y-99301123D01*
X149268651Y-99306843D01*
X149364767Y-99280322D01*
X149390315Y-99266371D01*
X149430784Y-99230212D01*
X149473934Y-99175384D01*
X149510940Y-99115267D01*
X149532979Y-99063239D01*
X149535661Y-99046016D01*
X149518430Y-99037288D01*
X149475899Y-99032804D01*
X149465052Y-99032646D01*
X149401251Y-99022617D01*
X149333413Y-98997841D01*
X149320817Y-98991266D01*
X149239557Y-98925821D01*
X149188206Y-98842551D01*
X149166838Y-98748863D01*
X149173136Y-98678753D01*
X149303269Y-98678753D01*
X149303872Y-98749814D01*
X149326354Y-98816978D01*
X149349158Y-98847919D01*
X149406137Y-98882496D01*
X149476940Y-98896196D01*
X149544719Y-98887319D01*
X149576431Y-98870832D01*
X149630540Y-98808057D01*
X149650721Y-98734652D01*
X149636315Y-98659803D01*
X149595780Y-98601297D01*
X149527029Y-98556629D01*
X149451828Y-98547116D01*
X149379361Y-98572096D01*
X149326244Y-98620645D01*
X149303269Y-98678753D01*
X149173136Y-98678753D01*
X149175524Y-98652164D01*
X149214337Y-98559863D01*
X149283349Y-98479367D01*
X149315583Y-98454717D01*
X149375220Y-98414095D01*
X149262929Y-98278871D01*
X149168270Y-98169774D01*
X149079065Y-98076242D01*
X148999247Y-98001807D01*
X148932747Y-97950004D01*
X148883496Y-97924367D01*
X148866492Y-97922476D01*
X148846921Y-97927081D01*
X148834328Y-97938994D01*
X148827292Y-97965386D01*
X148824392Y-98013428D01*
X148824207Y-98090293D01*
X148682021Y-98090293D01*
X148680624Y-98069602D01*
X148688056Y-97954799D01*
G37*
G36*
X147709837Y-100402426D02*
G01*
X147888237Y-100404133D01*
X148030590Y-100407615D01*
X148138393Y-100412959D01*
X148213147Y-100420251D01*
X148256348Y-100429575D01*
X148269495Y-100441017D01*
X148266299Y-100446592D01*
X148242903Y-100451265D01*
X148185910Y-100455689D01*
X148100799Y-100459787D01*
X147993048Y-100463482D01*
X147868139Y-100466696D01*
X147731549Y-100469353D01*
X147588759Y-100471375D01*
X147445246Y-100472684D01*
X147306492Y-100473203D01*
X147177974Y-100472855D01*
X147065173Y-100471563D01*
X146973567Y-100469249D01*
X146908636Y-100465836D01*
X146907738Y-100465763D01*
X146844747Y-100458645D01*
X146795331Y-100449582D01*
X146780738Y-100445076D01*
X146774672Y-100434684D01*
X146806685Y-100425625D01*
X146875800Y-100417958D01*
X146981041Y-100411741D01*
X147121430Y-100407033D01*
X147295991Y-100403892D01*
X147493892Y-100402409D01*
X147709837Y-100402426D01*
G37*
G36*
X145323591Y-98988622D02*
G01*
X145295341Y-98939988D01*
X145283632Y-98923756D01*
X145241916Y-98843137D01*
X145219958Y-98745959D01*
X145220309Y-98725803D01*
X145355052Y-98725803D01*
X145371062Y-98805241D01*
X145416980Y-98862535D01*
X145487403Y-98892282D01*
X145524504Y-98895255D01*
X145581740Y-98888773D01*
X145625431Y-98873678D01*
X145629662Y-98870832D01*
X145683771Y-98808057D01*
X145703952Y-98734652D01*
X145689546Y-98659803D01*
X145649010Y-98601297D01*
X145581336Y-98556077D01*
X145510426Y-98544752D01*
X145444479Y-98563851D01*
X145391691Y-98609901D01*
X145360261Y-98679431D01*
X145355052Y-98725803D01*
X145220309Y-98725803D01*
X145221604Y-98651356D01*
X145225303Y-98633628D01*
X145255326Y-98570966D01*
X145308230Y-98506082D01*
X145371185Y-98452623D01*
X145418907Y-98427674D01*
X145480565Y-98388318D01*
X145544986Y-98311860D01*
X145549815Y-98304772D01*
X145603895Y-98232975D01*
X145675472Y-98150031D01*
X145757323Y-98063115D01*
X145842226Y-97979399D01*
X145922959Y-97906057D01*
X145992298Y-97850262D01*
X146034949Y-97822959D01*
X146125876Y-97789652D01*
X146199469Y-97790955D01*
X146255547Y-97826365D01*
X146293926Y-97895380D01*
X146314427Y-97997499D01*
X146316866Y-98132220D01*
X146301063Y-98299040D01*
X146271174Y-98475800D01*
X146239169Y-98694134D01*
X146232310Y-98883675D01*
X146232878Y-98977466D01*
X146229232Y-99044256D01*
X146219472Y-99096053D01*
X146201695Y-99144864D01*
X146185426Y-99179686D01*
X146112495Y-99287232D01*
X146015593Y-99368282D01*
X145901655Y-99419972D01*
X145777616Y-99439438D01*
X145650412Y-99423819D01*
X145618200Y-99413841D01*
X145534724Y-99367386D01*
X145456890Y-99293839D01*
X145392475Y-99203894D01*
X145349253Y-99108245D01*
X145338473Y-99045152D01*
X145476288Y-99045152D01*
X145477376Y-99071762D01*
X145480195Y-99083527D01*
X145522091Y-99180284D01*
X145589066Y-99250813D01*
X145675153Y-99292615D01*
X145774387Y-99303193D01*
X145880800Y-99280049D01*
X145914741Y-99265430D01*
X146005825Y-99201323D01*
X146067625Y-99112557D01*
X146099191Y-99001386D01*
X146099572Y-98870062D01*
X146095202Y-98837581D01*
X146089485Y-98762099D01*
X146096354Y-98675130D01*
X146115983Y-98567781D01*
X146152817Y-98380884D01*
X146176839Y-98223695D01*
X146188001Y-98097589D01*
X146186258Y-98003943D01*
X146171565Y-97944133D01*
X146143875Y-97919535D01*
X146137581Y-97918954D01*
X146091501Y-97934316D01*
X146027231Y-97977955D01*
X145949084Y-98046203D01*
X145861373Y-98135387D01*
X145794046Y-98211295D01*
X145723680Y-98294350D01*
X145676158Y-98352798D01*
X145648832Y-98391653D01*
X145639056Y-98415927D01*
X145644184Y-98430632D01*
X145661568Y-98440782D01*
X145670907Y-98444513D01*
X145745333Y-98493037D01*
X145802003Y-98569700D01*
X145835723Y-98665639D01*
X145842892Y-98737951D01*
X145824789Y-98826277D01*
X145776124Y-98908231D01*
X145705358Y-98975449D01*
X145620955Y-99019563D01*
X145544808Y-99032646D01*
X145495667Y-99034553D01*
X145476288Y-99045152D01*
X145338473Y-99045152D01*
X145334892Y-99024191D01*
X145323591Y-98988622D01*
G37*
G36*
X146434900Y-98363194D02*
G01*
X146441403Y-98241011D01*
X146451278Y-98120370D01*
X146463360Y-98013035D01*
X146476479Y-97930775D01*
X146478992Y-97918954D01*
X146495184Y-97845267D01*
X146507699Y-97784888D01*
X146514174Y-97749285D01*
X146514492Y-97746656D01*
X146499185Y-97726100D01*
X146456953Y-97699025D01*
X146409507Y-97676720D01*
X146230306Y-97585191D01*
X146073789Y-97468892D01*
X145943983Y-97331925D01*
X145844914Y-97178387D01*
X145790563Y-97046594D01*
X145770477Y-96987164D01*
X145752204Y-96956014D01*
X145726268Y-96944013D01*
X145683193Y-96942031D01*
X145682046Y-96942030D01*
X145586563Y-96926708D01*
X145509202Y-96883703D01*
X145462223Y-96825439D01*
X145440490Y-96760742D01*
X145433604Y-96690824D01*
X145562962Y-96690824D01*
X145568525Y-96736954D01*
X145599860Y-96780127D01*
X145644729Y-96808310D01*
X145685397Y-96811233D01*
X145711197Y-96799244D01*
X145722205Y-96773709D01*
X145722538Y-96723156D01*
X145721744Y-96709922D01*
X145715266Y-96653341D01*
X145701657Y-96624963D01*
X145675205Y-96613939D01*
X145670855Y-96613261D01*
X145612847Y-96621737D01*
X145573199Y-96663333D01*
X145562962Y-96690824D01*
X145433604Y-96690824D01*
X145433475Y-96689518D01*
X145442197Y-96629265D01*
X145449839Y-96612903D01*
X145450073Y-96610656D01*
X145863348Y-96610656D01*
X145877793Y-96820507D01*
X145923547Y-97007098D01*
X146000961Y-97171018D01*
X146110388Y-97312857D01*
X146252180Y-97433203D01*
X146410280Y-97524848D01*
X146511509Y-97568437D01*
X146626182Y-97609284D01*
X146743132Y-97644172D01*
X146851195Y-97669886D01*
X146939205Y-97683210D01*
X146964125Y-97684355D01*
X146998617Y-97682335D01*
X147013167Y-97669015D01*
X147013251Y-97633842D01*
X147008716Y-97598438D01*
X147008821Y-97525959D01*
X147027855Y-97482697D01*
X147058165Y-97469228D01*
X147092099Y-97486128D01*
X147122003Y-97533971D01*
X147136897Y-97588804D01*
X147173187Y-97699085D01*
X147237081Y-97790108D01*
X147321878Y-97858890D01*
X147420875Y-97902450D01*
X147527372Y-97917806D01*
X147634666Y-97901977D01*
X147733096Y-97854052D01*
X147817289Y-97773474D01*
X147879412Y-97667951D01*
X147910543Y-97562968D01*
X147922751Y-97509881D01*
X147940339Y-97485455D01*
X147971049Y-97479348D01*
X147973125Y-97479338D01*
X148001050Y-97482293D01*
X148015438Y-97497601D01*
X148020740Y-97534926D01*
X148021430Y-97584221D01*
X148021430Y-97689104D01*
X148130852Y-97677634D01*
X148202836Y-97665969D01*
X148294165Y-97645491D01*
X148387275Y-97620223D01*
X148404390Y-97615002D01*
X148608676Y-97537513D01*
X148779387Y-97442157D01*
X148918527Y-97327222D01*
X149028101Y-97190998D01*
X149110115Y-97031775D01*
X149121024Y-97003480D01*
X149144261Y-96931836D01*
X149160026Y-96858389D01*
X149170141Y-96771312D01*
X149171698Y-96743437D01*
X149307599Y-96743437D01*
X149309592Y-96781237D01*
X149311702Y-96786908D01*
X149340253Y-96801863D01*
X149386850Y-96804127D01*
X149432819Y-96794370D01*
X149453600Y-96781815D01*
X149476950Y-96735303D01*
X149470856Y-96683657D01*
X149441047Y-96638761D01*
X149393255Y-96612501D01*
X149370686Y-96609877D01*
X149340292Y-96616485D01*
X149323002Y-96643163D01*
X149313046Y-96689216D01*
X149307599Y-96743437D01*
X149171698Y-96743437D01*
X149176427Y-96658778D01*
X149177145Y-96639184D01*
X149180350Y-96540940D01*
X149181328Y-96476638D01*
X149179348Y-96441173D01*
X149173681Y-96429440D01*
X149163597Y-96436334D01*
X149150622Y-96453569D01*
X149071888Y-96550249D01*
X148978509Y-96643100D01*
X148882557Y-96720953D01*
X148816891Y-96762395D01*
X148656284Y-96827148D01*
X148490574Y-96855896D01*
X148324951Y-96850331D01*
X148164606Y-96812142D01*
X148014730Y-96743022D01*
X147880514Y-96644661D01*
X147767148Y-96518751D01*
X147693515Y-96396393D01*
X147666163Y-96338213D01*
X147648158Y-96289919D01*
X147637554Y-96240586D01*
X147632406Y-96179287D01*
X147630770Y-96095095D01*
X147630661Y-96043261D01*
X147630662Y-96043136D01*
X147747923Y-96043136D01*
X147749606Y-96131495D01*
X147756964Y-96196638D01*
X147773403Y-96254358D01*
X147802327Y-96320449D01*
X147811989Y-96340297D01*
X147893208Y-96469056D01*
X147997607Y-96578280D01*
X148116900Y-96660050D01*
X148173869Y-96686026D01*
X148294888Y-96716858D01*
X148432433Y-96726883D01*
X148569935Y-96716068D01*
X148684060Y-96686980D01*
X148811472Y-96619680D01*
X148925967Y-96520839D01*
X149019942Y-96397632D01*
X149051487Y-96340297D01*
X149084095Y-96269604D01*
X149103359Y-96211263D01*
X149112685Y-96149480D01*
X149113025Y-96139613D01*
X149276028Y-96139613D01*
X149277300Y-96190754D01*
X149282103Y-96258641D01*
X149289451Y-96332305D01*
X149298357Y-96400774D01*
X149307837Y-96453077D01*
X149310462Y-96463338D01*
X149331589Y-96476240D01*
X149377527Y-96484614D01*
X149395018Y-96485716D01*
X149448146Y-96483954D01*
X149476896Y-96468970D01*
X149494267Y-96436870D01*
X149520883Y-96342214D01*
X149528080Y-96250900D01*
X149516898Y-96171369D01*
X149488372Y-96112061D01*
X149450840Y-96083696D01*
X149401466Y-96078488D01*
X149341272Y-96087600D01*
X149291152Y-96107074D01*
X149279271Y-96116189D01*
X149276028Y-96139613D01*
X149113025Y-96139613D01*
X149115477Y-96068460D01*
X149115554Y-96043136D01*
X149113836Y-95954765D01*
X149106446Y-95889601D01*
X149089969Y-95831840D01*
X149060991Y-95765677D01*
X149051336Y-95745855D01*
X148961078Y-95605825D01*
X148841700Y-95490607D01*
X148718218Y-95414060D01*
X148667634Y-95392297D01*
X148615745Y-95378781D01*
X148551039Y-95371710D01*
X148462002Y-95369279D01*
X148431738Y-95369184D01*
X148333997Y-95370656D01*
X148263751Y-95376272D01*
X148209487Y-95387837D01*
X148159691Y-95407153D01*
X148145258Y-95414060D01*
X148003841Y-95504785D01*
X147888225Y-95623628D01*
X147812141Y-95745855D01*
X147779483Y-95816617D01*
X147760184Y-95875003D01*
X147750830Y-95936818D01*
X147748008Y-96017867D01*
X147747923Y-96043136D01*
X147630662Y-96043136D01*
X147631238Y-95944737D01*
X147634312Y-95874385D01*
X147641904Y-95821301D01*
X147656030Y-95774582D01*
X147678710Y-95723326D01*
X147696569Y-95687241D01*
X147789629Y-95542151D01*
X147908711Y-95420501D01*
X148048120Y-95325557D01*
X148202160Y-95260584D01*
X148365136Y-95228849D01*
X148495204Y-95229307D01*
X148617354Y-95240714D01*
X148617354Y-95176972D01*
X148606753Y-95112796D01*
X148571806Y-95077475D01*
X148507794Y-95066347D01*
X148505368Y-95066338D01*
X148439189Y-95057884D01*
X148353117Y-95035657D01*
X148261693Y-95004358D01*
X148179458Y-94968687D01*
X148144845Y-94949784D01*
X148082058Y-94911600D01*
X147982279Y-94968688D01*
X147821445Y-95039055D01*
X147646549Y-95077260D01*
X147465747Y-95083287D01*
X147287200Y-95057119D01*
X147119065Y-94998739D01*
X147064046Y-94970613D01*
X146966354Y-94915895D01*
X146831568Y-94980585D01*
X146751444Y-95014726D01*
X146670791Y-95042120D01*
X146607032Y-95056853D01*
X146606876Y-95056873D01*
X146523352Y-95068190D01*
X146471194Y-95078808D01*
X146443016Y-95093079D01*
X146431434Y-95115355D01*
X146429064Y-95149984D01*
X146429046Y-95161649D01*
X146429046Y-95236676D01*
X146594332Y-95246988D01*
X146773763Y-95276198D01*
X146935882Y-95340032D01*
X147079293Y-95437912D01*
X147100670Y-95456933D01*
X147216248Y-95587674D01*
X147298870Y-95732730D01*
X147349266Y-95887195D01*
X147368166Y-96046163D01*
X147356301Y-96204730D01*
X147314401Y-96357989D01*
X147243196Y-96501036D01*
X147143418Y-96628966D01*
X147015795Y-96736873D01*
X146900314Y-96802620D01*
X146842717Y-96827257D01*
X146789520Y-96842600D01*
X146728283Y-96850746D01*
X146646569Y-96853792D01*
X146595123Y-96854058D01*
X146501028Y-96852930D01*
X146432993Y-96847970D01*
X146378025Y-96836727D01*
X146323131Y-96816753D01*
X146270618Y-96792879D01*
X146128429Y-96705908D01*
X145994717Y-96585198D01*
X145916444Y-96492646D01*
X145864265Y-96424261D01*
X145863348Y-96610656D01*
X145450073Y-96610656D01*
X145453589Y-96576894D01*
X145439601Y-96517193D01*
X145431979Y-96495672D01*
X145409040Y-96420878D01*
X145389869Y-96333926D01*
X145385396Y-96305056D01*
X145514768Y-96305056D01*
X145535238Y-96403912D01*
X145546147Y-96435051D01*
X145564892Y-96467633D01*
X145596166Y-96481611D01*
X145645720Y-96483897D01*
X145707404Y-96476132D01*
X145733757Y-96454545D01*
X145734047Y-96453569D01*
X145739512Y-96420829D01*
X145746602Y-96361038D01*
X145753930Y-96286105D01*
X145755115Y-96272549D01*
X145768126Y-96120837D01*
X145696198Y-96090783D01*
X145646344Y-96072819D01*
X145613328Y-96072643D01*
X145579180Y-96090274D01*
X145578186Y-96090924D01*
X145537059Y-96139792D01*
X145515648Y-96214093D01*
X145514768Y-96305056D01*
X145385396Y-96305056D01*
X145383605Y-96293494D01*
X145364204Y-96203779D01*
X145333092Y-96149216D01*
X145330701Y-96146955D01*
X145266715Y-96064310D01*
X145228972Y-95962047D01*
X145218362Y-95850284D01*
X145235777Y-95739139D01*
X145282108Y-95638733D01*
X145285501Y-95633740D01*
X145336495Y-95571954D01*
X145396492Y-95514945D01*
X145416174Y-95499788D01*
X145460302Y-95465836D01*
X145487096Y-95439914D01*
X145490782Y-95433028D01*
X145481540Y-95410440D01*
X145456780Y-95364166D01*
X145421620Y-95303706D01*
X145417132Y-95296259D01*
X145302777Y-95081038D01*
X145226130Y-94875796D01*
X145187156Y-94680388D01*
X145186920Y-94647587D01*
X145321997Y-94647587D01*
X145353138Y-94832959D01*
X145421440Y-95027378D01*
X145527394Y-95230159D01*
X145593391Y-95332642D01*
X145701895Y-95491485D01*
X145605278Y-95536738D01*
X145533632Y-95579351D01*
X145461654Y-95636042D01*
X145432760Y-95664333D01*
X145366555Y-95756800D01*
X145339272Y-95848937D01*
X145350778Y-95941804D01*
X145388823Y-96018871D01*
X145417582Y-96062864D01*
X145484379Y-96004217D01*
X145494363Y-95997690D01*
X145869731Y-95997690D01*
X145879635Y-96022526D01*
X145910153Y-96072676D01*
X145913783Y-96108272D01*
X145896405Y-96136797D01*
X145879943Y-96183312D01*
X145888378Y-96249659D01*
X145918108Y-96328933D01*
X145965532Y-96414230D01*
X146027046Y-96498647D01*
X146099048Y-96575280D01*
X146145738Y-96614617D01*
X146243668Y-96678814D01*
X146341682Y-96718875D01*
X146451982Y-96738295D01*
X146585692Y-96740604D01*
X146681947Y-96734697D01*
X146756513Y-96721955D01*
X146826661Y-96698536D01*
X146878768Y-96675442D01*
X147018315Y-96591612D01*
X147128360Y-96488555D01*
X147209680Y-96370732D01*
X147263052Y-96242605D01*
X147289253Y-96108635D01*
X147289060Y-95973285D01*
X147263251Y-95841014D01*
X147212603Y-95716285D01*
X147137892Y-95603559D01*
X147039896Y-95507297D01*
X146919393Y-95431961D01*
X146777158Y-95382013D01*
X146650232Y-95363455D01*
X146483685Y-95370849D01*
X146327073Y-95412621D01*
X146185265Y-95485446D01*
X146063126Y-95585998D01*
X145965526Y-95710954D01*
X145897330Y-95856989D01*
X145889109Y-95883335D01*
X145871823Y-95953474D01*
X145869731Y-95997690D01*
X145494363Y-95997690D01*
X145555157Y-95957944D01*
X145617608Y-95945569D01*
X145679572Y-95951059D01*
X145731701Y-95963689D01*
X145757407Y-95971146D01*
X145774616Y-95964640D01*
X145788487Y-95936981D01*
X145804182Y-95880981D01*
X145811139Y-95853039D01*
X145871176Y-95682272D01*
X145961286Y-95536262D01*
X146082356Y-95413778D01*
X146176309Y-95347286D01*
X146229783Y-95312726D01*
X146266008Y-95281471D01*
X146288972Y-95244708D01*
X146302663Y-95193622D01*
X146311069Y-95119401D01*
X146316694Y-95037030D01*
X146321584Y-94958877D01*
X146468123Y-94946068D01*
X146643397Y-94917510D01*
X146792146Y-94865372D01*
X146819350Y-94851664D01*
X146840871Y-94837856D01*
X146845104Y-94821765D01*
X146829498Y-94794317D01*
X146791502Y-94746444D01*
X146788851Y-94743208D01*
X146743139Y-94676694D01*
X146730707Y-94628064D01*
X146751314Y-94595114D01*
X146771576Y-94584709D01*
X146802379Y-94591563D01*
X146852326Y-94629339D01*
X146914367Y-94690217D01*
X147048882Y-94806547D01*
X147198511Y-94892158D01*
X147357476Y-94944958D01*
X147519999Y-94962854D01*
X147638471Y-94952516D01*
X147793757Y-94911590D01*
X147932543Y-94844125D01*
X148064649Y-94744945D01*
X148107517Y-94705278D01*
X148167266Y-94649749D01*
X148218076Y-94606473D01*
X148252563Y-94581554D01*
X148261653Y-94577877D01*
X148287785Y-94593171D01*
X148303571Y-94614772D01*
X148310330Y-94643143D01*
X148298016Y-94678540D01*
X148262876Y-94730730D01*
X148255045Y-94741081D01*
X148186773Y-94830494D01*
X148240871Y-94858370D01*
X148330856Y-94895602D01*
X148436946Y-94926132D01*
X148540300Y-94945168D01*
X148597454Y-94949107D01*
X148656817Y-94953910D01*
X148701018Y-94966020D01*
X148711138Y-94972554D01*
X148724246Y-95004128D01*
X148732875Y-95060220D01*
X148734851Y-95104438D01*
X148737579Y-95191413D01*
X148748413Y-95249745D01*
X148772102Y-95289722D01*
X148813395Y-95321635D01*
X148842684Y-95338079D01*
X148955063Y-95416576D01*
X149057932Y-95523510D01*
X149144126Y-95648666D01*
X149206484Y-95781830D01*
X149236185Y-95899209D01*
X149245435Y-95951831D01*
X149257947Y-95973841D01*
X149279945Y-95973591D01*
X149289264Y-95970446D01*
X149333905Y-95961200D01*
X149397038Y-95955925D01*
X149421856Y-95955446D01*
X149493281Y-95962404D01*
X149544728Y-95986894D01*
X149562937Y-96002275D01*
X149608262Y-96031247D01*
X149645118Y-96023539D01*
X149675034Y-95978327D01*
X149690059Y-95933685D01*
X149696931Y-95838935D01*
X149666960Y-95745451D01*
X149602321Y-95656716D01*
X149505186Y-95576212D01*
X149444256Y-95539674D01*
X149343081Y-95485149D01*
X149457494Y-95313842D01*
X149580360Y-95106521D01*
X149665429Y-94909006D01*
X149712702Y-94721178D01*
X149722177Y-94542923D01*
X149693856Y-94374123D01*
X149627738Y-94214664D01*
X149523822Y-94064428D01*
X149456675Y-93991723D01*
X149306048Y-93862948D01*
X149128997Y-93750538D01*
X148923196Y-93653502D01*
X148686323Y-93570849D01*
X148416054Y-93501587D01*
X148215654Y-93462271D01*
X148116144Y-93446054D01*
X148022840Y-93434116D01*
X147926530Y-93425835D01*
X147818002Y-93420585D01*
X147688045Y-93417745D01*
X147542738Y-93416727D01*
X147371108Y-93417848D01*
X147214709Y-93421961D01*
X147080624Y-93428770D01*
X146975935Y-93437976D01*
X146946815Y-93441819D01*
X146633256Y-93499125D01*
X146351964Y-93572315D01*
X146103430Y-93660704D01*
X145888142Y-93763609D01*
X145706590Y-93880347D01*
X145559263Y-94010233D01*
X145446651Y-94152583D01*
X145369243Y-94306715D01*
X145327529Y-94471944D01*
X145321997Y-94647587D01*
X145186920Y-94647587D01*
X145185820Y-94494670D01*
X145200668Y-94398675D01*
X145258374Y-94221826D01*
X145352474Y-94056871D01*
X145481830Y-93904825D01*
X145645300Y-93766708D01*
X145841748Y-93643535D01*
X146070033Y-93536324D01*
X146233661Y-93476109D01*
X146447907Y-93413197D01*
X146677293Y-93360797D01*
X146909217Y-93321096D01*
X147131075Y-93296287D01*
X147313161Y-93288498D01*
X147445046Y-93288338D01*
X147445046Y-93060283D01*
X147331387Y-93028683D01*
X147185163Y-92968988D01*
X147054882Y-92878445D01*
X146947118Y-92763083D01*
X146868444Y-92628934D01*
X146852809Y-92589623D01*
X146827401Y-92479514D01*
X146819409Y-92350985D01*
X146949864Y-92350985D01*
X146968675Y-92495568D01*
X147019445Y-92624546D01*
X147097262Y-92734694D01*
X147197215Y-92822784D01*
X147314394Y-92885589D01*
X147443886Y-92919883D01*
X147580782Y-92922438D01*
X147720168Y-92890027D01*
X147751324Y-92877606D01*
X147875785Y-92803578D01*
X147976235Y-92701993D01*
X148048796Y-92578784D01*
X148089591Y-92439886D01*
X148097230Y-92348330D01*
X148079756Y-92202341D01*
X148028162Y-92070949D01*
X147945910Y-91958057D01*
X147836464Y-91867570D01*
X147703288Y-91803389D01*
X147588082Y-91774567D01*
X147495580Y-91772974D01*
X147384033Y-91792726D01*
X147244590Y-91847083D01*
X147128075Y-91930440D01*
X147037971Y-92038319D01*
X146977762Y-92166241D01*
X146950931Y-92309727D01*
X146949864Y-92350985D01*
X146819409Y-92350985D01*
X146819403Y-92350886D01*
X146828571Y-92220084D01*
X146854664Y-92103450D01*
X146860271Y-92087521D01*
X146916660Y-91979321D01*
X147000413Y-91872287D01*
X147101208Y-91777922D01*
X147194184Y-91715381D01*
X147250962Y-91687107D01*
X147304296Y-91669074D01*
X147367062Y-91658419D01*
X147452137Y-91652277D01*
X147484123Y-91650878D01*
X147631961Y-91652884D01*
X147753759Y-91674345D01*
X147859126Y-91718718D01*
X147957672Y-91789456D01*
X148012381Y-91840785D01*
X148100421Y-91938044D01*
X148160013Y-92028610D01*
X148195980Y-92124295D01*
X148213147Y-92236909D01*
X148216590Y-92340723D01*
X148215397Y-92436773D01*
X148210149Y-92506274D01*
X148198731Y-92561704D01*
X148179031Y-92615542D01*
X148164644Y-92647408D01*
X148083172Y-92778361D01*
X147973615Y-92890594D01*
X147843814Y-92977998D01*
X147701608Y-93034466D01*
X147654179Y-93045110D01*
X147580005Y-93058565D01*
X147585795Y-93168567D01*
X147591584Y-93278569D01*
X147708815Y-93283275D01*
X147995669Y-93305372D01*
X148287503Y-93347543D01*
X148569884Y-93407272D01*
X148804846Y-93474236D01*
X149030919Y-93558449D01*
X149225186Y-93654015D01*
X149394200Y-93764847D01*
X149544517Y-93894854D01*
X149592725Y-93944328D01*
X149715489Y-94100840D01*
X149800590Y-94267383D01*
X149848027Y-94443554D01*
X149857797Y-94628954D01*
X149829896Y-94823180D01*
X149764322Y-95025833D01*
X149661073Y-95236510D01*
X149602489Y-95333558D01*
X149537981Y-95434701D01*
X149610091Y-95488021D01*
X149716644Y-95585789D01*
X149788270Y-95693449D01*
X149824345Y-95807182D01*
X149824247Y-95923169D01*
X149787354Y-96037593D01*
X149716785Y-96142374D01*
X149680069Y-96193330D01*
X149659214Y-96249907D01*
X149648096Y-96328285D01*
X149637066Y-96404120D01*
X149619740Y-96473478D01*
X149606252Y-96507918D01*
X149586086Y-96564910D01*
X149593012Y-96616215D01*
X149594343Y-96619820D01*
X149612876Y-96715024D01*
X149596720Y-96800632D01*
X149550081Y-96870801D01*
X149477167Y-96919686D01*
X149382184Y-96941445D01*
X149362378Y-96942030D01*
X149284847Y-96942030D01*
X149242575Y-97069057D01*
X149187697Y-97192998D01*
X149108534Y-97318920D01*
X149015725Y-97431271D01*
X148957158Y-97486328D01*
X148909871Y-97520210D01*
X148842277Y-97561875D01*
X148763216Y-97606653D01*
X148681531Y-97649877D01*
X148606062Y-97686877D01*
X148545649Y-97712985D01*
X148509133Y-97723533D01*
X148507906Y-97723569D01*
X148494159Y-97723017D01*
X148485972Y-97725901D01*
X148483756Y-97739029D01*
X148487922Y-97769209D01*
X148498880Y-97823251D01*
X148517040Y-97907962D01*
X148519799Y-97920872D01*
X148536724Y-98016601D01*
X148551121Y-98129171D01*
X148562463Y-98249812D01*
X148570226Y-98369754D01*
X148573884Y-98480228D01*
X148572911Y-98572463D01*
X148566783Y-98637690D01*
X148563583Y-98651646D01*
X148545291Y-98692241D01*
X148513014Y-98710782D01*
X148474484Y-98716321D01*
X148423099Y-98726310D01*
X148399191Y-98749204D01*
X148394502Y-98765167D01*
X148359606Y-98940630D01*
X148326477Y-99084340D01*
X148292675Y-99203394D01*
X148255759Y-99304888D01*
X148213288Y-99395920D01*
X148162819Y-99483585D01*
X148130003Y-99534078D01*
X148018015Y-99672710D01*
X147890378Y-99781649D01*
X147751321Y-99859155D01*
X147605076Y-99903486D01*
X147455872Y-99912900D01*
X147307939Y-99885655D01*
X147290284Y-99879773D01*
X147142014Y-99807522D01*
X147007650Y-99700838D01*
X146888990Y-99562443D01*
X146787832Y-99395058D01*
X146705976Y-99201405D01*
X146645218Y-98984205D01*
X146623927Y-98871454D01*
X146599531Y-98720030D01*
X146536219Y-98720030D01*
X146495765Y-98717561D01*
X146494599Y-98717128D01*
X146735940Y-98717128D01*
X146748264Y-98821156D01*
X146781264Y-98999671D01*
X146835733Y-99175562D01*
X146907697Y-99339677D01*
X146993185Y-99482864D01*
X147081827Y-99589704D01*
X147205926Y-99692512D01*
X147333229Y-99756607D01*
X147465211Y-99782314D01*
X147603350Y-99769959D01*
X147723487Y-99731137D01*
X147806810Y-99681641D01*
X147895932Y-99604294D01*
X147982814Y-99507788D01*
X148059417Y-99400815D01*
X148105929Y-99317626D01*
X148165546Y-99172092D01*
X148215717Y-99005198D01*
X148251294Y-98834422D01*
X148254580Y-98812838D01*
X148268056Y-98720030D01*
X148136469Y-98720030D01*
X148103560Y-98891698D01*
X148075695Y-99028314D01*
X148050658Y-99130296D01*
X148026956Y-99201847D01*
X148003095Y-99247169D01*
X147977582Y-99270467D01*
X147967613Y-99274297D01*
X147866047Y-99294055D01*
X147737647Y-99308052D01*
X147594307Y-99315728D01*
X147447922Y-99316524D01*
X147310387Y-99309881D01*
X147276735Y-99306783D01*
X147184308Y-99296610D01*
X147104757Y-99286660D01*
X147046984Y-99278123D01*
X147020671Y-99272524D01*
X146999900Y-99257669D01*
X146980898Y-99226693D01*
X146961869Y-99174362D01*
X146941019Y-99095439D01*
X146916554Y-98984692D01*
X146908291Y-98944723D01*
X146871905Y-98766787D01*
X147015200Y-98766787D01*
X147019239Y-98813360D01*
X147029798Y-98880280D01*
X147044542Y-98956574D01*
X147061133Y-99031269D01*
X147077235Y-99093392D01*
X147090511Y-99131968D01*
X147094263Y-99138101D01*
X147126837Y-99152316D01*
X147190703Y-99164349D01*
X147278120Y-99173822D01*
X147381345Y-99180357D01*
X147492634Y-99183575D01*
X147604246Y-99183097D01*
X147708438Y-99178545D01*
X147781412Y-99171695D01*
X147844360Y-99161904D01*
X147890592Y-99151161D01*
X147906640Y-99144180D01*
X147917152Y-99119241D01*
X147932153Y-99066463D01*
X147949264Y-98996475D01*
X147966109Y-98919907D01*
X147980312Y-98847389D01*
X147989494Y-98789550D01*
X147991658Y-98763992D01*
X147992123Y-98720030D01*
X147015200Y-98720030D01*
X147015200Y-98766787D01*
X146871905Y-98766787D01*
X146864342Y-98729800D01*
X146735940Y-98717128D01*
X146494599Y-98717128D01*
X146466472Y-98706679D01*
X146446861Y-98682172D01*
X146435453Y-98638825D01*
X146430766Y-98571427D01*
X146431245Y-98487785D01*
X146549552Y-98487785D01*
X146553917Y-98529942D01*
X146565753Y-98593030D01*
X147498745Y-98588391D01*
X148431738Y-98583751D01*
X148430800Y-98344160D01*
X148423299Y-98151037D01*
X148402716Y-97988637D01*
X148394427Y-97948261D01*
X148375201Y-97864102D01*
X148361309Y-97811259D01*
X148349030Y-97783037D01*
X148334641Y-97772740D01*
X148314420Y-97773671D01*
X148299015Y-97776629D01*
X148271570Y-97787904D01*
X148252520Y-97815208D01*
X148236628Y-97867905D01*
X148229369Y-97901153D01*
X148190212Y-98013503D01*
X148126703Y-98096545D01*
X148041256Y-98149439D01*
X147936290Y-98171346D01*
X147814220Y-98161424D01*
X147677464Y-98118834D01*
X147644538Y-98104490D01*
X147572472Y-98073676D01*
X147518486Y-98060046D01*
X147468085Y-98063787D01*
X147406773Y-98085084D01*
X147354669Y-98108216D01*
X147252246Y-98143703D01*
X147143957Y-98162215D01*
X147040591Y-98163398D01*
X146952941Y-98146899D01*
X146904357Y-98122964D01*
X146850582Y-98067428D01*
X146803222Y-97990528D01*
X146770757Y-97908526D01*
X146761200Y-97848519D01*
X146754186Y-97817297D01*
X146878539Y-97817297D01*
X146883422Y-97843421D01*
X146895407Y-97891145D01*
X146899277Y-97905316D01*
X146937569Y-97981900D01*
X147000115Y-98029419D01*
X147084073Y-98046965D01*
X147186603Y-98033634D01*
X147243629Y-98015224D01*
X147267853Y-98004752D01*
X147728354Y-98004752D01*
X147806507Y-98029451D01*
X147905043Y-98046514D01*
X147987223Y-98029105D01*
X148055623Y-97977309D01*
X148090402Y-97927522D01*
X148108585Y-97878825D01*
X148109354Y-97869799D01*
X148104184Y-97836954D01*
X148081021Y-97823517D01*
X148041025Y-97821261D01*
X147979948Y-97832465D01*
X147918724Y-97870309D01*
X147899371Y-97886826D01*
X147845438Y-97931516D01*
X147794365Y-97968256D01*
X147777200Y-97978571D01*
X147728354Y-98004752D01*
X147267853Y-98004752D01*
X147279882Y-97999552D01*
X147282551Y-97987848D01*
X147259430Y-97973656D01*
X147221413Y-97947862D01*
X147171754Y-97907326D01*
X147151969Y-97889554D01*
X147092590Y-97844992D01*
X147026295Y-97821689D01*
X146981007Y-97814860D01*
X146923939Y-97810912D01*
X146886746Y-97812825D01*
X146878539Y-97817297D01*
X146754186Y-97817297D01*
X146748870Y-97793636D01*
X146709878Y-97766664D01*
X146673799Y-97762646D01*
X146656636Y-97780963D01*
X146637752Y-97831231D01*
X146618245Y-97906428D01*
X146599211Y-97999530D01*
X146581748Y-98103512D01*
X146566953Y-98211353D01*
X146555924Y-98316027D01*
X146549758Y-98410513D01*
X146549552Y-98487785D01*
X146431245Y-98487785D01*
X146431320Y-98474765D01*
X146434900Y-98363194D01*
G37*
G36*
X147545209Y-98411301D02*
G01*
X147555674Y-98442565D01*
X147545710Y-98476889D01*
X147516202Y-98499724D01*
X147507099Y-98501771D01*
X147475226Y-98501116D01*
X147466182Y-98479086D01*
X147468022Y-98452925D01*
X147481745Y-98410310D01*
X147513180Y-98397646D01*
X147513430Y-98397646D01*
X147545209Y-98411301D01*
G37*
G36*
X148714390Y-95704617D02*
G01*
X148728423Y-95742891D01*
X148713632Y-95806116D01*
X148698647Y-95840181D01*
X148674937Y-95891339D01*
X148668480Y-95916721D01*
X148678596Y-95925266D01*
X148692106Y-95926030D01*
X148727206Y-95912663D01*
X148771224Y-95879382D01*
X148783430Y-95867415D01*
X148838193Y-95824343D01*
X148888168Y-95809888D01*
X148926022Y-95824872D01*
X148940359Y-95849832D01*
X148940224Y-95886880D01*
X148913401Y-95930490D01*
X148890196Y-95956056D01*
X148852840Y-95996899D01*
X148840223Y-96021921D01*
X148848883Y-96042348D01*
X148859927Y-96054164D01*
X148885564Y-96100431D01*
X148873429Y-96144682D01*
X148847634Y-96167623D01*
X148816419Y-96176495D01*
X148779369Y-96159642D01*
X148759711Y-96144728D01*
X148640972Y-96070721D01*
X148513922Y-96030517D01*
X148384954Y-96024254D01*
X148260461Y-96052073D01*
X148146835Y-96114113D01*
X148125646Y-96130917D01*
X148071439Y-96169319D01*
X148031446Y-96177664D01*
X147997106Y-96157648D01*
X147996030Y-96156584D01*
X147974704Y-96120125D01*
X147985408Y-96079840D01*
X148026315Y-96032297D01*
X148117724Y-95965855D01*
X148234028Y-95913487D01*
X148361983Y-95880765D01*
X148398159Y-95875874D01*
X148467133Y-95867210D01*
X148509806Y-95855052D01*
X148538797Y-95832413D01*
X148566724Y-95792308D01*
X148575716Y-95777585D01*
X148619033Y-95718855D01*
X148658872Y-95693813D01*
X148671697Y-95692186D01*
X148714390Y-95704617D01*
G37*
G36*
X147214230Y-96898088D02*
G01*
X147220354Y-96834569D01*
X147826046Y-96834569D01*
X147824292Y-96918524D01*
X147804358Y-97015359D01*
X147752269Y-97095500D01*
X147673102Y-97154119D01*
X147571935Y-97186388D01*
X147538664Y-97190166D01*
X147460518Y-97189946D01*
X147399454Y-97173494D01*
X147364128Y-97155020D01*
X147295593Y-97097598D01*
X147243806Y-97022528D01*
X147223631Y-96964094D01*
X147359233Y-96964094D01*
X147366444Y-96980271D01*
X147398837Y-97021109D01*
X147420862Y-97038292D01*
X147480549Y-97055879D01*
X147553616Y-97055617D01*
X147619170Y-97038421D01*
X147636083Y-97028846D01*
X147668569Y-96996554D01*
X147679507Y-96970230D01*
X147671550Y-96956043D01*
X147643338Y-96947352D01*
X147588356Y-96943053D01*
X147512743Y-96942030D01*
X147432485Y-96942535D01*
X147384610Y-96945214D01*
X147362423Y-96951817D01*
X147359233Y-96964094D01*
X147223631Y-96964094D01*
X147216183Y-96942521D01*
X147214230Y-96898088D01*
G37*
G36*
X146415177Y-95719426D02*
G01*
X146461212Y-95772253D01*
X146492592Y-95815655D01*
X146522307Y-95842639D01*
X146562210Y-95859619D01*
X146624155Y-95873011D01*
X146658242Y-95878881D01*
X146816772Y-95918190D01*
X146943024Y-95977170D01*
X147023804Y-96042045D01*
X147058943Y-96095143D01*
X147063027Y-96139678D01*
X147042035Y-96168408D01*
X147001946Y-96174091D01*
X146948739Y-96149483D01*
X146940405Y-96143063D01*
X146818987Y-96067777D01*
X146688842Y-96028763D01*
X146555509Y-96026120D01*
X146424526Y-96059945D01*
X146301431Y-96130335D01*
X146299517Y-96131789D01*
X146252658Y-96164820D01*
X146220890Y-96176438D01*
X146189832Y-96170889D01*
X146179930Y-96167090D01*
X146159924Y-96141087D01*
X146157305Y-96098464D01*
X146171696Y-96057405D01*
X146182469Y-96045208D01*
X146195113Y-96026009D01*
X146184884Y-95999967D01*
X146152207Y-95961574D01*
X146112336Y-95905157D01*
X146101809Y-95856964D01*
X146120669Y-95823466D01*
X146151211Y-95812248D01*
X146202021Y-95824322D01*
X146251858Y-95865979D01*
X146297117Y-95904035D01*
X146340650Y-95924758D01*
X146350555Y-95926030D01*
X146393156Y-95926030D01*
X146351086Y-95857959D01*
X146319676Y-95788054D01*
X146316261Y-95734672D01*
X146334960Y-95702389D01*
X146369892Y-95695781D01*
X146415177Y-95719426D01*
G37*
G36*
X147551229Y-98143434D02*
G01*
X147562277Y-98172652D01*
X147548244Y-98214208D01*
X147515448Y-98237780D01*
X147489007Y-98237086D01*
X147470676Y-98213123D01*
X147464999Y-98172386D01*
X147473201Y-98135471D01*
X147482360Y-98125197D01*
X147518630Y-98121708D01*
X147551229Y-98143434D01*
G37*
X146206800Y-107245036D02*
X146206800Y-107029364D01*
X145486800Y-107245036D02*
X145486800Y-107029364D01*
X144450800Y-107290841D02*
X144450800Y-106983559D01*
X145210800Y-107290841D02*
X145210800Y-106983559D01*
%LPC*%
D14*
X143357600Y-126680000D03*
X143357600Y-125720000D03*
D15*
X144030000Y-117000000D03*
X143070000Y-117000000D03*
D16*
X142320000Y-122500000D03*
X143280000Y-122500000D03*
D15*
X142380000Y-118300000D03*
X141420000Y-118300000D03*
X146030000Y-122900000D03*
X145070000Y-122900000D03*
D16*
X155720000Y-121600000D03*
X156680000Y-121600000D03*
X155720000Y-122800000D03*
X156680000Y-122800000D03*
D17*
X141442300Y-128219200D03*
X138567300Y-128219200D03*
D16*
X139970000Y-122529600D03*
X140930000Y-122529600D03*
D18*
X147300000Y-124420000D03*
X147300000Y-125380000D03*
D15*
X147280000Y-114500000D03*
X146320000Y-114500000D03*
D19*
X138047300Y-122782226D03*
X138047300Y-125657226D03*
D15*
X144853600Y-118364000D03*
X143893600Y-118364000D03*
D18*
X150800000Y-124820000D03*
X150800000Y-125780000D03*
D16*
X155720000Y-120400000D03*
X156680000Y-120400000D03*
D14*
X154600000Y-125180000D03*
X154600000Y-124220000D03*
X153400000Y-125180000D03*
X153400000Y-124220000D03*
D16*
X152320000Y-130800000D03*
X153280000Y-130800000D03*
X152270000Y-126900000D03*
X153230000Y-126900000D03*
D15*
X155680000Y-131500000D03*
X154720000Y-131500000D03*
X138910000Y-121208800D03*
X137950000Y-121208800D03*
D18*
X144145000Y-112245200D03*
X144145000Y-113205200D03*
D17*
X143037500Y-106700000D03*
X140162500Y-106700000D03*
D20*
X155715000Y-125679200D03*
X156685000Y-125679200D03*
D21*
X144000000Y-87280000D03*
X145100000Y-87280000D03*
X146200000Y-87280000D03*
D22*
X147300000Y-87130000D03*
D21*
X148400000Y-87280000D03*
D22*
X149500000Y-87130000D03*
D21*
X150600000Y-87280000D03*
X151700000Y-87280000D03*
D20*
X140912300Y-130094726D03*
X141882300Y-130094726D03*
X142665000Y-108700000D03*
X143635000Y-108700000D03*
D23*
X145900000Y-128941100D03*
X146550000Y-128941100D03*
X147200000Y-128941100D03*
X147850000Y-128941100D03*
X148500000Y-128941100D03*
D24*
X150100000Y-131641100D03*
D25*
X144700000Y-128941100D03*
X149700000Y-128941100D03*
D26*
X150700000Y-131641100D03*
D24*
X144300000Y-131641100D03*
D27*
X148200000Y-131641100D03*
D26*
X143700000Y-131641100D03*
D27*
X146200000Y-131641100D03*
D28*
X140800000Y-110150000D03*
X140800000Y-112050000D03*
X142800000Y-111100000D03*
X140800000Y-113650000D03*
X140800000Y-115550000D03*
X142800000Y-114600000D03*
D29*
X145500000Y-117160000D03*
X145500000Y-116140000D03*
D30*
X144422400Y-126695200D03*
X145442400Y-126695200D03*
D31*
X144983200Y-120597200D03*
X144983200Y-121617200D03*
D32*
X146060000Y-125400000D03*
X145040000Y-125400000D03*
D30*
X155690000Y-124000000D03*
X156710000Y-124000000D03*
D32*
X153510000Y-129500000D03*
X152490000Y-129500000D03*
X153510000Y-128200000D03*
X152490000Y-128200000D03*
D30*
X140740000Y-108700000D03*
X141760000Y-108700000D03*
X140840000Y-117000000D03*
X141860000Y-117000000D03*
D33*
X147950000Y-122550000D03*
X148450000Y-122550000D03*
X148950000Y-122550000D03*
X149450000Y-122550000D03*
X149950000Y-122550000D03*
X150450000Y-122550000D03*
X150950000Y-122550000D03*
X151450000Y-122550000D03*
X151950000Y-122550000D03*
X152450000Y-122550000D03*
X152950000Y-122550000D03*
X153450000Y-122550000D03*
D34*
X154100000Y-121900000D03*
X154100000Y-121400000D03*
X154100000Y-120900000D03*
X154100000Y-120400000D03*
X154100000Y-119900000D03*
X154100000Y-119400000D03*
X154100000Y-118900000D03*
X154100000Y-118400000D03*
X154100000Y-117900000D03*
X154100000Y-117400000D03*
X154100000Y-116900000D03*
X154100000Y-116400000D03*
D33*
X153450000Y-115750000D03*
X152950000Y-115750000D03*
X152450000Y-115750000D03*
X151950000Y-115750000D03*
X151450000Y-115750000D03*
X150950000Y-115750000D03*
X150450000Y-115750000D03*
X149950000Y-115750000D03*
X149450000Y-115750000D03*
X148950000Y-115750000D03*
X148450000Y-115750000D03*
X147950000Y-115750000D03*
D34*
X147300000Y-116400000D03*
X147300000Y-116900000D03*
X147300000Y-117400000D03*
X147300000Y-117900000D03*
X147300000Y-118400000D03*
X147300000Y-118900000D03*
X147300000Y-119400000D03*
X147300000Y-119900000D03*
X147300000Y-120400000D03*
X147300000Y-120900000D03*
X147300000Y-121400000D03*
X147300000Y-121900000D03*
D35*
X151343750Y-119793750D03*
X148768750Y-121081250D03*
X151343750Y-117218750D03*
X150056250Y-118506250D03*
X148768750Y-119793750D03*
X152631250Y-119793750D03*
X148768750Y-118506250D03*
X152631250Y-118506250D03*
X151343750Y-118506250D03*
X151343750Y-121081250D03*
X152631250Y-117218750D03*
X148768750Y-117218750D03*
X150056250Y-119793750D03*
X150056250Y-117218750D03*
X150056250Y-121081250D03*
X152631250Y-121081250D03*
D36*
X154800000Y-130300000D03*
X155300000Y-130300000D03*
X155800000Y-130300000D03*
X156300000Y-130300000D03*
X156800000Y-130300000D03*
X156800000Y-127200000D03*
X156300000Y-127200000D03*
X155800000Y-127200000D03*
X155300000Y-127200000D03*
X154800000Y-127200000D03*
D37*
X155800000Y-128750000D03*
D38*
X139250000Y-116950000D03*
X138300000Y-116950000D03*
X137350000Y-116950000D03*
X137350000Y-119650000D03*
X139250000Y-119650000D03*
D39*
X148000000Y-106125000D03*
X148000000Y-106775000D03*
X148000000Y-107425000D03*
X148000000Y-108075000D03*
X148000000Y-108725000D03*
X148000000Y-109375000D03*
X148000000Y-110025000D03*
X148000000Y-110675000D03*
X148000000Y-111325000D03*
X148000000Y-111975000D03*
X148000000Y-112625000D03*
X148000000Y-113275000D03*
X153600000Y-113275000D03*
X153600000Y-112625000D03*
X153600000Y-111975000D03*
X153600000Y-111325000D03*
X153600000Y-110675000D03*
X153600000Y-110025000D03*
X153600000Y-109375000D03*
X153600000Y-108725000D03*
X153600000Y-108075000D03*
X153600000Y-107425000D03*
X153600000Y-106775000D03*
X153600000Y-106125000D03*
D40*
X140147300Y-126232226D03*
X141097300Y-126232226D03*
X142047300Y-126232226D03*
X142047300Y-123957226D03*
X140147300Y-123957226D03*
D32*
X139610000Y-131400000D03*
X138590000Y-131400000D03*
D29*
X156800000Y-110810000D03*
X156800000Y-109790000D03*
D31*
X156800000Y-107890000D03*
X156800000Y-108910000D03*
D20*
X140915000Y-131400000D03*
X141885000Y-131400000D03*
D41*
X156785000Y-112600000D03*
X155815000Y-112600000D03*
X156785000Y-105600000D03*
X155815000Y-105600000D03*
D42*
X141725000Y-121100000D03*
X143475000Y-121100000D03*
X143475000Y-119700000D03*
X141725000Y-119700000D03*
D31*
X137920000Y-112430000D03*
X137920000Y-113450000D03*
D32*
X138750000Y-108760000D03*
X137730000Y-108760000D03*
D43*
X152100000Y-125885000D03*
X152100000Y-124915000D03*
D18*
X149600000Y-124220000D03*
X149600000Y-125180000D03*
D15*
X146030000Y-124100000D03*
X145070000Y-124100000D03*
X139777300Y-130094726D03*
X138817300Y-130094726D03*
D14*
X145846800Y-107617200D03*
X145846800Y-106657200D03*
D29*
X144830800Y-107647200D03*
X144830800Y-106627200D03*
M02*
