%TF.GenerationSoftware,KiCad,Pcbnew,6.0.6*%
%TF.CreationDate,2022-08-23T18:22:02-07:00*%
%TF.ProjectId,SDWire,53445769-7265-42e6-9b69-6361645f7063,1.4 r1*%
%TF.SameCoordinates,Original*%
%TF.FileFunction,Copper,L1,Top*%
%TF.FilePolarity,Positive*%
%FSLAX46Y46*%
G04 Gerber Fmt 4.6, Leading zero omitted, Abs format (unit mm)*
G04 Created by KiCad (PCBNEW 6.0.6) date 2022-08-23 18:22:02*
%MOMM*%
%LPD*%
G01*
G04 APERTURE LIST*
G04 Aperture macros list*
%AMRoundRect*
0 Rectangle with rounded corners*
0 $1 Rounding radius*
0 $2 $3 $4 $5 $6 $7 $8 $9 X,Y pos of 4 corners*
0 Add a 4 corners polygon primitive as box body*
4,1,4,$2,$3,$4,$5,$6,$7,$8,$9,$2,$3,0*
0 Add four circle primitives for the rounded corners*
1,1,$1+$1,$2,$3*
1,1,$1+$1,$4,$5*
1,1,$1+$1,$6,$7*
1,1,$1+$1,$8,$9*
0 Add four rect primitives between the rounded corners*
20,1,$1+$1,$2,$3,$4,$5,0*
20,1,$1+$1,$4,$5,$6,$7,0*
20,1,$1+$1,$6,$7,$8,$9,0*
20,1,$1+$1,$8,$9,$2,$3,0*%
G04 Aperture macros list end*
%TA.AperFunction,SMDPad,CuDef*%
%ADD10RoundRect,0.140000X0.170000X-0.140000X0.170000X0.140000X-0.170000X0.140000X-0.170000X-0.140000X0*%
%TD*%
%TA.AperFunction,SMDPad,CuDef*%
%ADD11RoundRect,0.140000X0.140000X0.170000X-0.140000X0.170000X-0.140000X-0.170000X0.140000X-0.170000X0*%
%TD*%
%TA.AperFunction,SMDPad,CuDef*%
%ADD12RoundRect,0.140000X-0.140000X-0.170000X0.140000X-0.170000X0.140000X0.170000X-0.140000X0.170000X0*%
%TD*%
%TA.AperFunction,SMDPad,CuDef*%
%ADD13RoundRect,0.250000X0.537500X0.425000X-0.537500X0.425000X-0.537500X-0.425000X0.537500X-0.425000X0*%
%TD*%
%TA.AperFunction,SMDPad,CuDef*%
%ADD14RoundRect,0.140000X-0.170000X0.140000X-0.170000X-0.140000X0.170000X-0.140000X0.170000X0.140000X0*%
%TD*%
%TA.AperFunction,SMDPad,CuDef*%
%ADD15RoundRect,0.250000X-0.425000X0.537500X-0.425000X-0.537500X0.425000X-0.537500X0.425000X0.537500X0*%
%TD*%
%TA.AperFunction,SMDPad,CuDef*%
%ADD16RoundRect,0.147500X-0.147500X-0.172500X0.147500X-0.172500X0.147500X0.172500X-0.147500X0.172500X0*%
%TD*%
%TA.AperFunction,SMDPad,CuDef*%
%ADD17R,0.800000X2.900000*%
%TD*%
%TA.AperFunction,SMDPad,CuDef*%
%ADD18R,0.800000X3.200000*%
%TD*%
%TA.AperFunction,SMDPad,CuDef*%
%ADD19R,0.400000X1.350000*%
%TD*%
%TA.AperFunction,SMDPad,CuDef*%
%ADD20R,1.200000X1.900000*%
%TD*%
%TA.AperFunction,ComponentPad*%
%ADD21C,1.450000*%
%TD*%
%TA.AperFunction,ComponentPad*%
%ADD22O,1.200000X1.900000*%
%TD*%
%TA.AperFunction,SMDPad,CuDef*%
%ADD23R,1.500000X1.900000*%
%TD*%
%TA.AperFunction,SMDPad,CuDef*%
%ADD24R,0.900000X0.800000*%
%TD*%
%TA.AperFunction,SMDPad,CuDef*%
%ADD25RoundRect,0.135000X0.185000X-0.135000X0.185000X0.135000X-0.185000X0.135000X-0.185000X-0.135000X0*%
%TD*%
%TA.AperFunction,SMDPad,CuDef*%
%ADD26RoundRect,0.135000X-0.135000X-0.185000X0.135000X-0.185000X0.135000X0.185000X-0.135000X0.185000X0*%
%TD*%
%TA.AperFunction,SMDPad,CuDef*%
%ADD27RoundRect,0.135000X-0.185000X0.135000X-0.185000X-0.135000X0.185000X-0.135000X0.185000X0.135000X0*%
%TD*%
%TA.AperFunction,SMDPad,CuDef*%
%ADD28RoundRect,0.135000X0.135000X0.185000X-0.135000X0.185000X-0.135000X-0.185000X0.135000X-0.185000X0*%
%TD*%
%TA.AperFunction,SMDPad,CuDef*%
%ADD29R,0.250000X0.700000*%
%TD*%
%TA.AperFunction,SMDPad,CuDef*%
%ADD30R,0.700000X0.250000*%
%TD*%
%TA.AperFunction,SMDPad,CuDef*%
%ADD31R,1.000000X1.000000*%
%TD*%
%TA.AperFunction,SMDPad,CuDef*%
%ADD32R,0.300000X0.650000*%
%TD*%
%TA.AperFunction,SMDPad,CuDef*%
%ADD33R,2.480000X1.550000*%
%TD*%
%TA.AperFunction,SMDPad,CuDef*%
%ADD34R,0.650000X1.560000*%
%TD*%
%TA.AperFunction,SMDPad,CuDef*%
%ADD35R,1.600000X0.350000*%
%TD*%
%TA.AperFunction,SMDPad,CuDef*%
%ADD36RoundRect,0.150000X0.150000X-0.512500X0.150000X0.512500X-0.150000X0.512500X-0.150000X-0.512500X0*%
%TD*%
%TA.AperFunction,SMDPad,CuDef*%
%ADD37RoundRect,0.147500X0.147500X0.172500X-0.147500X0.172500X-0.147500X-0.172500X0.147500X-0.172500X0*%
%TD*%
%TA.AperFunction,ComponentPad*%
%ADD38C,0.800000*%
%TD*%
%TA.AperFunction,SMDPad,CuDef*%
%ADD39R,1.150000X1.000000*%
%TD*%
%TA.AperFunction,SMDPad,CuDef*%
%ADD40RoundRect,0.147500X0.172500X-0.147500X0.172500X0.147500X-0.172500X0.147500X-0.172500X-0.147500X0*%
%TD*%
%TA.AperFunction,ViaPad*%
%ADD41C,0.800000*%
%TD*%
%TA.AperFunction,Conductor*%
%ADD42C,0.200000*%
%TD*%
%TA.AperFunction,Conductor*%
%ADD43C,0.250000*%
%TD*%
%TA.AperFunction,Conductor*%
%ADD44C,0.300000*%
%TD*%
%TA.AperFunction,Conductor*%
%ADD45C,0.400000*%
%TD*%
%TA.AperFunction,Conductor*%
%ADD46C,0.500000*%
%TD*%
G04 APERTURE END LIST*
D10*
X143357600Y-126680000D03*
X143357600Y-125720000D03*
D11*
X144030000Y-117000000D03*
X143070000Y-117000000D03*
D12*
X142320000Y-122500000D03*
X143280000Y-122500000D03*
D11*
X142380000Y-118300000D03*
X141420000Y-118300000D03*
X146030000Y-122900000D03*
X145070000Y-122900000D03*
D12*
X155720000Y-121600000D03*
X156680000Y-121600000D03*
X155720000Y-122800000D03*
X156680000Y-122800000D03*
D13*
X141442300Y-128219200D03*
X138567300Y-128219200D03*
D12*
X139970000Y-122529600D03*
X140930000Y-122529600D03*
D14*
X147300000Y-124420000D03*
X147300000Y-125380000D03*
D11*
X147280000Y-114500000D03*
X146320000Y-114500000D03*
D15*
X138047300Y-122782226D03*
X138047300Y-125657226D03*
D11*
X144853600Y-118364000D03*
X143893600Y-118364000D03*
D14*
X150800000Y-124820000D03*
X150800000Y-125780000D03*
D12*
X155720000Y-120400000D03*
X156680000Y-120400000D03*
D10*
X154600000Y-125180000D03*
X154600000Y-124220000D03*
X153400000Y-125180000D03*
X153400000Y-124220000D03*
D12*
X152320000Y-130800000D03*
X153280000Y-130800000D03*
X152270000Y-126900000D03*
X153230000Y-126900000D03*
D11*
X155680000Y-131500000D03*
X154720000Y-131500000D03*
X138910000Y-121208800D03*
X137950000Y-121208800D03*
D14*
X144145000Y-112245200D03*
X144145000Y-113205200D03*
D13*
X143037500Y-106700000D03*
X140162500Y-106700000D03*
D16*
X155715000Y-125679200D03*
X156685000Y-125679200D03*
D17*
X144000000Y-87280000D03*
X145100000Y-87280000D03*
X146200000Y-87280000D03*
D18*
X147300000Y-87130000D03*
D17*
X148400000Y-87280000D03*
D18*
X149500000Y-87130000D03*
D17*
X150600000Y-87280000D03*
X151700000Y-87280000D03*
D16*
X140912300Y-130094726D03*
X141882300Y-130094726D03*
X142665000Y-108700000D03*
X143635000Y-108700000D03*
D19*
X145900000Y-128941100D03*
X146550000Y-128941100D03*
X147200000Y-128941100D03*
X147850000Y-128941100D03*
X148500000Y-128941100D03*
D20*
X150100000Y-131641100D03*
D21*
X144700000Y-128941100D03*
X149700000Y-128941100D03*
D22*
X150700000Y-131641100D03*
D20*
X144300000Y-131641100D03*
D23*
X148200000Y-131641100D03*
D22*
X143700000Y-131641100D03*
D23*
X146200000Y-131641100D03*
D24*
X140800000Y-110150000D03*
X140800000Y-112050000D03*
X142800000Y-111100000D03*
X140800000Y-113650000D03*
X140800000Y-115550000D03*
X142800000Y-114600000D03*
D25*
X145500000Y-117160000D03*
X145500000Y-116140000D03*
D26*
X144422400Y-126695200D03*
X145442400Y-126695200D03*
D27*
X144983200Y-120597200D03*
X144983200Y-121617200D03*
D28*
X146060000Y-125400000D03*
X145040000Y-125400000D03*
D26*
X155690000Y-124000000D03*
X156710000Y-124000000D03*
D28*
X153510000Y-129500000D03*
X152490000Y-129500000D03*
X153510000Y-128200000D03*
X152490000Y-128200000D03*
D26*
X140740000Y-108700000D03*
X141760000Y-108700000D03*
X140840000Y-117000000D03*
X141860000Y-117000000D03*
D29*
X147950000Y-122550000D03*
X148450000Y-122550000D03*
X148950000Y-122550000D03*
X149450000Y-122550000D03*
X149950000Y-122550000D03*
X150450000Y-122550000D03*
X150950000Y-122550000D03*
X151450000Y-122550000D03*
X151950000Y-122550000D03*
X152450000Y-122550000D03*
X152950000Y-122550000D03*
X153450000Y-122550000D03*
D30*
X154100000Y-121900000D03*
X154100000Y-121400000D03*
X154100000Y-120900000D03*
X154100000Y-120400000D03*
X154100000Y-119900000D03*
X154100000Y-119400000D03*
X154100000Y-118900000D03*
X154100000Y-118400000D03*
X154100000Y-117900000D03*
X154100000Y-117400000D03*
X154100000Y-116900000D03*
X154100000Y-116400000D03*
D29*
X153450000Y-115750000D03*
X152950000Y-115750000D03*
X152450000Y-115750000D03*
X151950000Y-115750000D03*
X151450000Y-115750000D03*
X150950000Y-115750000D03*
X150450000Y-115750000D03*
X149950000Y-115750000D03*
X149450000Y-115750000D03*
X148950000Y-115750000D03*
X148450000Y-115750000D03*
X147950000Y-115750000D03*
D30*
X147300000Y-116400000D03*
X147300000Y-116900000D03*
X147300000Y-117400000D03*
X147300000Y-117900000D03*
X147300000Y-118400000D03*
X147300000Y-118900000D03*
X147300000Y-119400000D03*
X147300000Y-119900000D03*
X147300000Y-120400000D03*
X147300000Y-120900000D03*
X147300000Y-121400000D03*
X147300000Y-121900000D03*
D31*
X151343750Y-119793750D03*
X148768750Y-121081250D03*
X151343750Y-117218750D03*
X150056250Y-118506250D03*
X148768750Y-119793750D03*
X152631250Y-119793750D03*
X148768750Y-118506250D03*
X152631250Y-118506250D03*
X151343750Y-118506250D03*
X151343750Y-121081250D03*
X152631250Y-117218750D03*
X148768750Y-117218750D03*
X150056250Y-119793750D03*
X150056250Y-117218750D03*
X150056250Y-121081250D03*
X152631250Y-121081250D03*
D32*
X154800000Y-130300000D03*
X155300000Y-130300000D03*
X155800000Y-130300000D03*
X156300000Y-130300000D03*
X156800000Y-130300000D03*
X156800000Y-127200000D03*
X156300000Y-127200000D03*
X155800000Y-127200000D03*
X155300000Y-127200000D03*
X154800000Y-127200000D03*
D33*
X155800000Y-128750000D03*
D34*
X139250000Y-116950000D03*
X138300000Y-116950000D03*
X137350000Y-116950000D03*
X137350000Y-119650000D03*
X139250000Y-119650000D03*
D35*
X148000000Y-106125000D03*
X148000000Y-106775000D03*
X148000000Y-107425000D03*
X148000000Y-108075000D03*
X148000000Y-108725000D03*
X148000000Y-109375000D03*
X148000000Y-110025000D03*
X148000000Y-110675000D03*
X148000000Y-111325000D03*
X148000000Y-111975000D03*
X148000000Y-112625000D03*
X148000000Y-113275000D03*
X153600000Y-113275000D03*
X153600000Y-112625000D03*
X153600000Y-111975000D03*
X153600000Y-111325000D03*
X153600000Y-110675000D03*
X153600000Y-110025000D03*
X153600000Y-109375000D03*
X153600000Y-108725000D03*
X153600000Y-108075000D03*
X153600000Y-107425000D03*
X153600000Y-106775000D03*
X153600000Y-106125000D03*
D36*
X140147300Y-126232226D03*
X141097300Y-126232226D03*
X142047300Y-126232226D03*
X142047300Y-123957226D03*
X140147300Y-123957226D03*
D28*
X139610000Y-131400000D03*
X138590000Y-131400000D03*
D25*
X156800000Y-110810000D03*
X156800000Y-109790000D03*
D27*
X156800000Y-107890000D03*
X156800000Y-108910000D03*
D16*
X140915000Y-131400000D03*
X141885000Y-131400000D03*
D37*
X156785000Y-112600000D03*
X155815000Y-112600000D03*
X156785000Y-105600000D03*
X155815000Y-105600000D03*
D38*
X145100000Y-112400000D03*
X137400000Y-105700000D03*
X137400000Y-106700000D03*
X137400000Y-107700000D03*
X144200000Y-105300000D03*
X143300000Y-123500000D03*
X143300000Y-124400000D03*
X143200000Y-128400000D03*
X148590000Y-127965200D03*
X151300000Y-126700000D03*
X154200000Y-126200000D03*
X154200000Y-128800000D03*
X153400000Y-131600000D03*
X152800000Y-120400000D03*
X152000000Y-119400000D03*
X149400000Y-121100000D03*
X148800000Y-120400000D03*
D39*
X141725000Y-121100000D03*
X143475000Y-121100000D03*
X143475000Y-119700000D03*
X141725000Y-119700000D03*
D38*
X137720000Y-115620000D03*
D27*
X137920000Y-112430000D03*
X137920000Y-113450000D03*
D28*
X138750000Y-108760000D03*
X137730000Y-108760000D03*
D40*
X152100000Y-125885000D03*
X152100000Y-124915000D03*
D14*
X149600000Y-124220000D03*
X149600000Y-125180000D03*
D11*
X146030000Y-124100000D03*
X145070000Y-124100000D03*
X139777300Y-130094726D03*
X138817300Y-130094726D03*
D38*
X151993600Y-117805200D03*
D10*
X145846800Y-107617200D03*
X145846800Y-106657200D03*
D38*
X137210800Y-132232400D03*
D25*
X144830800Y-107647200D03*
X144830800Y-106627200D03*
D41*
X149500000Y-89400000D03*
X154800000Y-108700000D03*
X144170400Y-116078000D03*
X149400000Y-108700000D03*
X156427624Y-122203606D03*
X138300000Y-119500000D03*
X138047300Y-127000000D03*
X137700000Y-130100000D03*
X141100000Y-125100000D03*
X140652710Y-120200010D03*
X141126371Y-123255226D03*
X156644968Y-119800000D03*
X154000000Y-123600000D03*
X144951364Y-117459998D03*
X148300000Y-114040002D03*
X156800000Y-118500000D03*
X153200000Y-126000000D03*
X139900000Y-121900000D03*
X155800000Y-106600000D03*
X155800000Y-132000000D03*
X139918535Y-120864156D03*
X155800000Y-111700000D03*
X149400000Y-109700000D03*
X144018000Y-111353600D03*
X155510106Y-124984694D03*
X147225521Y-115901471D03*
X156667200Y-124968000D03*
X140800000Y-114650096D03*
X147300000Y-102800000D03*
X146500000Y-111300000D03*
X142450000Y-131400000D03*
X144877814Y-119712151D03*
X146300058Y-126700000D03*
X145800000Y-118900000D03*
X147400016Y-126700000D03*
X155000000Y-114000000D03*
X151400000Y-104500000D03*
X138772656Y-118300005D03*
X156640042Y-131400000D03*
X155909930Y-107800000D03*
X154000000Y-113600000D03*
X150200000Y-114700000D03*
X155853956Y-110027565D03*
X137782706Y-118310087D03*
X154200000Y-122625002D03*
X140100000Y-131400000D03*
X156800000Y-111700000D03*
X156870400Y-107035600D03*
X151057012Y-123490002D03*
X152114054Y-123911755D03*
X145948400Y-109423200D03*
X144933873Y-109400211D03*
X144830800Y-110388400D03*
X149200000Y-111325000D03*
X146800000Y-113300000D03*
X146610498Y-107442000D03*
D42*
X149450000Y-115750000D02*
X149450000Y-114350000D01*
X149450000Y-114350000D02*
X150500000Y-113300000D01*
X150500000Y-113300000D02*
X150500000Y-110266400D01*
X150500000Y-110266400D02*
X150723600Y-109880400D01*
X150723600Y-109880400D02*
X150469600Y-109474000D01*
X150469600Y-109474000D02*
X150317200Y-109474000D01*
X150317200Y-109474000D02*
X150114000Y-109575600D01*
X150114000Y-109575600D02*
X150114000Y-112186000D01*
X150114000Y-112186000D02*
X149675000Y-112625000D01*
X149675000Y-112625000D02*
X148000000Y-112625000D01*
X151231600Y-114452400D02*
X151231600Y-114300000D01*
X151481600Y-113450000D02*
X151231600Y-113450000D01*
X154100000Y-116400000D02*
X154100000Y-115500000D01*
X151879200Y-115100000D02*
X151231600Y-114452400D01*
X154100000Y-115500000D02*
X153700000Y-115100000D01*
X151481600Y-114050000D02*
G75*
G03*
X151231600Y-114300000I0J-250000D01*
G01*
X151056600Y-112850000D02*
G75*
G03*
X150881600Y-113025000I0J-175000D01*
G01*
X150881600Y-113275000D02*
G75*
G03*
X151056600Y-113450000I175000J0D01*
G01*
X151731600Y-113800000D02*
X151731600Y-113700000D01*
X151481600Y-113450000D02*
G75*
G02*
X151731600Y-113700000I0J-250000D01*
G01*
X151231600Y-112675000D02*
G75*
G02*
X151056600Y-112850000I-175000J0D01*
G01*
X151731600Y-113800000D02*
G75*
G02*
X151481600Y-114050000I-250000J0D01*
G01*
X153700000Y-115100000D02*
X151879200Y-115100000D01*
X151231600Y-113450000D02*
X151056600Y-113450000D01*
X150881600Y-113275000D02*
X150881600Y-113025000D01*
X151231600Y-112675000D02*
X151231600Y-112453586D01*
X151231600Y-112453586D02*
X151231600Y-110490000D01*
X151231600Y-110490000D02*
X151696600Y-110025000D01*
X151696600Y-110025000D02*
X153600000Y-110025000D01*
X155900011Y-116549989D02*
X155550011Y-116549989D01*
X155500011Y-116499989D02*
G75*
G03*
X155550011Y-116549989I49989J-11D01*
G01*
X155900011Y-117149989D02*
X155975662Y-117149989D01*
X154680702Y-119900000D02*
X155600011Y-118980691D01*
X155600011Y-115899989D02*
X155600011Y-114965007D01*
X154100000Y-119900000D02*
X154680702Y-119900000D01*
X155550011Y-115950011D02*
G75*
G03*
X155500011Y-115999989I-11J-49989D01*
G01*
X155975662Y-116549989D02*
X155900011Y-116549989D01*
X155599989Y-115899989D02*
G75*
G02*
X155550011Y-115949989I-49989J-11D01*
G01*
X155600011Y-118980691D02*
X155600011Y-117449989D01*
X155500011Y-116499989D02*
X155500011Y-115999989D01*
X155975662Y-116550038D02*
G75*
G02*
X156275662Y-116849989I38J-299962D01*
G01*
X155700000Y-114350800D02*
X155700000Y-113700000D01*
X156275689Y-116849989D02*
G75*
G02*
X155975662Y-117149989I-299989J-11D01*
G01*
X155900011Y-117150011D02*
G75*
G03*
X155600011Y-117449989I-11J-299989D01*
G01*
X155700000Y-113700000D02*
X155100012Y-113100012D01*
X155600011Y-114965007D02*
X155600011Y-114450789D01*
X155600011Y-114450789D02*
X155700000Y-114350800D01*
X155100012Y-113100012D02*
X155100012Y-111970812D01*
X155100012Y-111970812D02*
X154454200Y-111325000D01*
X154454200Y-111325000D02*
X153600000Y-111325000D01*
X151999988Y-112426012D02*
X151999988Y-111926012D01*
X152099988Y-111826012D02*
X152099988Y-111326012D01*
X152049988Y-112476012D02*
G75*
G02*
X152099988Y-112526012I12J-49988D01*
G01*
X152099988Y-113855690D02*
X152099988Y-112526012D01*
X154750001Y-117799999D02*
X154750001Y-115519121D01*
X153930880Y-114700000D02*
X152944298Y-114700000D01*
X154750001Y-115519121D02*
X153930880Y-114700000D01*
X154650000Y-117900000D02*
X154750001Y-117799999D01*
X154100000Y-117900000D02*
X154650000Y-117900000D01*
X151999988Y-112426012D02*
G75*
G03*
X152049988Y-112476012I50012J12D01*
G01*
X152100012Y-111826012D02*
G75*
G02*
X152049988Y-111876012I-50012J12D01*
G01*
X152049988Y-111875988D02*
G75*
G03*
X151999988Y-111926012I12J-50012D01*
G01*
X152099988Y-111326012D02*
X152099988Y-111175012D01*
X152944298Y-114700000D02*
X152099988Y-113855690D01*
X152600000Y-110675000D02*
X153600000Y-110675000D01*
X152099988Y-111175012D02*
X152600000Y-110675000D01*
D43*
X149970036Y-96268000D02*
X150300000Y-96268000D01*
X150900000Y-96868000D02*
X149970036Y-96868000D01*
X150600000Y-104825000D02*
X150600000Y-97768000D01*
X152550000Y-106775000D02*
X150600000Y-104825000D01*
X150900000Y-97468000D02*
X150929964Y-97468000D01*
X149670000Y-96568000D02*
G75*
G03*
X149970036Y-96868000I300000J0D01*
G01*
X153600000Y-106775000D02*
X152550000Y-106775000D01*
X150600000Y-95968000D02*
G75*
G02*
X150300000Y-96268000I-300000J0D01*
G01*
X150600000Y-92802970D02*
X150600000Y-87280000D01*
X149970036Y-96268036D02*
G75*
G03*
X149670036Y-96568000I-36J-299964D01*
G01*
X150929964Y-96868036D02*
G75*
G02*
X151229964Y-97168000I36J-299964D01*
G01*
X151230000Y-97168000D02*
G75*
G02*
X150929964Y-97468000I-300000J0D01*
G01*
X150929964Y-96868000D02*
X150900000Y-96868000D01*
X150900000Y-97468000D02*
G75*
G03*
X150600000Y-97768000I0J-300000D01*
G01*
X150600000Y-95968000D02*
X150600000Y-92802970D01*
D42*
X154100000Y-119400000D02*
X154615002Y-119400000D01*
X154615002Y-119400000D02*
X155150012Y-118864990D01*
X154610587Y-114814007D02*
X154610587Y-114808686D01*
X152499999Y-112075001D02*
X152600000Y-111975000D01*
X155150012Y-118864990D02*
X155150012Y-115353432D01*
X152499999Y-113690001D02*
X152499999Y-112075001D01*
X155150012Y-115353432D02*
X154610587Y-114814007D01*
X154610587Y-114808686D02*
X154584325Y-114787744D01*
X154584325Y-114787744D02*
X154096581Y-114300000D01*
X153109998Y-114300000D02*
X152499999Y-113690001D01*
X154096581Y-114300000D02*
X153109998Y-114300000D01*
X152600000Y-111975000D02*
X153600000Y-111975000D01*
D44*
X137705274Y-130094726D02*
X137700000Y-130100000D01*
D42*
X147300000Y-117900000D02*
X148087500Y-117900000D01*
X151737500Y-119400000D02*
X151343750Y-119793750D01*
X145500000Y-126200000D02*
X145500000Y-126000000D01*
X141350000Y-119325000D02*
X141725000Y-119700000D01*
X150056250Y-119793750D02*
X151343750Y-119793750D01*
X150056250Y-118506250D02*
X150056250Y-119793750D01*
D44*
X140225000Y-106700000D02*
X137400000Y-106700000D01*
D42*
X145500000Y-126700000D02*
X145500000Y-126200000D01*
D44*
X138747300Y-130094726D02*
X137705274Y-130094726D01*
X156420000Y-128362500D02*
X154637500Y-128362500D01*
D42*
X145000000Y-125300000D02*
X145100000Y-125400000D01*
X156750000Y-121600000D02*
X156750000Y-122200000D01*
X145750000Y-114500000D02*
X145100000Y-113850000D01*
X148800000Y-121050000D02*
X148768750Y-121081250D01*
X145100000Y-125900000D02*
X145100000Y-125400000D01*
X143850000Y-117850000D02*
X143000000Y-117000000D01*
X141725000Y-119700000D02*
X140950000Y-119700000D01*
X150056250Y-117218750D02*
X151343750Y-117218750D01*
X156750000Y-120400000D02*
X156750000Y-121600000D01*
X145000000Y-122900000D02*
X145000000Y-123500000D01*
D44*
X138047300Y-127636700D02*
X138629800Y-128219200D01*
D42*
X151000000Y-126700000D02*
X151300000Y-126700000D01*
X148162500Y-117900000D02*
X148768750Y-118506250D01*
X152631250Y-118506250D02*
X152631250Y-119793750D01*
X151343750Y-118506250D02*
X152631250Y-118506250D01*
X153350000Y-130800000D02*
X153350000Y-131550000D01*
X154000000Y-126200000D02*
X153300000Y-126900000D01*
D44*
X138747300Y-128336700D02*
X138629800Y-128219200D01*
D42*
X156750000Y-123900000D02*
X156650000Y-124000000D01*
X143500000Y-125650000D02*
X143500000Y-124600000D01*
X147300000Y-125450000D02*
X147300000Y-125500000D01*
X154100000Y-121900000D02*
X152750000Y-121900000D01*
D44*
X154200000Y-128800000D02*
X156082500Y-128800000D01*
D42*
X149381250Y-121081250D02*
X149400000Y-121100000D01*
X145100000Y-113248400D02*
X145100000Y-112400000D01*
X143850000Y-117850000D02*
X143850000Y-118300000D01*
X154775000Y-108725000D02*
X154800000Y-108700000D01*
X145000000Y-123500000D02*
X145000000Y-124100000D01*
X145073200Y-113275200D02*
X145100000Y-113248400D01*
D44*
X138047300Y-127000000D02*
X138047300Y-127636700D01*
D42*
X155300000Y-128242500D02*
X155180000Y-128362500D01*
X150800000Y-125850000D02*
X150750000Y-125850000D01*
X154050000Y-123600000D02*
X154600000Y-124150000D01*
X145000000Y-124100000D02*
X145000000Y-125300000D01*
D44*
X138047300Y-125594726D02*
X138047300Y-127000000D01*
D42*
X137350000Y-115990000D02*
X137720000Y-115620000D01*
X156431230Y-122200000D02*
X156427624Y-122203606D01*
X153350000Y-131550000D02*
X153400000Y-131600000D01*
X140652710Y-119997290D02*
X140652710Y-120200010D01*
X143922000Y-116078000D02*
X144170400Y-116078000D01*
X143350000Y-122500000D02*
X143350000Y-123450000D01*
D44*
X138650000Y-130192026D02*
X138747300Y-130094726D01*
D42*
X145200000Y-126000000D02*
X145100000Y-125900000D01*
D44*
X138747300Y-130094726D02*
X138747300Y-128336700D01*
D42*
X148768750Y-121081250D02*
X148768750Y-119793750D01*
X144860800Y-106657200D02*
X144830800Y-106627200D01*
X152631250Y-117218750D02*
X152631250Y-118506250D01*
D44*
X156750000Y-120400000D02*
X156750000Y-119850000D01*
D42*
X144145000Y-113275200D02*
X145073200Y-113275200D01*
X148768750Y-120368750D02*
X148800000Y-120400000D01*
X148000000Y-108725000D02*
X149375000Y-108725000D01*
X141725000Y-119700000D02*
X141940002Y-119700000D01*
X143340002Y-121100000D02*
X143475000Y-121100000D01*
X150037500Y-121100000D02*
X150056250Y-121081250D01*
X143500000Y-124600000D02*
X143300000Y-124400000D01*
X143000000Y-117000000D02*
X143922000Y-116078000D01*
D45*
X149500000Y-87130000D02*
X149500000Y-89400000D01*
D42*
X152000000Y-119400000D02*
X151737500Y-119400000D01*
X153600000Y-108725000D02*
X154775000Y-108725000D01*
X138300000Y-120858800D02*
X138300000Y-119500000D01*
D46*
X148500000Y-128055200D02*
X148590000Y-127965200D01*
D42*
X153400000Y-131600000D02*
X154550000Y-131600000D01*
X145100000Y-113850000D02*
X145100000Y-113248400D01*
D44*
X141097300Y-126194726D02*
X141097300Y-125102700D01*
D42*
X146800000Y-126000000D02*
X145500000Y-126000000D01*
X154000000Y-123600000D02*
X154050000Y-123600000D01*
X154200000Y-126200000D02*
X154000000Y-126200000D01*
X153450000Y-124150000D02*
X154000000Y-123600000D01*
X140930000Y-123058855D02*
X141126371Y-123255226D01*
X155180000Y-128362500D02*
X155180000Y-129137500D01*
X148768750Y-119793750D02*
X150056250Y-119793750D01*
X155300000Y-127200000D02*
X155300000Y-128242500D01*
X152631250Y-121081250D02*
X152631250Y-119793750D01*
X148768750Y-118506250D02*
X148768750Y-119793750D01*
D46*
X148500000Y-128941100D02*
X148500000Y-128055200D01*
D42*
X152750000Y-121900000D02*
X152631250Y-121781250D01*
X149600000Y-125250000D02*
X149600000Y-125300000D01*
X141350000Y-118300000D02*
X141350000Y-119325000D01*
X150750000Y-125850000D02*
X150450000Y-126150000D01*
X152631250Y-119793750D02*
X151343750Y-119793750D01*
X151343750Y-121081250D02*
X152631250Y-121081250D01*
X156750000Y-122800000D02*
X156750000Y-123900000D01*
X145500000Y-126000000D02*
X145200000Y-126000000D01*
X149400000Y-121100000D02*
X150037500Y-121100000D01*
X154550000Y-131600000D02*
X154650000Y-131500000D01*
X149375000Y-108725000D02*
X149400000Y-108700000D01*
X144830800Y-106627200D02*
X144830800Y-105930800D01*
D44*
X156750000Y-119850000D02*
X156700000Y-119800000D01*
D42*
X140950000Y-119700000D02*
X140652710Y-119997290D01*
X140930000Y-122529600D02*
X140930000Y-123058855D01*
X151343750Y-118506250D02*
X151343750Y-119793750D01*
X141940002Y-119700000D02*
X143340002Y-121100000D01*
X143300000Y-123500000D02*
X145000000Y-123500000D01*
X137950000Y-121208800D02*
X138300000Y-120858800D01*
X156750000Y-122200000D02*
X156750000Y-122800000D01*
X148087500Y-117900000D02*
X148768750Y-117218750D01*
X149600000Y-125300000D02*
X150450000Y-126150000D01*
X150056250Y-118506250D02*
X151343750Y-118506250D01*
X152631250Y-121781250D02*
X152631250Y-121081250D01*
X148768750Y-117218750D02*
X150056250Y-117218750D01*
D44*
X156700000Y-119800000D02*
X156644968Y-119800000D01*
D42*
X145846800Y-106657200D02*
X144860800Y-106657200D01*
D44*
X141097300Y-125102700D02*
X141100000Y-125100000D01*
D42*
X153400000Y-124150000D02*
X153450000Y-124150000D01*
X148768750Y-121081250D02*
X149381250Y-121081250D01*
X148087500Y-117900000D02*
X148162500Y-117900000D01*
X150450000Y-126150000D02*
X151000000Y-126700000D01*
X151343750Y-121081250D02*
X151343750Y-119793750D01*
X143350000Y-123450000D02*
X143300000Y-123500000D01*
X146250000Y-114500000D02*
X145750000Y-114500000D01*
X148768750Y-119793750D02*
X148768750Y-120368750D01*
X156750000Y-122200000D02*
X156431230Y-122200000D01*
X147300000Y-125500000D02*
X146800000Y-126000000D01*
D44*
X154637500Y-128362500D02*
X154200000Y-128800000D01*
X138650000Y-131400000D02*
X138650000Y-130192026D01*
D42*
X150056250Y-121081250D02*
X151343750Y-121081250D01*
X151343750Y-117218750D02*
X152631250Y-117218750D01*
X137350000Y-117200000D02*
X137350000Y-115990000D01*
X148768750Y-118506250D02*
X150056250Y-118506250D01*
X144830800Y-105930800D02*
X144200000Y-105300000D01*
X148800000Y-120400000D02*
X148800000Y-121050000D01*
X150056250Y-119793750D02*
X150056250Y-121081250D01*
X144417600Y-126700000D02*
X144100000Y-126700000D01*
X144422400Y-126695200D02*
X144417600Y-126700000D01*
X144100000Y-126700000D02*
X144100000Y-127800000D01*
X143550000Y-126700000D02*
X143500000Y-126750000D01*
X144100000Y-127800000D02*
X144700000Y-128400000D01*
D46*
X150700000Y-131641100D02*
X143700000Y-131641100D01*
D42*
X144700000Y-128400000D02*
X144700000Y-128941100D01*
X144100000Y-126700000D02*
X143550000Y-126700000D01*
X147300000Y-116900000D02*
X146300000Y-116900000D01*
X145600000Y-116200000D02*
X145500000Y-116200000D01*
X145166000Y-116200000D02*
X145500000Y-116200000D01*
X146300000Y-116900000D02*
X145600000Y-116200000D01*
X144100000Y-117000000D02*
X144366000Y-117000000D01*
X144366000Y-117000000D02*
X145166000Y-116200000D01*
X145348500Y-121617200D02*
X146565700Y-120400000D01*
X142250000Y-122000000D02*
X142310000Y-121940000D01*
X142250000Y-122000000D02*
X142250000Y-121625000D01*
X142250000Y-121625000D02*
X141725000Y-121100000D01*
X145348500Y-121617200D02*
X144983200Y-121617200D01*
X146565700Y-120400000D02*
X147300000Y-120400000D01*
X142250000Y-122500000D02*
X142250000Y-122000000D01*
X144983200Y-121617200D02*
X144832800Y-121617200D01*
X142310000Y-121940000D02*
X144510000Y-121940000D01*
X144832800Y-121617200D02*
X144510000Y-121940000D01*
X145850000Y-120550000D02*
X146500000Y-119900000D01*
X143475000Y-119700000D02*
X143650000Y-119700000D01*
X145000000Y-120550000D02*
X145850000Y-120550000D01*
X143650000Y-119700000D02*
X144500000Y-120550000D01*
X142450000Y-118300000D02*
X142450000Y-118675000D01*
X144500000Y-120550000D02*
X145000000Y-120550000D01*
X142450000Y-118675000D02*
X143475000Y-119700000D01*
X146500000Y-119900000D02*
X147300000Y-119900000D01*
X146100000Y-124100000D02*
X146100000Y-122900000D01*
X146719298Y-120900000D02*
X146750000Y-120900000D01*
X146100000Y-122900000D02*
X146100000Y-121519298D01*
X146750000Y-120900000D02*
X147300000Y-120900000D01*
X146100000Y-121519298D02*
X146719298Y-120900000D01*
X155650000Y-122800000D02*
X155650000Y-121600000D01*
X155650000Y-121600000D02*
X154950000Y-120900000D01*
X154950000Y-120900000D02*
X154100000Y-120900000D01*
D44*
X140147300Y-127024726D02*
X140197301Y-127074727D01*
X140200000Y-128147426D02*
X140200000Y-128100000D01*
X140400000Y-129400000D02*
X140400000Y-130094726D01*
X141379800Y-128219200D02*
X140271774Y-128219200D01*
X140271774Y-128219200D02*
X140200000Y-128147426D01*
D42*
X142047300Y-127614200D02*
X141442300Y-128219200D01*
D44*
X140400000Y-130094726D02*
X139847300Y-130094726D01*
X140147300Y-126194726D02*
X140147300Y-127024726D01*
X140200000Y-129200000D02*
X140400000Y-129400000D01*
X140947300Y-130094726D02*
X140400000Y-130094726D01*
X142047300Y-127024726D02*
X142047300Y-126194726D01*
X140200000Y-127077426D02*
X140200000Y-128100000D01*
D42*
X142047300Y-126444726D02*
X142047300Y-127614200D01*
D44*
X140200000Y-128100000D02*
X140200000Y-129200000D01*
X140197301Y-127074727D02*
X140200000Y-127077426D01*
D42*
X152949999Y-125249999D02*
X152849999Y-125249999D01*
X155750000Y-130850000D02*
X155800000Y-130800000D01*
X152849999Y-125650001D02*
X153199998Y-126000000D01*
X147300000Y-117400000D02*
X146800000Y-117400000D01*
X155500000Y-108411272D02*
X155219929Y-108131201D01*
D44*
X139900000Y-123000000D02*
X140147300Y-123247300D01*
D46*
X140147300Y-123994726D02*
X139197300Y-123994726D01*
D42*
X155163954Y-109357248D02*
X155500000Y-109021202D01*
D46*
X139197300Y-123994726D02*
X138047300Y-122844726D01*
D42*
X155184999Y-126584999D02*
X155050000Y-126450000D01*
X152806400Y-125206400D02*
X152849999Y-125249999D01*
X152200000Y-125850000D02*
X152800001Y-125249999D01*
D44*
X139900000Y-121200000D02*
X139900000Y-122100000D01*
D46*
X156800000Y-114036311D02*
X155750000Y-112986311D01*
D44*
X155700000Y-112750000D02*
X155650000Y-112800000D01*
X148950000Y-115098587D02*
X148351413Y-114500000D01*
D42*
X156197002Y-126600000D02*
X156182001Y-126584999D01*
X154600000Y-125300000D02*
X154600000Y-125250000D01*
X155163954Y-111063954D02*
X155163954Y-109357248D01*
X155300000Y-130300000D02*
X155300000Y-130700000D01*
D44*
X156800000Y-118500000D02*
X155650000Y-119650000D01*
D42*
X149050000Y-116400000D02*
X153349999Y-116400001D01*
X152849999Y-125249999D02*
X152849999Y-125650001D01*
X153450000Y-116300000D02*
X153450000Y-115750000D01*
D44*
X148828798Y-110675000D02*
X149400000Y-110103798D01*
X148000000Y-110675000D02*
X148828798Y-110675000D01*
X149400000Y-110103798D02*
X149400000Y-109700000D01*
D42*
X156200000Y-130800000D02*
X156300000Y-130700000D01*
X148950000Y-116300000D02*
X149050000Y-116400000D01*
D44*
X140147300Y-123994726D02*
X142047300Y-123994726D01*
D42*
X138910000Y-121208800D02*
X139573891Y-121208800D01*
X155800000Y-130800000D02*
X156200000Y-130800000D01*
X139573891Y-121208800D02*
X139918535Y-120864156D01*
D46*
X155800000Y-131550000D02*
X155750000Y-131500000D01*
D42*
X155400000Y-130800000D02*
X155800000Y-130800000D01*
D46*
X156800000Y-118500000D02*
X156800000Y-114036311D01*
D42*
X144959998Y-117459998D02*
X145259999Y-117759999D01*
D44*
X148351413Y-114500000D02*
X147950000Y-114500000D01*
D42*
X146440001Y-117759999D02*
X146800000Y-117400000D01*
X145500000Y-117100000D02*
X145500000Y-117759999D01*
X155219929Y-107468799D02*
X155400001Y-107288727D01*
X152806400Y-123874361D02*
X152806400Y-125206400D01*
X148950000Y-115750000D02*
X148950000Y-116300000D01*
X155400001Y-106999999D02*
X155800000Y-106600000D01*
X154100000Y-120400000D02*
X155650000Y-120400000D01*
D44*
X139900000Y-122100000D02*
X139900000Y-122594726D01*
X155800000Y-112265685D02*
X155800000Y-111700000D01*
D42*
X155050000Y-126450000D02*
X155050000Y-125750000D01*
D44*
X139450000Y-119400000D02*
X139900000Y-119400000D01*
D42*
X155750000Y-131500000D02*
X155750000Y-130850000D01*
X153400000Y-125250000D02*
X154600000Y-125250000D01*
X156300000Y-127200000D02*
X156300000Y-126700000D01*
X145259999Y-117759999D02*
X145500000Y-117759999D01*
X155800000Y-130300000D02*
X155800000Y-130800000D01*
X139900000Y-122100000D02*
X139900000Y-121900000D01*
X156300000Y-126700000D02*
X156200000Y-126600000D01*
D44*
X140147300Y-123247300D02*
X140147300Y-123994726D01*
D42*
X153450000Y-123230761D02*
X152806400Y-123874361D01*
X155500000Y-109021202D02*
X155500000Y-108411272D01*
X145500000Y-117759999D02*
X146440001Y-117759999D01*
D44*
X139900000Y-121200000D02*
X139900000Y-119400000D01*
D42*
X155219929Y-108131201D02*
X155219929Y-107468799D01*
X155050000Y-125750000D02*
X154600000Y-125300000D01*
D44*
X155815000Y-105600000D02*
X155800000Y-106600000D01*
D42*
X153349999Y-116400001D02*
X153450000Y-116300000D01*
X153400000Y-125250000D02*
X152949999Y-125249999D01*
X153199998Y-126000000D02*
X153200000Y-126000000D01*
D44*
X139900000Y-120800000D02*
X139900000Y-121200000D01*
D46*
X148300000Y-114040002D02*
X148300000Y-114448587D01*
D42*
X156200000Y-126600000D02*
X156197002Y-126600000D01*
D44*
X139900000Y-122594726D02*
X139900000Y-123000000D01*
D46*
X155800000Y-132000000D02*
X155800000Y-131550000D01*
D42*
X155300000Y-130700000D02*
X155400000Y-130800000D01*
X156182001Y-126584999D02*
X155184999Y-126584999D01*
D44*
X148300000Y-114448587D02*
X148351413Y-114500000D01*
X148950000Y-115750000D02*
X148950000Y-115098587D01*
D46*
X155750000Y-112986311D02*
X155750000Y-112600000D01*
D42*
X144951364Y-117459998D02*
X144959998Y-117459998D01*
X156300000Y-130700000D02*
X156300000Y-130300000D01*
D44*
X155650000Y-119650000D02*
X155650000Y-120400000D01*
D42*
X155400001Y-107288727D02*
X155400001Y-106999999D01*
D44*
X147950000Y-114500000D02*
X147350000Y-114500000D01*
D42*
X155800000Y-111700000D02*
X155163954Y-111063954D01*
X152100000Y-125850000D02*
X152200000Y-125850000D01*
X152800001Y-125249999D02*
X152849999Y-125249999D01*
X153450000Y-122550000D02*
X153450000Y-123230761D01*
X149950000Y-123100000D02*
X150200000Y-123350000D01*
X150200000Y-124150000D02*
X149600000Y-124150000D01*
X147850000Y-118400000D02*
X147968749Y-118518749D01*
X147300000Y-118400000D02*
X147850000Y-118400000D01*
X147300000Y-121900000D02*
X148000000Y-121900000D01*
X148000000Y-121852502D02*
X148000000Y-121900000D01*
X147300000Y-124350000D02*
X147300000Y-121900000D01*
X149850000Y-121900000D02*
X149950000Y-122000000D01*
X151900000Y-124750000D02*
X152100000Y-124950000D01*
X147968749Y-118518749D02*
X147968749Y-121821251D01*
X149950000Y-122000000D02*
X149950000Y-122550000D01*
X150200000Y-124150000D02*
X150800000Y-124750000D01*
X146186401Y-118150009D02*
X146436392Y-118400000D01*
X147968749Y-121821251D02*
X148000000Y-121852502D01*
X144900000Y-118300000D02*
X145049991Y-118150009D01*
X149950000Y-122550000D02*
X149950000Y-123100000D01*
X150800000Y-124750000D02*
X151900000Y-124750000D01*
X145049991Y-118150009D02*
X146186401Y-118150009D01*
X148000000Y-121900000D02*
X149850000Y-121900000D01*
X150200000Y-123350000D02*
X150200000Y-124150000D01*
X146436392Y-118400000D02*
X147300000Y-118400000D01*
X152550000Y-130500000D02*
X152250000Y-130800000D01*
X152117158Y-129500000D02*
X151000000Y-128382842D01*
X150238453Y-127190011D02*
X149090011Y-127190011D01*
X151000000Y-127951558D02*
X150238453Y-127190011D01*
X152550000Y-129500000D02*
X152550000Y-130500000D01*
X147950000Y-126050000D02*
X147950000Y-122550000D01*
X149090011Y-127190011D02*
X147950000Y-126050000D01*
X151000000Y-128382842D02*
X151000000Y-127951558D01*
X152550000Y-129500000D02*
X152117158Y-129500000D01*
X152000000Y-128650000D02*
X151832842Y-128650000D01*
X151400000Y-128217158D02*
X151400000Y-127800000D01*
X151832842Y-128650000D02*
X151400000Y-128217158D01*
X152550000Y-128200000D02*
X152550000Y-127250000D01*
X152550000Y-128200000D02*
X152450000Y-128200000D01*
X152550000Y-127250000D02*
X152200000Y-126900000D01*
X152450000Y-128200000D02*
X152000000Y-128650000D01*
X148450000Y-123075000D02*
X148450000Y-122550000D01*
X148400000Y-125817158D02*
X148400000Y-123125000D01*
X151400000Y-127800000D02*
X150400000Y-126800000D01*
X148400000Y-123125000D02*
X148450000Y-123075000D01*
X150400000Y-126800000D02*
X149382842Y-126800000D01*
X149382842Y-126800000D02*
X148400000Y-125817158D01*
D44*
X144018000Y-111353600D02*
X143764400Y-111100000D01*
X144145000Y-111429800D02*
X144145000Y-112175200D01*
X142800000Y-111100000D02*
X142800000Y-111900000D01*
X142975000Y-106700000D02*
X142975000Y-107030571D01*
X144018000Y-111353600D02*
X144094200Y-111429800D01*
X144091300Y-109253129D02*
X144091300Y-110725700D01*
X144140000Y-110774400D02*
X144140000Y-111231600D01*
X143764400Y-111100000D02*
X142800000Y-111100000D01*
X142975000Y-107030571D02*
X144270000Y-108325571D01*
X144270000Y-109074429D02*
X144091300Y-109253129D01*
X142800000Y-111900000D02*
X142800000Y-114600000D01*
X144145000Y-110779400D02*
X144145000Y-111429800D01*
D42*
X144094200Y-111429800D02*
X144145000Y-111429800D01*
D44*
X144091300Y-110725700D02*
X144140000Y-110774400D01*
X144140000Y-110774400D02*
X144145000Y-110779400D01*
X144270000Y-108325571D02*
X144270000Y-109074429D01*
D42*
X155750000Y-124744800D02*
X155510106Y-124984694D01*
X155715000Y-125679200D02*
X155715000Y-125189588D01*
X155715000Y-125189588D02*
X155510106Y-124984694D01*
X155750000Y-124000000D02*
X155750000Y-124744800D01*
X156685000Y-125679200D02*
X156685000Y-124985800D01*
X147300000Y-115975950D02*
X147225521Y-115901471D01*
X147300000Y-116400000D02*
X147300000Y-115975950D01*
X156685000Y-124985800D02*
X156667200Y-124968000D01*
D43*
X152043782Y-101107050D02*
X151918633Y-101092949D01*
X152255365Y-102537425D02*
X152234567Y-102477988D01*
X152103219Y-101127848D02*
X152043782Y-101107050D01*
X154807904Y-105707904D02*
X154600000Y-105500000D01*
X152201065Y-102424669D02*
X152156538Y-102380142D01*
X151859196Y-101072151D02*
X151805877Y-101038649D01*
X152156538Y-101638649D02*
X152201065Y-101594122D01*
X151981208Y-101700000D02*
X152043782Y-101692949D01*
X151700000Y-103200000D02*
X151707050Y-103137425D01*
X151859196Y-102946640D02*
X151918633Y-102925842D01*
X152234567Y-102759595D02*
X152255365Y-102700158D01*
X153600000Y-107425000D02*
X154675000Y-107425000D01*
X152201065Y-102812914D02*
X152234567Y-102759595D01*
X151918633Y-102925842D02*
X152043782Y-102911741D01*
X151700000Y-103784999D02*
X151700000Y-103200000D01*
X151320828Y-101707521D02*
X151387584Y-101700000D01*
X151727848Y-103077988D02*
X151761350Y-103024669D01*
X152201065Y-101594122D02*
X152234567Y-101540803D01*
X152234567Y-101259196D02*
X152201065Y-101205877D01*
X152262416Y-101418792D02*
X152262416Y-101381208D01*
X151707050Y-103137425D02*
X151727848Y-103077988D01*
X151257419Y-102270290D02*
X151200538Y-102234549D01*
X152156538Y-102857441D02*
X152201065Y-102812914D01*
X154600000Y-105500000D02*
X153415001Y-105500000D01*
X152156538Y-102380142D02*
X152103219Y-102346640D01*
X154675000Y-107425000D02*
X154807904Y-107292095D01*
X151387584Y-101700000D02*
X151981208Y-101700000D01*
X152234567Y-102477988D02*
X152201065Y-102424669D01*
X152255365Y-101481366D02*
X152262416Y-101418792D01*
X151200538Y-102234549D02*
X151153035Y-102187046D01*
X151761350Y-100994122D02*
X151727848Y-100940803D01*
X151117294Y-101869834D02*
X151153035Y-101812953D01*
X152262416Y-102600000D02*
X152255365Y-102537425D01*
X151918633Y-101092949D02*
X151859196Y-101072151D01*
X152103219Y-101672151D02*
X152156538Y-101638649D01*
X152103219Y-102346640D02*
X152043782Y-102325842D01*
X152255365Y-101318633D02*
X152234567Y-101259196D01*
X152201065Y-101205877D02*
X152156538Y-101161350D01*
X151200538Y-101765450D02*
X151257419Y-101729709D01*
X151320828Y-102292478D02*
X151257419Y-102270290D01*
X151727848Y-100940803D02*
X151707050Y-100881366D01*
X152043782Y-101692949D02*
X152103219Y-101672151D01*
X152255365Y-102700158D02*
X152262416Y-102637584D01*
X151095106Y-101933243D02*
X151117294Y-101869834D01*
X151805877Y-102980142D02*
X151859196Y-102946640D01*
X153415001Y-105500000D02*
X151700000Y-103784999D01*
X152103219Y-102890943D02*
X152156538Y-102857441D01*
X152262416Y-101381208D02*
X152255365Y-101318633D01*
X151095106Y-102066756D02*
X151087584Y-102000000D01*
X152043782Y-102325842D02*
X151981208Y-102318792D01*
X151087584Y-102000000D02*
X151095106Y-101933243D01*
X151761350Y-103024669D02*
X151805877Y-102980142D01*
X151387584Y-102300000D02*
X151320828Y-102292478D01*
X152234567Y-101540803D02*
X152255365Y-101481366D01*
X151805877Y-101038649D02*
X151761350Y-100994122D01*
X152043782Y-102911741D02*
X152103219Y-102890943D01*
X151117294Y-102130165D02*
X151095106Y-102066756D01*
X151700000Y-102300000D02*
X151387584Y-102300000D01*
X152156538Y-101161350D02*
X152103219Y-101127848D01*
X151153035Y-102187046D02*
X151117294Y-102130165D01*
X151707050Y-100881366D02*
X151700000Y-100818792D01*
X151153035Y-101812953D02*
X151200538Y-101765450D01*
X151700000Y-102318792D02*
X151700000Y-102300000D01*
X151257419Y-101729709D02*
X151320828Y-101707521D01*
X154807904Y-107292095D02*
X154807904Y-105707904D01*
X151700000Y-100818792D02*
X151700000Y-87280000D01*
X152262416Y-102637584D02*
X152262416Y-102600000D01*
X151981208Y-102318792D02*
X151700000Y-102318792D01*
X148546554Y-93999363D02*
X148601271Y-94018509D01*
X148771200Y-94050636D02*
X148820285Y-94081478D01*
X147979715Y-94681478D02*
X147938724Y-94722469D01*
X148083517Y-95218509D02*
X148141122Y-95225000D01*
X147938724Y-94722469D02*
X147907882Y-94771554D01*
X147882245Y-94966123D02*
X147888736Y-95023728D01*
X152550000Y-108075000D02*
X153600000Y-108075000D01*
X148083517Y-94631490D02*
X148028800Y-94650636D01*
X148917755Y-94283877D02*
X148917755Y-94366123D01*
X148400000Y-95225000D02*
X148400000Y-95241123D01*
X148658878Y-94625000D02*
X148141122Y-94625000D01*
X148406490Y-96042394D02*
X148400000Y-96100000D01*
X148716483Y-94618509D02*
X148658878Y-94625000D01*
X148917755Y-94366123D02*
X148911264Y-94423728D01*
X148861276Y-94122469D02*
X148892118Y-94171554D01*
X148771200Y-95815486D02*
X148716483Y-95834632D01*
X148425636Y-93878445D02*
X148456478Y-93927530D01*
X148820285Y-95297601D02*
X148861276Y-95338592D01*
X148028800Y-95199363D02*
X148083517Y-95218509D01*
X147888736Y-95023728D02*
X147907882Y-95078445D01*
X148917755Y-95500000D02*
X148917755Y-95582246D01*
X148716483Y-95834632D02*
X148601271Y-95847613D01*
X147979715Y-95168521D02*
X148028800Y-95199363D01*
X148820285Y-95784644D02*
X148771200Y-95815486D01*
X148892118Y-95387677D02*
X148911264Y-95442394D01*
X147888736Y-94826271D02*
X147882245Y-94883877D01*
X148917755Y-95582246D02*
X148911264Y-95639851D01*
X148911264Y-95442394D02*
X148917755Y-95500000D01*
X148456478Y-93927530D02*
X148497469Y-93968521D01*
X148911264Y-94226271D02*
X148917755Y-94283877D01*
X148497469Y-93968521D02*
X148546554Y-93999363D01*
X148861276Y-95338592D02*
X148892118Y-95387677D01*
X148601271Y-95847613D02*
X148546554Y-95866759D01*
X147907882Y-94771554D02*
X147888736Y-94826271D01*
X148400000Y-95241123D02*
X148658877Y-95241123D01*
X148771200Y-95266759D02*
X148820285Y-95297601D01*
X148141122Y-95225000D02*
X148400000Y-95225000D01*
X148771200Y-94599363D02*
X148716483Y-94618509D01*
X147882245Y-94883877D02*
X147882245Y-94966123D01*
X148497469Y-95897601D02*
X148456478Y-95938592D01*
X148400000Y-96100000D02*
X148400000Y-103925000D01*
X148820285Y-94081478D02*
X148861276Y-94122469D01*
X148400000Y-87280000D02*
X148400000Y-93766123D01*
X147907882Y-95078445D02*
X147938724Y-95127530D01*
X148546554Y-95866759D02*
X148497469Y-95897601D01*
X148400000Y-93766123D02*
X148406490Y-93823728D01*
X148658877Y-95241123D02*
X148716483Y-95247613D01*
X148400000Y-103925000D02*
X152550000Y-108075000D01*
X148028800Y-94650636D02*
X147979715Y-94681478D01*
X148820285Y-94568521D02*
X148771200Y-94599363D01*
X148141122Y-94625000D02*
X148083517Y-94631490D01*
X148911264Y-94423728D02*
X148892118Y-94478445D01*
X148861276Y-95743653D02*
X148820285Y-95784644D01*
X148911264Y-95639851D02*
X148892118Y-95694568D01*
X148892118Y-95694568D02*
X148861276Y-95743653D01*
X148892118Y-94171554D02*
X148911264Y-94226271D01*
X148892118Y-94478445D02*
X148861276Y-94527530D01*
X148456478Y-95938592D02*
X148425636Y-95987677D01*
X148406490Y-93823728D02*
X148425636Y-93878445D01*
X148716483Y-94031490D02*
X148771200Y-94050636D01*
X147938724Y-95127530D02*
X147979715Y-95168521D01*
X148716483Y-95247613D02*
X148771200Y-95266759D01*
X148425636Y-95987677D02*
X148406490Y-96042394D01*
X148601271Y-94018509D02*
X148716483Y-94031490D01*
X148861276Y-94527530D02*
X148820285Y-94568521D01*
D45*
X140800000Y-115550000D02*
X140800000Y-114650096D01*
D43*
X140800000Y-115800000D02*
X140800000Y-114650096D01*
X141800000Y-116800000D02*
X140800000Y-115800000D01*
X141800000Y-117000000D02*
X141800000Y-116800000D01*
D45*
X147300000Y-87130000D02*
X147300000Y-102800000D01*
D43*
X146200000Y-102766000D02*
X146200000Y-87280000D01*
X153600000Y-109375000D02*
X152809000Y-109375000D01*
X152809000Y-109375000D02*
X146200000Y-102766000D01*
X145329914Y-97611696D02*
X145461521Y-97596867D01*
X144508564Y-95495718D02*
X144515979Y-95429914D01*
X148000000Y-106125000D02*
X147375000Y-106125000D01*
X144804282Y-96400000D02*
X145395718Y-96400000D01*
X147375000Y-106125000D02*
X145100000Y-103850000D01*
X145684021Y-94970085D02*
X145691436Y-94904282D01*
X144537850Y-96567410D02*
X144573081Y-96511340D01*
X144619905Y-96935483D02*
X144573081Y-96888659D01*
X145524025Y-97574996D02*
X145580095Y-97539765D01*
X144675975Y-94570714D02*
X144619905Y-94535483D01*
X144619905Y-96464516D02*
X144675975Y-96429285D01*
X145107414Y-97834196D02*
X145129285Y-97771692D01*
X145580095Y-95135483D02*
X145626919Y-95088659D01*
X144804282Y-94600000D02*
X144738479Y-94592585D01*
X145580095Y-94664516D02*
X145524025Y-94629285D01*
X144804282Y-97000000D02*
X144738479Y-96992585D01*
X145524025Y-95829285D02*
X145461521Y-95807414D01*
X144619905Y-94535483D02*
X144573081Y-94488659D01*
X145395718Y-97004282D02*
X145100000Y-97004282D01*
X145524025Y-94629285D02*
X145461521Y-94607414D01*
X145691436Y-94895718D02*
X145684021Y-94829914D01*
X145662150Y-95967410D02*
X145626919Y-95911340D01*
X145092586Y-93770085D02*
X145100000Y-93704282D01*
X145684021Y-97374367D02*
X145691436Y-97308564D01*
X145461521Y-95807414D02*
X145395718Y-95800000D01*
X144804282Y-95800000D02*
X144738479Y-95792585D01*
X145395718Y-96400000D02*
X145461521Y-96392585D01*
X145461521Y-96392585D02*
X145524025Y-96370714D01*
X145662150Y-96232589D02*
X145684021Y-96170085D01*
X144573081Y-94488659D02*
X144537850Y-94432589D01*
X144573081Y-94111340D02*
X144619905Y-94064516D01*
X145461521Y-94607414D02*
X145395718Y-94600000D01*
X145662150Y-97436871D02*
X145684021Y-97374367D01*
X145662150Y-95032589D02*
X145684021Y-94970085D01*
X145211340Y-97668798D02*
X145267410Y-97633567D01*
X144573081Y-96511340D02*
X144619905Y-96464516D01*
X144804282Y-95200000D02*
X145395718Y-95200000D01*
X145626919Y-96288659D02*
X145662150Y-96232589D01*
X144515979Y-96770085D02*
X144508564Y-96704282D01*
X144508564Y-96704282D02*
X144508564Y-96695718D01*
X145691436Y-96104282D02*
X145691436Y-96095718D01*
X144675975Y-96970714D02*
X144619905Y-96935483D01*
X144508564Y-94295718D02*
X144515979Y-94229914D01*
X145035484Y-93888659D02*
X145070715Y-93832589D01*
X145684021Y-97234196D02*
X145662150Y-97171692D01*
X145395718Y-95200000D02*
X145461521Y-95192585D01*
X145129285Y-97771692D02*
X145164516Y-97715622D01*
X145626919Y-94711340D02*
X145580095Y-94664516D01*
X144537850Y-95632589D02*
X144515979Y-95570085D01*
X145580095Y-96335483D02*
X145626919Y-96288659D01*
X145580095Y-97068798D02*
X145524025Y-97033567D01*
X144515979Y-95429914D02*
X144537850Y-95367410D01*
X145691436Y-94904282D02*
X145691436Y-94895718D01*
X144515979Y-94229914D02*
X144537850Y-94167410D01*
X145461521Y-97011696D02*
X145395718Y-97004282D01*
X145626919Y-95911340D02*
X145580095Y-95864516D01*
X145691436Y-96095718D02*
X145684021Y-96029914D01*
X144537850Y-94432589D02*
X144515979Y-94370085D01*
X145100000Y-97900000D02*
X145107414Y-97834196D01*
X145580095Y-97539765D02*
X145626919Y-97492941D01*
X145070715Y-93832589D02*
X145092586Y-93770085D01*
X144738479Y-94592585D02*
X144675975Y-94570714D01*
X144738479Y-95207414D02*
X144804282Y-95200000D01*
X145691436Y-97300000D02*
X145684021Y-97234196D01*
X145580095Y-95864516D02*
X145524025Y-95829285D01*
X145461521Y-97596867D02*
X145524025Y-97574996D01*
X145626919Y-97115622D02*
X145580095Y-97068798D01*
X144738479Y-96407414D02*
X144804282Y-96400000D01*
X144573081Y-96888659D02*
X144537850Y-96832589D01*
X144515979Y-95570085D02*
X144508564Y-95504282D01*
X145524025Y-95170714D02*
X145580095Y-95135483D01*
X144675975Y-95770714D02*
X144619905Y-95735483D01*
X144515979Y-96629914D02*
X144537850Y-96567410D01*
X145100000Y-97000000D02*
X144804282Y-97000000D01*
X144738479Y-94007414D02*
X144870086Y-93992585D01*
X145684021Y-94829914D02*
X145662150Y-94767410D01*
X144675975Y-96429285D02*
X144738479Y-96407414D01*
X144675975Y-94029285D02*
X144738479Y-94007414D01*
X144508564Y-94304282D02*
X144508564Y-94295718D01*
X144619905Y-94064516D02*
X144675975Y-94029285D01*
X144988660Y-93935483D02*
X145035484Y-93888659D01*
X145100000Y-103850000D02*
X145100000Y-97900000D01*
X145662150Y-94767410D02*
X145626919Y-94711340D01*
X144932590Y-93970714D02*
X144988660Y-93935483D01*
X144870086Y-93992585D02*
X144932590Y-93970714D01*
X144537850Y-95367410D02*
X144573081Y-95311340D01*
X145164516Y-97715622D02*
X145211340Y-97668798D01*
X144619905Y-95264516D02*
X144675975Y-95229285D01*
X145395718Y-95800000D02*
X144804282Y-95800000D01*
X145626919Y-97492941D02*
X145662150Y-97436871D01*
X144675975Y-95229285D02*
X144738479Y-95207414D01*
X145100000Y-97004282D02*
X145100000Y-97000000D01*
X145524025Y-97033567D02*
X145461521Y-97011696D01*
X145684021Y-96170085D02*
X145691436Y-96104282D01*
X144573081Y-95688659D02*
X144537850Y-95632589D01*
X144508564Y-96695718D02*
X144515979Y-96629914D01*
X145662150Y-97171692D02*
X145626919Y-97115622D01*
X145100000Y-93704282D02*
X145100000Y-87280000D01*
X144537850Y-96832589D02*
X144515979Y-96770085D01*
X145461521Y-95192585D02*
X145524025Y-95170714D01*
X145267410Y-97633567D02*
X145329914Y-97611696D01*
X144508564Y-95504282D02*
X144508564Y-95495718D01*
X144573081Y-95311340D02*
X144619905Y-95264516D01*
X144515979Y-94370085D02*
X144508564Y-94304282D01*
X145524025Y-96370714D02*
X145580095Y-96335483D01*
X145395718Y-94600000D02*
X144804282Y-94600000D01*
X145626919Y-95088659D02*
X145662150Y-95032589D01*
X144738479Y-96992585D02*
X144675975Y-96970714D01*
X144738479Y-95792585D02*
X144675975Y-95770714D01*
X145691436Y-97308564D02*
X145691436Y-97300000D01*
X144619905Y-95735483D02*
X144573081Y-95688659D01*
X144537850Y-94167410D02*
X144573081Y-94111340D01*
X145684021Y-96029914D02*
X145662150Y-95967410D01*
X143324669Y-101134000D02*
X144325331Y-101134000D01*
X144000000Y-98434000D02*
X144000000Y-87280000D01*
X143324669Y-100534000D02*
X144325331Y-100534000D01*
X144801500Y-104626500D02*
X144000000Y-103825000D01*
X146950000Y-106775000D02*
X148000000Y-106775000D01*
X145423999Y-105249000D02*
X146950000Y-106775000D01*
X143324669Y-99334000D02*
X144325331Y-99334000D01*
X143700000Y-102334000D02*
X143324669Y-102334000D01*
X144000000Y-103825000D02*
X144000000Y-102634000D01*
X143324669Y-101734000D02*
X144325331Y-101734000D01*
X145197971Y-104626499D02*
X145423999Y-104852527D01*
X144999735Y-104626499D02*
X144999736Y-104626501D01*
X145423999Y-105050763D02*
X145423999Y-105050764D01*
X144325331Y-98734000D02*
X144300000Y-98734000D01*
X143324669Y-99934000D02*
X144325331Y-99934000D01*
X143324669Y-100533969D02*
G75*
G03*
X143024669Y-100834000I31J-300031D01*
G01*
X145423982Y-105249017D02*
G75*
G02*
X145424000Y-105050765I99118J99117D01*
G01*
X144325331Y-99933969D02*
G75*
G02*
X144625331Y-100234000I-31J-300031D01*
G01*
X145423953Y-105050717D02*
G75*
G03*
X145423998Y-104852528I-99053J99117D01*
G01*
X144625300Y-101434000D02*
G75*
G02*
X144325331Y-101734000I-300000J0D01*
G01*
X144000000Y-98434000D02*
G75*
G03*
X144300000Y-98734000I300000J0D01*
G01*
X144625300Y-99034000D02*
G75*
G02*
X144325331Y-99334000I-300000J0D01*
G01*
X143700000Y-102334000D02*
G75*
G02*
X144000000Y-102634000I0J-300000D01*
G01*
X145197971Y-104626499D02*
G75*
G03*
X144999735Y-104626499I-99118J-99118D01*
G01*
X143024700Y-99634000D02*
G75*
G03*
X143324669Y-99934000I300000J0D01*
G01*
X144625300Y-100234000D02*
G75*
G02*
X144325331Y-100534000I-300000J0D01*
G01*
X144801483Y-104626517D02*
G75*
G03*
X144999735Y-104626499I99117J99117D01*
G01*
X143324669Y-99333969D02*
G75*
G03*
X143024669Y-99634000I31J-300031D01*
G01*
X144325331Y-98733969D02*
G75*
G02*
X144625331Y-99034000I-31J-300031D01*
G01*
X144325331Y-101133969D02*
G75*
G02*
X144625331Y-101434000I-31J-300031D01*
G01*
X143024700Y-102034000D02*
G75*
G03*
X143324669Y-102334000I300000J0D01*
G01*
X143324669Y-101733969D02*
G75*
G03*
X143024669Y-102034000I31J-300031D01*
G01*
X143024700Y-100834000D02*
G75*
G03*
X143324669Y-101134000I300000J0D01*
G01*
D42*
X148000000Y-110025000D02*
X147000000Y-110025000D01*
X146500000Y-110525000D02*
X146500000Y-110875736D01*
X146500000Y-110875736D02*
X146500000Y-111300000D01*
X147000000Y-110025000D02*
X146500000Y-110525000D01*
X141950000Y-131400000D02*
X142450000Y-131400000D01*
D45*
X142450000Y-130207200D02*
X142337526Y-130094726D01*
D46*
X145900000Y-129416100D02*
X145115700Y-130200400D01*
X145900000Y-128941100D02*
X145900000Y-129416100D01*
D45*
X142337526Y-130094726D02*
X141847300Y-130094726D01*
D46*
X145115700Y-130200400D02*
X142443200Y-130200400D01*
X142450000Y-130207200D02*
X142450000Y-131400000D01*
X142443200Y-130200400D02*
X142450000Y-130207200D01*
D42*
X141550001Y-110699999D02*
X140800000Y-111450000D01*
X142200000Y-108700000D02*
X142700000Y-108700000D01*
X141700000Y-108700000D02*
X142200000Y-108700000D01*
X141550001Y-109349999D02*
X141550001Y-110699999D01*
X140800000Y-111450000D02*
X140800000Y-112050000D01*
X142200000Y-108700000D02*
X141550001Y-109349999D01*
X141950012Y-110449988D02*
X143600000Y-108800000D01*
X144745199Y-115300001D02*
X142200001Y-115300001D01*
X142200001Y-115300001D02*
X141655690Y-114755690D01*
X148450000Y-115750000D02*
X148450000Y-115234998D01*
X143600000Y-108800000D02*
X143600000Y-108700000D01*
X148275002Y-115060000D02*
X144985200Y-115060000D01*
X141655690Y-114755690D02*
X141655690Y-111250012D01*
X144985200Y-115060000D02*
X144745199Y-115300001D01*
X141655690Y-111250012D02*
X141950012Y-110955690D01*
X141950012Y-110955690D02*
X141950012Y-110449988D01*
X148450000Y-115234998D02*
X148275002Y-115060000D01*
X144877814Y-119712151D02*
X146087849Y-119712151D01*
X146300058Y-126700000D02*
X146550000Y-126949942D01*
X146400000Y-119400000D02*
X146087849Y-119712151D01*
X147300000Y-119400000D02*
X146400000Y-119400000D01*
X146550000Y-126949942D02*
X146550000Y-128941100D01*
X147200000Y-126900016D02*
X147200000Y-128941100D01*
X147300000Y-118900000D02*
X145700000Y-118900000D01*
X147400016Y-126700000D02*
X147200000Y-126900016D01*
X138300000Y-117200000D02*
X138300000Y-117300000D01*
X156754555Y-130797002D02*
X156640042Y-130911515D01*
X154700001Y-113700000D02*
X154700001Y-113889965D01*
X156700000Y-108850000D02*
X155909930Y-108059930D01*
X138400000Y-117400000D02*
X138400000Y-117927349D01*
X156640042Y-130911515D02*
X156640042Y-131400000D01*
X154800000Y-114000000D02*
X154700001Y-113900001D01*
X155909930Y-108059930D02*
X155909930Y-107800000D01*
X154700001Y-113889965D02*
X154877267Y-114067231D01*
X152975000Y-106125000D02*
X151400000Y-104550000D01*
X154700001Y-112859999D02*
X154700001Y-113700000D01*
X156800000Y-130300000D02*
X156800000Y-130797002D01*
X156800000Y-108850000D02*
X156700000Y-108850000D01*
X138410001Y-115951201D02*
X138410001Y-114280001D01*
X138300000Y-117000000D02*
X138300000Y-116061202D01*
X138400000Y-117927349D02*
X138772656Y-118300005D01*
X151400000Y-104550000D02*
X151400000Y-104500000D01*
X154700001Y-113900001D02*
X154700001Y-113700000D01*
X153600000Y-106125000D02*
X152975000Y-106125000D01*
X153600000Y-112625000D02*
X154465002Y-112625000D01*
X154465002Y-112625000D02*
X154700001Y-112859999D01*
X138300000Y-117300000D02*
X138400000Y-117400000D01*
X137920000Y-113790000D02*
X137920000Y-113390000D01*
X138300000Y-116061202D02*
X138410001Y-115951201D01*
X155000000Y-114000000D02*
X154800000Y-114000000D01*
X156800000Y-130797002D02*
X156754555Y-130797002D01*
X138410001Y-114280001D02*
X137920000Y-113790000D01*
X146000000Y-125400000D02*
X146400000Y-125400000D01*
X146700001Y-122315003D02*
X146649999Y-122265001D01*
X146700001Y-125099999D02*
X146700001Y-122315003D01*
X146784998Y-121400000D02*
X147300000Y-121400000D01*
X146400000Y-125400000D02*
X146700001Y-125099999D01*
X146649999Y-122265001D02*
X146649999Y-121534999D01*
X146649999Y-121534999D02*
X146784998Y-121400000D01*
X154250000Y-130300000D02*
X153450000Y-129500000D01*
X154800000Y-130300000D02*
X154250000Y-130300000D01*
X154450000Y-127200000D02*
X153450000Y-128200000D01*
X154800000Y-127200000D02*
X154450000Y-127200000D01*
X153925000Y-113600000D02*
X154000000Y-113600000D01*
X149950000Y-114950000D02*
X150200000Y-114700000D01*
X153600000Y-113275000D02*
X153925000Y-113600000D01*
X149950000Y-115750000D02*
X149950000Y-114950000D01*
X153600000Y-113275000D02*
X154225000Y-113275000D01*
X154650000Y-121400000D02*
X154750001Y-121500001D01*
X137200000Y-114750000D02*
X136734999Y-115215001D01*
X137300000Y-118800000D02*
X137300000Y-119350000D01*
X156800000Y-109850000D02*
X156031521Y-109850000D01*
X137790000Y-109260000D02*
X137200000Y-109850000D01*
X137790000Y-108760000D02*
X137790000Y-109260000D01*
X154750001Y-121500001D02*
X154750001Y-122265001D01*
X136734999Y-117869989D02*
X136765010Y-117900000D01*
X137492620Y-118020001D02*
X137782706Y-118310087D01*
X154100000Y-121400000D02*
X154650000Y-121400000D01*
X137350000Y-119400000D02*
X137350000Y-118940000D01*
X137782706Y-118310087D02*
X137382707Y-118710086D01*
X156031521Y-109850000D02*
X155853956Y-110027565D01*
X154750001Y-122265001D02*
X154390000Y-122625002D01*
X154390000Y-122625002D02*
X154200000Y-122625002D01*
X137382707Y-118710086D02*
X137382707Y-118717293D01*
X137382707Y-118717293D02*
X137300000Y-118800000D01*
X137200000Y-109850000D02*
X137200000Y-114750000D01*
X136855000Y-118020001D02*
X137492620Y-118020001D01*
X136765010Y-117900000D02*
X136765010Y-117930011D01*
X136734999Y-115215001D02*
X136734999Y-117869989D01*
X137300000Y-119350000D02*
X137350000Y-119400000D01*
X136765010Y-117930011D02*
X136855000Y-118020001D01*
X140850000Y-131400000D02*
X140100000Y-131400000D01*
D44*
X140100000Y-131400000D02*
X139550000Y-131400000D01*
D42*
X156800000Y-112750000D02*
X156800000Y-112265685D01*
X156800000Y-112265685D02*
X156800000Y-111700000D01*
X156800000Y-110750000D02*
X156800000Y-111700000D01*
X156800000Y-107106000D02*
X156870400Y-107035600D01*
X156785000Y-106950200D02*
X156870400Y-107035600D01*
X156785000Y-105600000D02*
X156785000Y-106950200D01*
X156800000Y-107950000D02*
X156800000Y-107106000D01*
X140500000Y-117000000D02*
X140900000Y-117000000D01*
X139800000Y-113650000D02*
X138640000Y-112490000D01*
X140800000Y-113650000D02*
X139800000Y-113650000D01*
X138640000Y-112490000D02*
X137920000Y-112490000D01*
X140299999Y-116799999D02*
X140500000Y-117000000D01*
X139790000Y-115824300D02*
X140299999Y-116334299D01*
X140299999Y-116334299D02*
X140299999Y-116799999D01*
X139790000Y-115824300D02*
X139790000Y-113690000D01*
X140800000Y-108700000D02*
X140800000Y-110150000D01*
X138750000Y-108700000D02*
X138690000Y-108760000D01*
X140800000Y-108700000D02*
X138750000Y-108700000D01*
X151950000Y-122550000D02*
X151950000Y-123100000D01*
X151950000Y-123100000D02*
X151559998Y-123490002D01*
X151559998Y-123490002D02*
X151057012Y-123490002D01*
X152450000Y-123575809D02*
X152114054Y-123911755D01*
X152450000Y-122550000D02*
X152450000Y-123575809D01*
X147195000Y-108075000D02*
X145948400Y-109321600D01*
X145948400Y-109321600D02*
X145948400Y-109423200D01*
X148000000Y-108075000D02*
X147195000Y-108075000D01*
X146971701Y-109375000D02*
X146234001Y-110112700D01*
X148000000Y-109375000D02*
X146971701Y-109375000D01*
X146234001Y-110112700D02*
X145646362Y-110112700D01*
X145646362Y-110112700D02*
X144933873Y-109400211D01*
X144830800Y-111108578D02*
X144830800Y-110388400D01*
X145722222Y-112000000D02*
X144830800Y-111108578D01*
X147975000Y-112000000D02*
X145722222Y-112000000D01*
X148000000Y-111975000D02*
X147975000Y-112000000D01*
X149200000Y-111325000D02*
X148000000Y-111325000D01*
X148025000Y-111300000D02*
X149100002Y-111300000D01*
X149075002Y-111325000D02*
X149100002Y-111300000D01*
X148000000Y-111325000D02*
X149075002Y-111325000D01*
X147975000Y-113300000D02*
X148000000Y-113275000D01*
X146800000Y-113300000D02*
X147975000Y-113300000D01*
X145846800Y-107617200D02*
X146435298Y-107617200D01*
X144830800Y-107647200D02*
X145816800Y-107647200D01*
X146435298Y-107617200D02*
X146610498Y-107442000D01*
X145816800Y-107647200D02*
X145846800Y-107617200D01*
M02*
