%TF.GenerationSoftware,KiCad,Pcbnew,6.0.6*%
%TF.CreationDate,2022-08-23T18:22:02-07:00*%
%TF.ProjectId,SDWire,53445769-7265-42e6-9b69-6361645f7063,1.4 r1*%
%TF.SameCoordinates,Original*%
%TF.FileFunction,Paste,Top*%
%TF.FilePolarity,Positive*%
%FSLAX46Y46*%
G04 Gerber Fmt 4.6, Leading zero omitted, Abs format (unit mm)*
G04 Created by KiCad (PCBNEW 6.0.6) date 2022-08-23 18:22:02*
%MOMM*%
%LPD*%
G01*
G04 APERTURE LIST*
G04 Aperture macros list*
%AMRoundRect*
0 Rectangle with rounded corners*
0 $1 Rounding radius*
0 $2 $3 $4 $5 $6 $7 $8 $9 X,Y pos of 4 corners*
0 Add a 4 corners polygon primitive as box body*
4,1,4,$2,$3,$4,$5,$6,$7,$8,$9,$2,$3,0*
0 Add four circle primitives for the rounded corners*
1,1,$1+$1,$2,$3*
1,1,$1+$1,$4,$5*
1,1,$1+$1,$6,$7*
1,1,$1+$1,$8,$9*
0 Add four rect primitives between the rounded corners*
20,1,$1+$1,$2,$3,$4,$5,0*
20,1,$1+$1,$4,$5,$6,$7,0*
20,1,$1+$1,$6,$7,$8,$9,0*
20,1,$1+$1,$8,$9,$2,$3,0*%
G04 Aperture macros list end*
%ADD10RoundRect,0.140000X0.170000X-0.140000X0.170000X0.140000X-0.170000X0.140000X-0.170000X-0.140000X0*%
%ADD11RoundRect,0.140000X0.140000X0.170000X-0.140000X0.170000X-0.140000X-0.170000X0.140000X-0.170000X0*%
%ADD12RoundRect,0.140000X-0.140000X-0.170000X0.140000X-0.170000X0.140000X0.170000X-0.140000X0.170000X0*%
%ADD13RoundRect,0.250000X0.537500X0.425000X-0.537500X0.425000X-0.537500X-0.425000X0.537500X-0.425000X0*%
%ADD14RoundRect,0.140000X-0.170000X0.140000X-0.170000X-0.140000X0.170000X-0.140000X0.170000X0.140000X0*%
%ADD15RoundRect,0.250000X-0.425000X0.537500X-0.425000X-0.537500X0.425000X-0.537500X0.425000X0.537500X0*%
%ADD16RoundRect,0.147500X-0.147500X-0.172500X0.147500X-0.172500X0.147500X0.172500X-0.147500X0.172500X0*%
%ADD17R,0.400000X1.350000*%
%ADD18R,1.500000X1.900000*%
%ADD19R,0.900000X0.800000*%
%ADD20RoundRect,0.135000X0.185000X-0.135000X0.185000X0.135000X-0.185000X0.135000X-0.185000X-0.135000X0*%
%ADD21RoundRect,0.135000X-0.135000X-0.185000X0.135000X-0.185000X0.135000X0.185000X-0.135000X0.185000X0*%
%ADD22RoundRect,0.135000X-0.185000X0.135000X-0.185000X-0.135000X0.185000X-0.135000X0.185000X0.135000X0*%
%ADD23RoundRect,0.135000X0.135000X0.185000X-0.135000X0.185000X-0.135000X-0.185000X0.135000X-0.185000X0*%
%ADD24R,0.250000X0.700000*%
%ADD25R,0.700000X0.250000*%
%ADD26R,0.600000X0.600000*%
%ADD27R,1.050000X0.600000*%
%ADD28R,0.300000X0.650000*%
%ADD29R,0.650000X1.560000*%
%ADD30R,1.600000X0.350000*%
%ADD31RoundRect,0.150000X0.150000X-0.512500X0.150000X0.512500X-0.150000X0.512500X-0.150000X-0.512500X0*%
%ADD32RoundRect,0.147500X0.147500X0.172500X-0.147500X0.172500X-0.147500X-0.172500X0.147500X-0.172500X0*%
%ADD33R,1.150000X1.000000*%
%ADD34RoundRect,0.147500X0.172500X-0.147500X0.172500X0.147500X-0.172500X0.147500X-0.172500X-0.147500X0*%
G04 APERTURE END LIST*
D10*
X143357600Y-126680000D03*
X143357600Y-125720000D03*
D11*
X144030000Y-117000000D03*
X143070000Y-117000000D03*
D12*
X142320000Y-122500000D03*
X143280000Y-122500000D03*
D11*
X142380000Y-118300000D03*
X141420000Y-118300000D03*
X146030000Y-122900000D03*
X145070000Y-122900000D03*
D12*
X155720000Y-121600000D03*
X156680000Y-121600000D03*
X155720000Y-122800000D03*
X156680000Y-122800000D03*
D13*
X141442300Y-128219200D03*
X138567300Y-128219200D03*
D12*
X139970000Y-122529600D03*
X140930000Y-122529600D03*
D14*
X147300000Y-124420000D03*
X147300000Y-125380000D03*
D11*
X147280000Y-114500000D03*
X146320000Y-114500000D03*
D15*
X138047300Y-122782226D03*
X138047300Y-125657226D03*
D11*
X144853600Y-118364000D03*
X143893600Y-118364000D03*
D14*
X150800000Y-124820000D03*
X150800000Y-125780000D03*
D12*
X155720000Y-120400000D03*
X156680000Y-120400000D03*
D10*
X154600000Y-125180000D03*
X154600000Y-124220000D03*
X153400000Y-125180000D03*
X153400000Y-124220000D03*
D12*
X152320000Y-130800000D03*
X153280000Y-130800000D03*
X152270000Y-126900000D03*
X153230000Y-126900000D03*
D11*
X155680000Y-131500000D03*
X154720000Y-131500000D03*
X138910000Y-121208800D03*
X137950000Y-121208800D03*
D14*
X144145000Y-112245200D03*
X144145000Y-113205200D03*
D13*
X143037500Y-106700000D03*
X140162500Y-106700000D03*
D16*
X155715000Y-125679200D03*
X156685000Y-125679200D03*
X140912300Y-130094726D03*
X141882300Y-130094726D03*
X142665000Y-108700000D03*
X143635000Y-108700000D03*
D17*
X145900000Y-128941100D03*
X146550000Y-128941100D03*
X147200000Y-128941100D03*
X147850000Y-128941100D03*
X148500000Y-128941100D03*
D18*
X148200000Y-131641100D03*
X146200000Y-131641100D03*
D19*
X140800000Y-110150000D03*
X140800000Y-112050000D03*
X142800000Y-111100000D03*
X140800000Y-113650000D03*
X140800000Y-115550000D03*
X142800000Y-114600000D03*
D20*
X145500000Y-117160000D03*
X145500000Y-116140000D03*
D21*
X144422400Y-126695200D03*
X145442400Y-126695200D03*
D22*
X144983200Y-120597200D03*
X144983200Y-121617200D03*
D23*
X146060000Y-125400000D03*
X145040000Y-125400000D03*
D21*
X155690000Y-124000000D03*
X156710000Y-124000000D03*
D23*
X153510000Y-129500000D03*
X152490000Y-129500000D03*
X153510000Y-128200000D03*
X152490000Y-128200000D03*
D21*
X140740000Y-108700000D03*
X141760000Y-108700000D03*
X140840000Y-117000000D03*
X141860000Y-117000000D03*
D24*
X147950000Y-122550000D03*
X148450000Y-122550000D03*
X148950000Y-122550000D03*
X149450000Y-122550000D03*
X149950000Y-122550000D03*
X150450000Y-122550000D03*
X150950000Y-122550000D03*
X151450000Y-122550000D03*
X151950000Y-122550000D03*
X152450000Y-122550000D03*
X152950000Y-122550000D03*
X153450000Y-122550000D03*
D25*
X154100000Y-121900000D03*
X154100000Y-121400000D03*
X154100000Y-120900000D03*
X154100000Y-120400000D03*
X154100000Y-119900000D03*
X154100000Y-119400000D03*
X154100000Y-118900000D03*
X154100000Y-118400000D03*
X154100000Y-117900000D03*
X154100000Y-117400000D03*
X154100000Y-116900000D03*
X154100000Y-116400000D03*
D24*
X153450000Y-115750000D03*
X152950000Y-115750000D03*
X152450000Y-115750000D03*
X151950000Y-115750000D03*
X151450000Y-115750000D03*
X150950000Y-115750000D03*
X150450000Y-115750000D03*
X149950000Y-115750000D03*
X149450000Y-115750000D03*
X148950000Y-115750000D03*
X148450000Y-115750000D03*
X147950000Y-115750000D03*
D25*
X147300000Y-116400000D03*
X147300000Y-116900000D03*
X147300000Y-117400000D03*
X147300000Y-117900000D03*
X147300000Y-118400000D03*
X147300000Y-118900000D03*
X147300000Y-119400000D03*
X147300000Y-119900000D03*
X147300000Y-120400000D03*
X147300000Y-120900000D03*
X147300000Y-121400000D03*
X147300000Y-121900000D03*
D26*
X151343750Y-119793750D03*
X148768750Y-121081250D03*
X151343750Y-117218750D03*
X150056250Y-118506250D03*
X148768750Y-119793750D03*
X152631250Y-119793750D03*
X148768750Y-118506250D03*
X152631250Y-118506250D03*
X151343750Y-118506250D03*
X151343750Y-121081250D03*
X152631250Y-117218750D03*
X148768750Y-117218750D03*
X150056250Y-119793750D03*
X150056250Y-117218750D03*
X150056250Y-121081250D03*
X152631250Y-121081250D03*
D27*
X156420000Y-129137500D03*
X155180000Y-128362500D03*
X156420000Y-128362500D03*
X155180000Y-129137500D03*
D28*
X154800000Y-130300000D03*
X155300000Y-130300000D03*
X155800000Y-130300000D03*
X156300000Y-130300000D03*
X156800000Y-130300000D03*
X156800000Y-127200000D03*
X156300000Y-127200000D03*
X155800000Y-127200000D03*
X155300000Y-127200000D03*
X154800000Y-127200000D03*
D29*
X139250000Y-116950000D03*
X138300000Y-116950000D03*
X137350000Y-116950000D03*
X137350000Y-119650000D03*
X139250000Y-119650000D03*
D30*
X148000000Y-106125000D03*
X148000000Y-106775000D03*
X148000000Y-107425000D03*
X148000000Y-108075000D03*
X148000000Y-108725000D03*
X148000000Y-109375000D03*
X148000000Y-110025000D03*
X148000000Y-110675000D03*
X148000000Y-111325000D03*
X148000000Y-111975000D03*
X148000000Y-112625000D03*
X148000000Y-113275000D03*
X153600000Y-113275000D03*
X153600000Y-112625000D03*
X153600000Y-111975000D03*
X153600000Y-111325000D03*
X153600000Y-110675000D03*
X153600000Y-110025000D03*
X153600000Y-109375000D03*
X153600000Y-108725000D03*
X153600000Y-108075000D03*
X153600000Y-107425000D03*
X153600000Y-106775000D03*
X153600000Y-106125000D03*
D31*
X140147300Y-126232226D03*
X141097300Y-126232226D03*
X142047300Y-126232226D03*
X142047300Y-123957226D03*
X140147300Y-123957226D03*
D23*
X139610000Y-131400000D03*
X138590000Y-131400000D03*
D20*
X156800000Y-110810000D03*
X156800000Y-109790000D03*
D22*
X156800000Y-107890000D03*
X156800000Y-108910000D03*
D16*
X140915000Y-131400000D03*
X141885000Y-131400000D03*
D32*
X156785000Y-112600000D03*
X155815000Y-112600000D03*
X156785000Y-105600000D03*
X155815000Y-105600000D03*
D33*
X141725000Y-121100000D03*
X143475000Y-121100000D03*
X143475000Y-119700000D03*
X141725000Y-119700000D03*
D22*
X137920000Y-112430000D03*
X137920000Y-113450000D03*
D23*
X138750000Y-108760000D03*
X137730000Y-108760000D03*
D34*
X152100000Y-125885000D03*
X152100000Y-124915000D03*
D14*
X149600000Y-124220000D03*
X149600000Y-125180000D03*
D11*
X146030000Y-124100000D03*
X145070000Y-124100000D03*
X139777300Y-130094726D03*
X138817300Y-130094726D03*
D10*
X145846800Y-107617200D03*
X145846800Y-106657200D03*
D20*
X144830800Y-107647200D03*
X144830800Y-106627200D03*
M02*
