%FSLAX45Y45*%
G04 Gerber Fmt 4.5, Leading zero omitted, Abs format (unit mm)*
G04 Created by KiCad (PCBNEW 6.0.6) date 2022-08-23 18:23:02*
%MOMM*%
%LPD*%
G01*
G04 APERTURE LIST*
%TA.AperFunction,Profile*%
%ADD10C,0.150000*%
%TD*%
%ADD11C,0.200000*%
G04 APERTURE END LIST*
D10*
X13720000Y-10470000D02*
G75*
G03*
X13640000Y-10550000I0J-80000D01*
G01*
X15800000Y-10550000D02*
G75*
G03*
X15720000Y-10470000I-80000J0D01*
G01*
X13640000Y-10550000D02*
X13640000Y-13230000D01*
X13640000Y-13230000D02*
G75*
G03*
X13720000Y-13310000I80000J0D01*
G01*
X15720000Y-13310000D02*
G75*
G03*
X15800000Y-13230000I0J80000D01*
G01*
X15800000Y-13230000D02*
X15800000Y-10550000D01*
X14090000Y-10470000D02*
X13720000Y-10470000D01*
X15720000Y-10470000D02*
X15350000Y-10470000D01*
X14170000Y-9890000D02*
X14170000Y-10390000D01*
X15270000Y-9890000D02*
X15270000Y-10390000D01*
X14170000Y-9450000D02*
X14170000Y-9890000D01*
X15270000Y-9890000D02*
X15270000Y-8550000D01*
X15270000Y-10390000D02*
G75*
G03*
X15350000Y-10470000I80000J0D01*
G01*
X14376000Y-8471000D02*
G75*
G03*
X14296000Y-8551000I0J-80000D01*
G01*
X13720000Y-13310000D02*
X15720000Y-13310000D01*
X14240000Y-9280000D02*
X14240000Y-9380000D01*
X14090000Y-10470000D02*
G75*
G03*
X14170000Y-10390000I0J80000D01*
G01*
X15270000Y-8550000D02*
G75*
G03*
X15189000Y-8471000I-80000J-1000D01*
G01*
X14240000Y-9380000D02*
X14170000Y-9450000D01*
X15189000Y-8471000D02*
X14376000Y-8471000D01*
X14169000Y-9110000D02*
X14169000Y-9260000D01*
X14169000Y-9260000D02*
X14219000Y-9260000D01*
X14296000Y-8983000D02*
X14296000Y-8551000D01*
X14240000Y-9280000D02*
G75*
G03*
X14219001Y-9260025I-20000J0D01*
G01*
X14296000Y-8983000D02*
X14169000Y-9110000D01*
D11*
X13890119Y-13627976D02*
X13890119Y-13427976D01*
X13937738Y-13427976D01*
X13966309Y-13437500D01*
X13985357Y-13456548D01*
X13994881Y-13475595D01*
X14004405Y-13513690D01*
X14004405Y-13542262D01*
X13994881Y-13580357D01*
X13985357Y-13599405D01*
X13966309Y-13618452D01*
X13937738Y-13627976D01*
X13890119Y-13627976D01*
X14090119Y-13627976D02*
X14090119Y-13494643D01*
X14090119Y-13532738D02*
X14099643Y-13513690D01*
X14109167Y-13504167D01*
X14128214Y-13494643D01*
X14147262Y-13494643D01*
X14213928Y-13627976D02*
X14213928Y-13494643D01*
X14213928Y-13427976D02*
X14204405Y-13437500D01*
X14213928Y-13447024D01*
X14223452Y-13437500D01*
X14213928Y-13427976D01*
X14213928Y-13447024D01*
X14337738Y-13627976D02*
X14318690Y-13618452D01*
X14309167Y-13599405D01*
X14309167Y-13427976D01*
X14442500Y-13627976D02*
X14423452Y-13618452D01*
X14413928Y-13599405D01*
X14413928Y-13427976D01*
X14671071Y-13627976D02*
X14671071Y-13427976D01*
X14737738Y-13570833D01*
X14804405Y-13427976D01*
X14804405Y-13627976D01*
X14985357Y-13627976D02*
X14985357Y-13523214D01*
X14975833Y-13504167D01*
X14956786Y-13494643D01*
X14918690Y-13494643D01*
X14899643Y-13504167D01*
X14985357Y-13618452D02*
X14966309Y-13627976D01*
X14918690Y-13627976D01*
X14899643Y-13618452D01*
X14890119Y-13599405D01*
X14890119Y-13580357D01*
X14899643Y-13561309D01*
X14918690Y-13551786D01*
X14966309Y-13551786D01*
X14985357Y-13542262D01*
X15080595Y-13494643D02*
X15080595Y-13694643D01*
X15080595Y-13504167D02*
X15099643Y-13494643D01*
X15137738Y-13494643D01*
X15156786Y-13504167D01*
X15166309Y-13513690D01*
X15175833Y-13532738D01*
X15175833Y-13589881D01*
X15166309Y-13608928D01*
X15156786Y-13618452D01*
X15137738Y-13627976D01*
X15099643Y-13627976D01*
X15080595Y-13618452D01*
X15261548Y-13608928D02*
X15271071Y-13618452D01*
X15261548Y-13627976D01*
X15252024Y-13618452D01*
X15261548Y-13608928D01*
X15261548Y-13627976D01*
X15261548Y-13504167D02*
X15271071Y-13513690D01*
X15261548Y-13523214D01*
X15252024Y-13513690D01*
X15261548Y-13504167D01*
X15261548Y-13523214D01*
M02*
